<svg width="28" height="29" viewBox="0 0 28 29" fill="none" xmlns="http://www.w3.org/2000/svg">
<g clip-path="url(#clip0)">
<path d="M27.5436 15.9868L27.1158 15.4022C26.6523 14.7604 26.6452 13.9048 27.1016 13.2631L27.5151 12.6784C28.1568 11.78 27.8574 10.5251 26.8805 10.0045L26.2388 9.6623C25.54 9.29152 25.1693 8.51433 25.2976 7.73713L25.4188 7.0241C25.6042 5.93317 24.7914 4.92781 23.6862 4.88503L22.966 4.8565C22.1817 4.82085 21.4972 4.29322 21.2833 3.53028L21.0836 2.83151C20.777 1.76911 19.6148 1.22008 18.5952 1.65502L17.9321 1.94023C17.2048 2.25396 16.3705 2.06858 15.8358 1.47677L15.358 0.941996C14.6236 0.122017 13.333 0.136277 12.6129 0.963387L12.1423 1.50529C11.6218 2.0971 10.7875 2.29674 10.0603 1.99727L9.39001 1.72632C8.37038 1.30564 7.20815 1.87606 6.92294 2.93847L6.73042 3.63723C6.52364 4.39304 5.8534 4.93494 5.06194 4.98485L4.34179 5.02763C3.24373 5.0918 2.44514 6.1043 2.64479 7.1881L2.77313 7.89399C2.91574 8.67119 2.54496 9.44839 1.86046 9.82629L1.22587 10.1757C0.263282 10.7104 -0.0147977 11.9725 0.634055 12.8638L1.06187 13.4485C1.52534 14.0902 1.53247 14.9458 1.07613 15.5875L0.662576 16.1722C0.0208536 17.0706 0.320324 18.3256 1.29717 18.8461L1.93889 19.1883C2.63766 19.5591 3.00843 20.3363 2.88009 21.1135L2.75887 21.8265C2.57348 22.9174 3.38633 23.9228 4.49152 23.9656L5.21168 23.9941C5.99601 24.0298 6.68051 24.5574 6.89442 25.3203L7.09406 26.0191C7.40067 27.0815 8.5629 27.6305 9.58252 27.1956L10.2456 26.9104C10.9729 26.5966 11.8072 26.782 12.3419 27.3738L12.8197 27.9086C13.5541 28.7286 14.8447 28.7215 15.5719 27.8872L16.0425 27.3453C16.563 26.7535 17.3973 26.5539 18.1246 26.8533L18.7948 27.1243C19.8144 27.545 20.9767 26.9746 21.2619 25.9121L21.4473 25.2134C21.654 24.4576 22.3243 23.9157 23.1157 23.8658L23.8359 23.823C24.934 23.7588 25.7325 22.7463 25.5329 21.6625L25.4046 20.9566C25.2619 20.1794 25.6327 19.4022 26.3172 19.0243L26.9518 18.6749C27.9144 18.133 28.1925 16.8781 27.5436 15.9868ZM17.49 19.1028C16.9695 19.7302 16.2992 20.1509 15.5149 20.3719C15.1726 20.4646 15.0158 20.6429 15.0372 20.9994C15.0514 21.3488 15.0372 21.6982 15.0372 22.0475C15.0372 22.3613 14.8803 22.5253 14.5666 22.5324C14.1887 22.5467 13.8108 22.5467 13.44 22.5324C13.112 22.5253 12.9551 22.3399 12.948 22.019C12.9409 21.7623 12.9409 21.5056 12.9409 21.2561C12.9337 20.6928 12.9195 20.6714 12.3776 20.5858C11.6788 20.4789 11.0014 20.3149 10.3669 20.0083C9.86773 19.7659 9.81782 19.6446 9.96043 19.117C10.0674 18.732 10.1743 18.3327 10.2955 17.9548C10.4382 17.5127 10.5594 17.4557 10.9658 17.6624C11.6646 18.0261 12.4132 18.2329 13.1976 18.3327C13.6967 18.3969 14.1958 18.3469 14.6664 18.1402C15.5363 17.7551 15.6789 16.7498 14.9373 16.1437C14.6878 15.9369 14.4026 15.7872 14.1031 15.6517C13.3402 15.3166 12.5416 15.0599 11.8214 14.625C10.6521 13.9262 9.91051 12.9636 9.99608 11.5376C10.0959 9.92612 11.0086 8.92788 12.4774 8.38598C13.0906 8.16494 13.0906 8.17207 13.0906 7.53748V6.89576C13.1049 6.41803 13.1833 6.33247 13.661 6.31821C13.8108 6.31108 13.9605 6.31821 14.1031 6.31821C15.1156 6.31821 15.1156 6.31821 15.1227 7.3307C15.1299 8.05086 15.1227 8.05799 15.8429 8.16494C16.3919 8.25051 16.9124 8.4145 17.4258 8.63554C17.7039 8.76388 17.8108 8.9564 17.7253 9.24874C17.5969 9.69082 17.4828 10.1329 17.3402 10.5678C17.2119 10.9814 17.0764 11.0384 16.6771 10.8459C15.8857 10.4609 15.0514 10.304 14.1744 10.3468C13.9462 10.3611 13.7181 10.3896 13.5042 10.4823C12.7484 10.8103 12.62 11.6516 13.2689 12.165C13.5969 12.4288 13.9676 12.6142 14.3598 12.7782C15.03 13.0563 15.7074 13.3201 16.342 13.6766C18.3741 14.8103 18.916 17.363 17.49 19.1028Z" fill="#1123FF"/>
</g>
<defs>
<clipPath id="clip0">
<rect width="27.6511" height="28.2857" fill="white" transform="translate(0.284668 0.286133)"/>
</clipPath>
</defs>
</svg>
