<svg width="27" height="28" viewBox="0 0 27 28" fill="none" xmlns="http://www.w3.org/2000/svg">
<g clip-path="url(#clip0)">
<path d="M9.82303 15.3968C9.82303 15.0531 9.54243 14.7725 9.1987 14.7725H7.03107C6.68734 14.7725 6.40674 15.0531 6.40674 15.3968V17.5644C6.40674 17.9082 6.68734 18.1888 7.03107 18.1888H9.1987C9.54243 18.1888 9.82303 17.9082 9.82303 17.5644V15.3968Z" fill="#1123FF"/>
<path d="M15.2454 15.3968C15.2454 15.0531 14.9648 14.7725 14.6211 14.7725H12.4534C12.1097 14.7725 11.8291 15.0531 11.8291 15.3968V17.5644C11.8291 17.9082 12.1097 18.1888 12.4534 18.1888H14.6211C14.9648 18.1888 15.2454 17.9082 15.2454 17.5644V15.3968Z" fill="#1123FF"/>
<path d="M20.6682 15.3968C20.6682 15.0531 20.3876 14.7725 20.0439 14.7725H17.8763C17.5326 14.7725 17.252 15.0531 17.252 15.3968V17.5644C17.252 17.9082 17.5326 18.1888 17.8763 18.1888H20.0439C20.3876 18.1888 20.6682 17.9082 20.6682 17.5644V15.3968Z" fill="#1123FF"/>
<path d="M9.82303 20.8265C9.82303 20.4827 9.54243 20.2021 9.1987 20.2021H7.03107C6.68734 20.2021 6.40674 20.4827 6.40674 20.8265V22.9941C6.40674 23.3378 6.68734 23.6184 7.03107 23.6184H9.1987C9.54243 23.6184 9.82303 23.3378 9.82303 22.9941V20.8265Z" fill="#1123FF"/>
<path d="M15.2454 20.8265C15.2454 20.4827 14.9648 20.2021 14.6211 20.2021H12.4534C12.1097 20.2021 11.8291 20.4827 11.8291 20.8265V22.9941C11.8291 23.3378 12.1097 23.6184 12.4534 23.6184H14.6211C14.9648 23.6184 15.2454 23.3378 15.2454 22.9941V20.8265Z" fill="#1123FF"/>
<path d="M20.6682 20.8255C20.6682 20.4818 20.3876 20.2012 20.0439 20.2012H17.8763C17.5326 20.2012 17.252 20.4818 17.252 20.8255V22.9931C17.252 23.3369 17.5326 23.6175 17.8763 23.6175H20.0439C20.3876 23.6175 20.6682 23.3369 20.6682 22.9931V20.8255Z" fill="#1123FF"/>
<path d="M24.5472 3.33727V6.64834C24.5472 8.14955 23.3336 9.35612 21.8324 9.35612H20.1208C18.6195 9.35612 17.3919 8.14955 17.3919 6.64834V3.32324H9.68246V6.64834C9.68246 8.14955 8.44783 9.35612 6.95363 9.35612H5.24198C3.74779 9.35612 2.52718 8.14955 2.52718 6.64834V3.33727C1.21538 3.37936 0.14209 4.45967 0.14209 5.79252V25.21C0.14209 26.5639 1.24344 27.6793 2.59733 27.6793H24.4771C25.8309 27.6793 26.9323 26.5639 26.9323 25.21V5.79252C26.9323 4.45967 25.852 3.37235 24.5472 3.33727ZM23.7475 24.0034C23.7475 24.5927 23.2705 25.0627 22.6882 25.0627H4.33705C3.74779 25.0627 3.27779 24.5856 3.27779 24.0034V13.972C3.27779 13.3827 3.7548 12.9127 4.33705 12.9127H22.6882C23.2775 12.9127 23.7475 13.3897 23.7475 13.972V24.0034Z" fill="#1123FF"/>
<path d="M5.23524 7.58171H6.92585C7.43795 7.58171 7.85885 7.16081 7.85885 6.64872V1.21913C7.85885 0.700017 7.43795 0.286133 6.92585 0.286133H5.23524C4.72315 0.286133 4.30225 0.700017 4.30225 1.21913V6.64872C4.30225 7.16081 4.71613 7.58171 5.23524 7.58171Z" fill="#1123FF"/>
<path d="M20.0995 7.58171H21.7901C22.3022 7.58171 22.7231 7.16783 22.7231 6.64872V1.21913C22.7231 0.707032 22.3092 0.286133 21.7901 0.286133H20.0995C19.5874 0.286133 19.1665 0.700017 19.1665 1.21913V6.64872C19.1665 7.16081 19.5874 7.58171 20.0995 7.58171Z" fill="#1123FF"/>
</g>
<defs>
<clipPath id="clip0">
<rect width="26.7902" height="27.4286" fill="white" transform="translate(0.14209 0.286133)"/>
</clipPath>
</defs>
</svg>
