<svg width="26" height="26" viewBox="0 0 26 26" fill="none" xmlns="http://www.w3.org/2000/svg">
<g clip-path="url(#clip0)">
<path d="M3.83961 13.4385L0.914804 13.0186C0.548593 12.9648 0.275156 12.6475 0.284922 12.2764C0.45582 5.47461 5.92457 0.142578 12.7312 0.142578C14.9968 0.142578 17.199 0.757812 19.1375 1.92969L20.6462 0.420898C21.0759 -0.00878908 21.8035 0.240234 21.8914 0.835938L22.9265 8.08691C22.9949 8.57031 22.575 8.99023 22.0964 8.91699L14.8455 7.88184C14.2498 7.79395 14.0056 7.06152 14.4304 6.63672L15.8855 5.18164C14.8943 4.75684 13.8201 4.53711 12.7312 4.53711C8.24391 4.53711 4.61598 8.21387 4.67457 12.7061C4.68434 13.1602 4.27906 13.502 3.83961 13.4385Z" fill="#1123FF"/>
<path d="M12.8384 25.1426C10.5679 25.1426 8.36573 24.5322 6.43702 23.375L4.89405 24.918C4.46436 25.3428 3.73682 25.0986 3.64893 24.5029L2.61378 17.2519C2.54542 16.7637 2.96534 16.3535 3.44386 16.4219L10.6948 17.457C11.2905 17.5449 11.5347 18.2773 11.1099 18.7021L9.70362 20.1084C10.6948 20.5283 11.7642 20.748 12.8433 20.748C17.2866 20.748 20.8999 17.1348 20.8999 12.6914C20.8999 12.1787 21.3589 11.8564 21.7349 11.9053L24.6597 12.3252C25.0308 12.3789 25.2993 12.7012 25.2896 13.0723C25.0796 19.8398 19.6157 25.1426 12.8384 25.1426Z" fill="#1123FF"/>
</g>
<defs>
<clipPath id="clip0">
<rect width="25" height="25" fill="white" transform="translate(0.284668 0.142578)"/>
</clipPath>
</defs>
</svg>
