<svg width="70" height="81" viewBox="0 0 70 81" fill="none" xmlns="http://www.w3.org/2000/svg">
<circle cx="68.3562" cy="78.53" r="1.64383" transform="rotate(-180 68.3562 78.53)" fill="#D6DDEC"/>
<circle cx="68.3562" cy="67.571" r="1.64383" transform="rotate(-180 68.3562 67.571)" fill="#D6DDEC"/>
<circle cx="68.3562" cy="56.6125" r="1.64383" transform="rotate(-180 68.3562 56.6125)" fill="#D6DDEC"/>
<circle cx="68.3562" cy="45.653" r="1.64383" transform="rotate(-180 68.3562 45.653)" fill="#D6DDEC"/>
<circle cx="68.3562" cy="34.6945" r="1.64383" transform="rotate(-180 68.3562 34.6945)" fill="#D6DDEC"/>
<circle cx="68.3562" cy="23.7356" r="1.64383" transform="rotate(-180 68.3562 23.7356)" fill="#D6DDEC"/>
<circle cx="68.3562" cy="12.7766" r="1.64383" transform="rotate(-180 68.3562 12.7766)" fill="#D6DDEC"/>
<circle cx="68.3562" cy="1.81808" r="1.64383" transform="rotate(-180 68.3562 1.81808)" fill="#D6DDEC"/>
<circle cx="57.3974" cy="78.53" r="1.64383" transform="rotate(-180 57.3974 78.53)" fill="#D6DDEC"/>
<circle cx="57.3972" cy="67.571" r="1.64383" transform="rotate(-180 57.3972 67.571)" fill="#D6DDEC"/>
<circle cx="57.3972" cy="56.6125" r="1.64383" transform="rotate(-180 57.3972 56.6125)" fill="#D6DDEC"/>
<circle cx="57.3972" cy="45.653" r="1.64383" transform="rotate(-180 57.3972 45.653)" fill="#D6DDEC"/>
<circle cx="57.3972" cy="34.6945" r="1.64383" transform="rotate(-180 57.3972 34.6945)" fill="#D6DDEC"/>
<circle cx="57.3972" cy="23.7356" r="1.64383" transform="rotate(-180 57.3972 23.7356)" fill="#D6DDEC"/>
<circle cx="57.3972" cy="12.7766" r="1.64383" transform="rotate(-180 57.3972 12.7766)" fill="#D6DDEC"/>
<circle cx="57.3972" cy="1.81808" r="1.64383" transform="rotate(-180 57.3972 1.81808)" fill="#D6DDEC"/>
<circle cx="46.4384" cy="78.53" r="1.64383" transform="rotate(-180 46.4384 78.53)" fill="#D6DDEC"/>
<circle cx="46.4382" cy="67.571" r="1.64383" transform="rotate(-180 46.4382 67.571)" fill="#D6DDEC"/>
<circle cx="46.4382" cy="56.6125" r="1.64383" transform="rotate(-180 46.4382 56.6125)" fill="#D6DDEC"/>
<circle cx="46.4382" cy="45.653" r="1.64383" transform="rotate(-180 46.4382 45.653)" fill="#D6DDEC"/>
<circle cx="46.4382" cy="34.6941" r="1.64383" transform="rotate(-180 46.4382 34.6941)" fill="#D6DDEC"/>
<circle cx="46.4382" cy="23.7356" r="1.64383" transform="rotate(-180 46.4382 23.7356)" fill="#D6DDEC"/>
<circle cx="46.4382" cy="12.7766" r="1.64383" transform="rotate(-180 46.4382 12.7766)" fill="#D6DDEC"/>
<circle cx="46.4382" cy="1.81808" r="1.64383" transform="rotate(-180 46.4382 1.81808)" fill="#D6DDEC"/>
<circle cx="35.4792" cy="78.53" r="1.64383" transform="rotate(-180 35.4792 78.53)" fill="#D6DDEC"/>
<circle cx="35.4797" cy="67.571" r="1.64383" transform="rotate(-180 35.4797 67.571)" fill="#D6DDEC"/>
<circle cx="35.4797" cy="56.6125" r="1.64383" transform="rotate(-180 35.4797 56.6125)" fill="#D6DDEC"/>
<circle cx="35.4797" cy="45.653" r="1.64383" transform="rotate(-180 35.4797 45.653)" fill="#D6DDEC"/>
<circle cx="35.4797" cy="34.6941" r="1.64383" transform="rotate(-180 35.4797 34.6941)" fill="#D6DDEC"/>
<circle cx="35.4797" cy="23.7356" r="1.64383" transform="rotate(-180 35.4797 23.7356)" fill="#D6DDEC"/>
<circle cx="35.4797" cy="12.7766" r="1.64383" transform="rotate(-180 35.4797 12.7766)" fill="#D6DDEC"/>
<circle cx="35.4797" cy="1.81808" r="1.64383" transform="rotate(-180 35.4797 1.81808)" fill="#D6DDEC"/>
<circle cx="24.5205" cy="78.53" r="1.64383" transform="rotate(-180 24.5205 78.53)" fill="#D6DDEC"/>
<circle cx="24.5212" cy="67.571" r="1.64383" transform="rotate(-180 24.5212 67.571)" fill="#D6DDEC"/>
<circle cx="24.5212" cy="56.6125" r="1.64383" transform="rotate(-180 24.5212 56.6125)" fill="#D6DDEC"/>
<circle cx="24.5212" cy="45.653" r="1.64383" transform="rotate(-180 24.5212 45.653)" fill="#D6DDEC"/>
<circle cx="24.5212" cy="34.6941" r="1.64383" transform="rotate(-180 24.5212 34.6941)" fill="#D6DDEC"/>
<circle cx="24.5212" cy="23.7356" r="1.64383" transform="rotate(-180 24.5212 23.7356)" fill="#D6DDEC"/>
<circle cx="24.5212" cy="12.7766" r="1.64383" transform="rotate(-180 24.5212 12.7766)" fill="#D6DDEC"/>
<circle cx="24.5212" cy="1.81808" r="1.64383" transform="rotate(-180 24.5212 1.81808)" fill="#D6DDEC"/>
<circle cx="13.5622" cy="78.53" r="1.64383" transform="rotate(-180 13.5622 78.53)" fill="#D6DDEC"/>
<circle cx="13.5622" cy="67.571" r="1.64383" transform="rotate(-180 13.5622 67.571)" fill="#D6DDEC"/>
<circle cx="13.5622" cy="56.6125" r="1.64383" transform="rotate(-180 13.5622 56.6125)" fill="#D6DDEC"/>
<circle cx="13.5622" cy="45.653" r="1.64383" transform="rotate(-180 13.5622 45.653)" fill="#D6DDEC"/>
<circle cx="13.5622" cy="34.6941" r="1.64383" transform="rotate(-180 13.5622 34.6941)" fill="#D6DDEC"/>
<circle cx="13.5622" cy="23.7356" r="1.64383" transform="rotate(-180 13.5622 23.7356)" fill="#D6DDEC"/>
<circle cx="13.5622" cy="12.7766" r="1.64383" transform="rotate(-180 13.5622 12.7766)" fill="#D6DDEC"/>
<circle cx="13.5622" cy="1.81808" r="1.64383" transform="rotate(-180 13.5622 1.81808)" fill="#D6DDEC"/>
<circle cx="2.60275" cy="78.53" r="1.64383" transform="rotate(-180 2.60275 78.53)" fill="#D6DDEC"/>
<circle cx="2.60275" cy="67.571" r="1.64383" transform="rotate(-180 2.60275 67.571)" fill="#D6DDEC"/>
<circle cx="2.60275" cy="56.6125" r="1.64383" transform="rotate(-180 2.60275 56.6125)" fill="#D6DDEC"/>
<circle cx="2.60275" cy="45.653" r="1.64383" transform="rotate(-180 2.60275 45.653)" fill="#D6DDEC"/>
<circle cx="2.60275" cy="34.6941" r="1.64383" transform="rotate(-180 2.60275 34.6941)" fill="#D6DDEC"/>
<circle cx="2.60275" cy="23.7356" r="1.64383" transform="rotate(-180 2.60275 23.7356)" fill="#D6DDEC"/>
<circle cx="2.60275" cy="12.7766" r="1.64383" transform="rotate(-180 2.60275 12.7766)" fill="#D6DDEC"/>
<circle cx="2.60275" cy="1.81808" r="1.64383" transform="rotate(-180 2.60275 1.81808)" fill="#D6DDEC"/>
</svg>
