<svg width="730" height="224" viewBox="0 0 730 224" fill="none" xmlns="http://www.w3.org/2000/svg">
<g filter="url(#filter0_d)">
<g filter="url(#filter1_d)">
<path d="M84.6538 144.308C122.57 144.308 153.308 113.57 153.308 75.6538C153.308 37.7374 122.57 7 84.6538 7C46.7374 7 16 37.7374 16 75.6538C16 113.57 46.7374 144.308 84.6538 144.308Z" fill="#EFEEEE"/>
<path d="M151.808 75.6538C151.808 112.742 121.742 142.808 84.6538 142.808C47.5658 142.808 17.5 112.742 17.5 75.6538C17.5 38.5658 47.5658 8.49999 84.6538 8.49999C121.742 8.49999 151.808 38.5658 151.808 75.6538Z" stroke="#278AFD" stroke-width="3"/>
</g>
<path d="M35.6259 78.1768V66.9768H38.2819L41.2259 71.7128L44.1699 66.9768H46.8259V78.1768H44.3779V70.8648L41.2259 75.6488H41.1619L38.0419 70.9128V78.1768H35.6259ZM53.3245 78.3688C52.0231 78.3688 50.9511 77.9581 50.1085 77.1368C49.2658 76.3048 48.8445 75.2274 48.8445 73.9048C48.8445 72.6568 49.2445 71.6008 50.0445 70.7368C50.8445 69.8728 51.8578 69.4408 53.0845 69.4408C54.4391 69.4408 55.4738 69.8888 56.1885 70.7848C56.9031 71.6808 57.2605 72.7848 57.2605 74.0968C57.2605 74.2248 57.2498 74.4381 57.2285 74.7368H51.2605C51.3778 75.2808 51.6178 75.6968 51.9805 75.9848C52.3431 76.2728 52.8018 76.4168 53.3565 76.4168C54.1138 76.4168 54.8071 76.1234 55.4365 75.5368L56.8285 76.7688C55.9645 77.8354 54.7965 78.3688 53.3245 78.3688ZM51.2285 73.2168H54.8925C54.8178 72.6621 54.6205 72.2194 54.3005 71.8888C53.9911 71.5581 53.5858 71.3928 53.0845 71.3928C52.5938 71.3928 52.1831 71.5581 51.8525 71.8888C51.5325 72.2088 51.3245 72.6514 51.2285 73.2168ZM59.073 78.1768V69.6008H61.505V70.8168C62.2196 69.8994 63.0623 69.4408 64.033 69.4408C65.1743 69.4408 65.9796 69.8941 66.449 70.8008C67.2276 69.8941 68.1663 69.4408 69.265 69.4408C70.1823 69.4408 70.8916 69.7128 71.393 70.2568C71.905 70.7901 72.161 71.5688 72.161 72.5928V78.1768H69.729V73.3928C69.729 72.2301 69.2543 71.6488 68.305 71.6488C67.8463 71.6488 67.4836 71.7981 67.217 72.0968C66.961 72.3954 66.833 72.8274 66.833 73.3928V78.1768H64.401V73.3928C64.401 72.2301 63.9263 71.6488 62.977 71.6488C62.5183 71.6488 62.1556 71.7981 61.889 72.0968C61.633 72.3954 61.505 72.8274 61.505 73.3928V78.1768H59.073ZM79.3801 78.3368C78.3134 78.3368 77.4228 77.9101 76.7081 77.0568V78.1768H74.2761V66.4968H76.7081V70.8328C77.3908 69.9048 78.2814 69.4408 79.3801 69.4408C80.4468 69.4408 81.3641 69.8408 82.1321 70.6408C82.9001 71.4408 83.2841 72.5288 83.2841 73.9048C83.2841 75.2701 82.9001 76.3528 82.1321 77.1528C81.3748 77.9421 80.4574 78.3368 79.3801 78.3368ZM77.2681 75.6168C77.6734 76.0541 78.1694 76.2728 78.7561 76.2728C79.3428 76.2728 79.8388 76.0541 80.2441 75.6168C80.6494 75.1688 80.8521 74.5874 80.8521 73.8728C80.8521 73.1794 80.6494 72.6141 80.2441 72.1768C79.8388 71.7288 79.3428 71.5048 78.7561 71.5048C78.1694 71.5048 77.6734 71.7288 77.2681 72.1768C76.8734 72.6141 76.6761 73.1901 76.6761 73.9048C76.6761 74.5981 76.8734 75.1688 77.2681 75.6168ZM89.137 78.3688C87.8356 78.3688 86.7636 77.9581 85.921 77.1368C85.0783 76.3048 84.657 75.2274 84.657 73.9048C84.657 72.6568 85.057 71.6008 85.857 70.7368C86.657 69.8728 87.6703 69.4408 88.897 69.4408C90.2516 69.4408 91.2863 69.8888 92.001 70.7848C92.7156 71.6808 93.073 72.7848 93.073 74.0968C93.073 74.2248 93.0623 74.4381 93.041 74.7368H87.073C87.1903 75.2808 87.4303 75.6968 87.793 75.9848C88.1556 76.2728 88.6143 76.4168 89.169 76.4168C89.9263 76.4168 90.6196 76.1234 91.249 75.5368L92.641 76.7688C91.777 77.8354 90.609 78.3688 89.137 78.3688ZM87.041 73.2168H90.705C90.6303 72.6621 90.433 72.2194 90.113 71.8888C89.8036 71.5581 89.3983 71.3928 88.897 71.3928C88.4063 71.3928 87.9956 71.5581 87.665 71.8888C87.345 72.2088 87.137 72.6514 87.041 73.2168ZM94.8855 78.1768V69.6008H97.3175V71.3288C97.8721 70.0168 98.7841 69.3874 100.053 69.4408V71.9848H99.9255C99.0935 71.9848 98.4481 72.2408 97.9895 72.7528C97.5415 73.2541 97.3175 74.0061 97.3175 75.0088V78.1768H94.8855ZM104.581 78.3368C103.226 78.3368 102 77.9048 100.901 77.0408L101.941 75.4408C102.88 76.1234 103.781 76.4648 104.645 76.4648C105.328 76.4648 105.669 76.2408 105.669 75.7928C105.669 75.7394 105.658 75.6861 105.637 75.6328C105.626 75.5794 105.6 75.5314 105.557 75.4888C105.514 75.4461 105.466 75.4088 105.413 75.3768C105.37 75.3341 105.306 75.2968 105.221 75.2648C105.146 75.2221 105.077 75.1901 105.013 75.1688C104.96 75.1368 104.88 75.1048 104.773 75.0728C104.666 75.0301 104.576 74.9981 104.501 74.9768C104.426 74.9554 104.325 74.9288 104.197 74.8968C104.069 74.8541 103.968 74.8221 103.893 74.8008C103.53 74.6941 103.221 74.5874 102.965 74.4808C102.72 74.3634 102.458 74.2088 102.181 74.0168C101.904 73.8141 101.69 73.5634 101.541 73.2648C101.402 72.9554 101.333 72.5981 101.333 72.1928C101.333 71.3501 101.632 70.6888 102.229 70.2088C102.826 69.7181 103.573 69.4728 104.469 69.4728C105.621 69.4728 106.688 69.8034 107.669 70.4648L106.741 72.1448C105.834 71.6114 105.061 71.3448 104.421 71.3448C103.824 71.3448 103.525 71.5528 103.525 71.9688C103.525 72.2568 104.016 72.5661 104.997 72.8968C105.114 72.9394 105.205 72.9714 105.269 72.9928C105.557 73.0888 105.802 73.1794 106.005 73.2648C106.208 73.3501 106.437 73.4674 106.693 73.6168C106.949 73.7661 107.152 73.9261 107.301 74.0968C107.461 74.2568 107.594 74.4648 107.701 74.7208C107.808 74.9768 107.861 75.2594 107.861 75.5688C107.861 76.4861 107.557 77.1794 106.949 77.6488C106.352 78.1074 105.562 78.3368 104.581 78.3368ZM109.604 78.1768V66.4968H112.036V70.8168C112.751 69.8994 113.588 69.4408 114.548 69.4408C115.466 69.4408 116.18 69.7234 116.692 70.2888C117.204 70.8541 117.46 71.6328 117.46 72.6248V78.1768H115.028V73.3928C115.028 72.8274 114.9 72.3954 114.644 72.0968C114.388 71.7981 114.026 71.6488 113.556 71.6488C113.087 71.6488 112.714 71.7981 112.436 72.0968C112.17 72.3954 112.036 72.8274 112.036 73.3928V78.1768H109.604ZM119.621 68.6568V66.4968H122.181V68.6568H119.621ZM119.685 78.1768V69.6008H122.117V78.1768H119.685ZM124.401 80.7368V69.6008H126.833V70.8328C127.516 69.9048 128.406 69.4408 129.505 69.4408C130.572 69.4408 131.489 69.8408 132.257 70.6408C133.025 71.4408 133.409 72.5288 133.409 73.9048C133.409 75.2701 133.025 76.3528 132.257 77.1528C131.5 77.9421 130.582 78.3368 129.505 78.3368C128.438 78.3368 127.548 77.9101 126.833 77.0568V80.7368H124.401ZM127.393 75.6168C127.798 76.0541 128.294 76.2728 128.881 76.2728C129.468 76.2728 129.964 76.0541 130.369 75.6168C130.774 75.1688 130.977 74.5874 130.977 73.8728C130.977 73.1794 130.774 72.6141 130.369 72.1768C129.964 71.7288 129.468 71.5048 128.881 71.5048C128.294 71.5048 127.798 71.7288 127.393 72.1768C126.998 72.6141 126.801 73.1901 126.801 73.9048C126.801 74.5981 126.998 75.1688 127.393 75.6168ZM64.204 97.1768V85.9768H68.78C70.1026 85.9768 71.148 86.3341 71.916 87.0488C72.684 87.7634 73.068 88.7074 73.068 89.8808C73.068 91.1288 72.6413 92.0994 71.788 92.7928C70.9346 93.4754 69.852 93.8168 68.54 93.8168H66.668V97.1768H64.204ZM66.668 91.6248H68.62C69.228 91.6248 69.7026 91.4648 70.044 91.1448C70.396 90.8248 70.572 90.4088 70.572 89.8968C70.572 89.3528 70.396 88.9368 70.044 88.6488C69.692 88.3501 69.2013 88.2008 68.572 88.2008H66.668V91.6248ZM82.0774 96.0728C81.192 96.9368 80.088 97.3688 78.7654 97.3688C77.4427 97.3688 76.3387 96.9421 75.4534 96.0888C74.5787 95.2248 74.1414 94.1634 74.1414 92.9048C74.1414 91.6568 74.584 90.6008 75.4694 89.7368C76.3654 88.8728 77.4747 88.4408 78.7974 88.4408C80.12 88.4408 81.2187 88.8728 82.0934 89.7368C82.9787 90.5901 83.4214 91.6461 83.4214 92.9048C83.4214 94.1528 82.9734 95.2088 82.0774 96.0728ZM78.7974 95.2728C79.4694 95.2728 80.008 95.0488 80.4134 94.6008C80.8187 94.1421 81.0214 93.5768 81.0214 92.9048C81.0214 92.2541 80.808 91.6994 80.3814 91.2408C79.9654 90.7714 79.4267 90.5368 78.7654 90.5368C78.0934 90.5368 77.5547 90.7661 77.1494 91.2248C76.744 91.6728 76.5414 92.2328 76.5414 92.9048C76.5414 93.5554 76.7494 94.1154 77.1654 94.5848C77.592 95.0434 78.136 95.2728 78.7974 95.2728ZM85.2304 87.6568V85.4968H87.7904V87.6568H85.2304ZM85.2944 97.1768V88.6008H87.7264V97.1768H85.2944ZM90.0105 97.1768V88.6008H92.4425V89.8168C93.1571 88.8994 93.9945 88.4408 94.9545 88.4408C95.8718 88.4408 96.5865 88.7234 97.0985 89.2888C97.6105 89.8541 97.8665 90.6328 97.8665 91.6248V97.1768H95.4345V92.3928C95.4345 91.8274 95.3065 91.3954 95.0505 91.0968C94.7945 90.7981 94.4318 90.6488 93.9625 90.6488C93.4931 90.6488 93.1198 90.7981 92.8425 91.0968C92.5758 91.3954 92.4425 91.8274 92.4425 92.3928V97.1768H90.0105ZM102.875 97.3208C102.075 97.3208 101.457 97.1288 101.019 96.7448C100.593 96.3501 100.379 95.6834 100.379 94.7448V90.6808H99.3552V88.6008H100.379V86.4088H102.811V88.6008H104.827V90.6808H102.811V94.3448C102.811 94.8994 103.073 95.1768 103.595 95.1768C104.022 95.1768 104.422 95.0754 104.795 94.8728V96.8248C104.241 97.1554 103.601 97.3208 102.875 97.3208Z" fill="#1C202B"/>
</g>
<path d="M58.479 180.446V170.452H59.6412V180.446H58.479ZM67.3453 180.446V175.6C67.3453 174.989 67.2063 174.533 66.9283 174.232C66.6503 173.932 66.215 173.781 65.6226 173.781C64.8387 173.781 64.2645 173.993 63.8999 174.417C63.5354 174.841 63.3531 175.54 63.3531 176.516V180.446H62.2183V172.954H63.1412L63.3257 173.979H63.3804C63.6128 173.61 63.9387 173.326 64.3579 173.125C64.7772 172.92 65.2443 172.817 65.7593 172.817C66.6617 172.817 67.3407 173.036 67.7964 173.474C68.2522 173.907 68.48 174.602 68.48 175.559V180.446H67.3453ZM73.812 180.583C72.7274 180.583 71.8866 180.25 71.2896 179.585C70.6971 178.915 70.4009 177.969 70.4009 176.748C70.4009 175.495 70.7017 174.526 71.3033 173.843C71.9094 173.159 72.7707 172.817 73.8872 172.817C74.2473 172.817 74.6073 172.856 74.9673 172.934C75.3273 173.011 75.6099 173.102 75.815 173.207L75.4663 174.171C75.2157 174.071 74.9423 173.989 74.646 173.925C74.3498 173.856 74.0878 173.822 73.8599 173.822C72.3378 173.822 71.5767 174.793 71.5767 176.734C71.5767 177.655 71.7613 178.361 72.1304 178.854C72.5041 179.346 73.0555 179.592 73.7847 179.592C74.4091 179.592 75.0494 179.457 75.7056 179.188V180.193C75.2043 180.453 74.5731 180.583 73.812 180.583ZM80.9078 172.817C81.2404 172.817 81.5389 172.845 81.8033 172.899L81.646 173.952C81.3361 173.884 81.0627 173.85 80.8257 173.85C80.2196 173.85 79.7001 174.096 79.2671 174.588C78.8387 175.08 78.6245 175.693 78.6245 176.427V180.446H77.4898V172.954H78.4263L78.5562 174.342H78.6109C78.8889 173.854 79.2238 173.478 79.6158 173.214C80.0077 172.95 80.4384 172.817 80.9078 172.817ZM86.3697 180.583C85.2622 180.583 84.3872 180.246 83.7447 179.571C83.1066 178.897 82.7876 177.96 82.7876 176.762C82.7876 175.554 83.0839 174.595 83.6763 173.884C84.2733 173.173 85.0731 172.817 86.0757 172.817C87.0145 172.817 87.7574 173.127 88.3042 173.747C88.8511 174.362 89.1245 175.176 89.1245 176.188V176.905H83.9634C83.9862 177.785 84.2072 178.452 84.6265 178.908C85.0503 179.364 85.6451 179.592 86.4107 179.592C87.2173 179.592 88.0148 179.423 88.8033 179.086V180.098C88.4022 180.271 88.0217 180.394 87.6617 180.467C87.3062 180.544 86.8755 180.583 86.3697 180.583ZM86.062 173.768C85.4605 173.768 84.9797 173.964 84.6197 174.355C84.2642 174.747 84.0546 175.29 83.9908 175.982H87.9078C87.9078 175.267 87.7482 174.72 87.4292 174.342C87.1102 173.959 86.6545 173.768 86.062 173.768ZM95.6734 180.446L95.4478 179.38H95.3931C95.0194 179.849 94.6457 180.168 94.272 180.337C93.9029 180.501 93.4403 180.583 92.8843 180.583C92.1415 180.583 91.5581 180.392 91.1343 180.009C90.715 179.626 90.5054 179.081 90.5054 178.375C90.5054 176.862 91.7154 176.069 94.1353 175.996L95.4068 175.955V175.49C95.4068 174.902 95.2792 174.469 95.024 174.191C94.7733 173.909 94.37 173.768 93.814 173.768C93.1897 173.768 92.4833 173.959 91.6949 174.342L91.3462 173.474C91.7154 173.273 92.1187 173.116 92.5562 173.002C92.9982 172.888 93.4403 172.831 93.8824 172.831C94.7756 172.831 95.4364 173.029 95.8648 173.426C96.2977 173.822 96.5142 174.458 96.5142 175.333V180.446H95.6734ZM93.1099 179.646C93.8163 179.646 94.37 179.453 94.771 179.065C95.1766 178.678 95.3794 178.136 95.3794 177.438V176.762L94.2447 176.81C93.3423 176.841 92.6906 176.983 92.2896 177.233C91.8931 177.479 91.6949 177.865 91.6949 178.389C91.6949 178.799 91.8179 179.111 92.064 179.325C92.3147 179.539 92.6633 179.646 93.1099 179.646ZM103.692 178.402C103.692 179.1 103.432 179.637 102.913 180.016C102.393 180.394 101.664 180.583 100.725 180.583C99.7316 180.583 98.9569 180.426 98.4009 180.111V179.059C98.7609 179.241 99.146 179.384 99.5562 179.489C99.9709 179.594 100.37 179.646 100.752 179.646C101.345 179.646 101.801 179.553 102.12 179.366C102.439 179.175 102.598 178.885 102.598 178.498C102.598 178.206 102.471 177.958 102.215 177.753C101.965 177.543 101.473 177.297 100.739 177.015C100.042 176.755 99.5448 176.529 99.2486 176.338C98.9569 176.142 98.7382 175.921 98.5923 175.675C98.451 175.429 98.3804 175.135 98.3804 174.793C98.3804 174.182 98.6288 173.701 99.1255 173.351C99.6223 172.995 100.304 172.817 101.169 172.817C101.976 172.817 102.765 172.981 103.535 173.31L103.131 174.232C102.379 173.923 101.698 173.768 101.087 173.768C100.55 173.768 100.144 173.852 99.8706 174.021C99.5972 174.189 99.4605 174.422 99.4605 174.718C99.4605 174.918 99.5106 175.089 99.6109 175.23C99.7157 175.372 99.882 175.506 100.11 175.634C100.338 175.761 100.775 175.946 101.422 176.188C102.311 176.511 102.91 176.837 103.22 177.165C103.535 177.493 103.692 177.906 103.692 178.402ZM108.71 180.583C107.602 180.583 106.727 180.246 106.085 179.571C105.446 178.897 105.127 177.96 105.127 176.762C105.127 175.554 105.424 174.595 106.016 173.884C106.613 173.173 107.413 172.817 108.416 172.817C109.354 172.817 110.097 173.127 110.644 173.747C111.191 174.362 111.464 175.176 111.464 176.188V176.905H106.303C106.326 177.785 106.547 178.452 106.966 178.908C107.39 179.364 107.985 179.592 108.751 179.592C109.557 179.592 110.355 179.423 111.143 179.086V180.098C110.742 180.271 110.362 180.394 110.002 180.467C109.646 180.544 109.215 180.583 108.71 180.583ZM108.402 173.768C107.8 173.768 107.32 173.964 106.96 174.355C106.604 174.747 106.394 175.29 106.331 175.982H110.248C110.248 175.267 110.088 174.72 109.769 174.342C109.45 173.959 108.994 173.768 108.402 173.768ZM30.0826 201.446L26.6919 192.587H26.6372C26.701 193.289 26.7329 194.123 26.7329 195.089V201.446H25.6597V191.452H27.4097L30.5747 199.696H30.6294L33.8218 191.452H35.5581V201.446H34.396V195.007C34.396 194.269 34.4279 193.466 34.4917 192.601H34.437L31.0191 201.446H30.0826ZM41.3003 201.583C40.1929 201.583 39.3179 201.246 38.6753 200.571C38.0373 199.897 37.7183 198.96 37.7183 197.762C37.7183 196.554 38.0145 195.595 38.607 194.884C39.204 194.173 40.0038 193.817 41.0064 193.817C41.9452 193.817 42.688 194.127 43.2349 194.747C43.7818 195.362 44.0552 196.176 44.0552 197.188V197.905H38.8941C38.9169 198.785 39.1379 199.452 39.5572 199.908C39.981 200.364 40.5757 200.592 41.3413 200.592C42.148 200.592 42.9455 200.423 43.7339 200.086V201.098C43.3329 201.271 42.9523 201.394 42.5923 201.467C42.2369 201.544 41.8062 201.583 41.3003 201.583ZM40.9927 194.768C40.3912 194.768 39.9104 194.964 39.5503 195.355C39.1949 195.747 38.9852 196.29 38.9214 196.982H42.8384C42.8384 196.267 42.6789 195.72 42.3599 195.342C42.0409 194.959 41.5852 194.768 40.9927 194.768ZM55.5464 201.446V196.572C55.5464 195.975 55.4188 195.529 55.1636 195.232C54.9084 194.932 54.5119 194.781 53.9742 194.781C53.2678 194.781 52.746 194.984 52.4087 195.39C52.0715 195.795 51.9029 196.42 51.9029 197.263V201.446H50.7681V196.572C50.7681 195.975 50.6405 195.529 50.3853 195.232C50.1301 194.932 49.7313 194.781 49.189 194.781C48.4781 194.781 47.9563 194.995 47.6236 195.424C47.2954 195.848 47.1314 196.545 47.1314 197.516V201.446H45.9966V193.954H46.9195L47.104 194.979H47.1587C47.3729 194.615 47.6737 194.33 48.0611 194.125C48.453 193.92 48.8905 193.817 49.3736 193.817C50.5448 193.817 51.3104 194.241 51.6704 195.089H51.7251C51.9484 194.697 52.272 194.387 52.6958 194.159C53.1197 193.931 53.6027 193.817 54.1451 193.817C54.9927 193.817 55.6262 194.036 56.0454 194.474C56.4693 194.907 56.6812 195.602 56.6812 196.559V201.446H55.5464ZM62.5122 193.831C63.4966 193.831 64.26 194.168 64.8023 194.843C65.3492 195.513 65.6226 196.463 65.6226 197.693C65.6226 198.924 65.3469 199.881 64.7954 200.564C64.2486 201.243 63.4875 201.583 62.5122 201.583C62.0246 201.583 61.578 201.494 61.1724 201.316C60.7714 201.134 60.4341 200.856 60.1607 200.482H60.0787L59.8394 201.446H59.0259V190.81H60.1607V193.394C60.1607 193.972 60.1425 194.492 60.106 194.952H60.1607C60.6893 194.205 61.4732 193.831 62.5122 193.831ZM62.3482 194.781C61.5734 194.781 61.0152 195.005 60.6734 195.451C60.3316 195.893 60.1607 196.641 60.1607 197.693C60.1607 198.746 60.3361 199.5 60.687 199.956C61.038 200.407 61.6008 200.633 62.3755 200.633C63.0728 200.633 63.5923 200.38 63.9341 199.874C64.2759 199.364 64.4468 198.632 64.4468 197.68C64.4468 196.704 64.2759 195.978 63.9341 195.499C63.5923 195.021 63.0637 194.781 62.3482 194.781ZM70.7769 201.583C69.6695 201.583 68.7945 201.246 68.1519 200.571C67.5139 199.897 67.1949 198.96 67.1949 197.762C67.1949 196.554 67.4911 195.595 68.0835 194.884C68.6805 194.173 69.4803 193.817 70.4829 193.817C71.4218 193.817 72.1646 194.127 72.7115 194.747C73.2583 195.362 73.5318 196.176 73.5318 197.188V197.905H68.3706C68.3934 198.785 68.6145 199.452 69.0337 199.908C69.4576 200.364 70.0523 200.592 70.8179 200.592C71.6245 200.592 72.4221 200.423 73.2105 200.086V201.098C72.8094 201.271 72.4289 201.394 72.0689 201.467C71.7134 201.544 71.2828 201.583 70.7769 201.583ZM70.4693 194.768C69.8677 194.768 69.3869 194.964 69.0269 195.355C68.6714 195.747 68.4618 196.29 68.398 196.982H72.315C72.315 196.267 72.1555 195.72 71.8365 195.342C71.5175 194.959 71.0617 194.768 70.4693 194.768ZM78.8912 193.817C79.2238 193.817 79.5223 193.845 79.7867 193.899L79.6294 194.952C79.3195 194.884 79.0461 194.85 78.8091 194.85C78.203 194.85 77.6835 195.096 77.2505 195.588C76.8221 196.08 76.6079 196.693 76.6079 197.427V201.446H75.4732V193.954H76.4097L76.5396 195.342H76.5943C76.8723 194.854 77.2072 194.478 77.5992 194.214C77.9911 193.95 78.4218 193.817 78.8912 193.817ZM86.021 199.402C86.021 200.1 85.7613 200.637 85.2417 201.016C84.7222 201.394 83.993 201.583 83.0542 201.583C82.0607 201.583 81.286 201.426 80.73 201.111V200.059C81.09 200.241 81.4751 200.384 81.8853 200.489C82.3 200.594 82.6988 200.646 83.0816 200.646C83.674 200.646 84.1298 200.553 84.4488 200.366C84.7678 200.175 84.9273 199.885 84.9273 199.498C84.9273 199.206 84.7997 198.958 84.5445 198.753C84.2938 198.543 83.8016 198.297 83.0679 198.015C82.3706 197.755 81.8739 197.529 81.5777 197.338C81.286 197.142 81.0673 196.921 80.9214 196.675C80.7801 196.429 80.7095 196.135 80.7095 195.793C80.7095 195.182 80.9579 194.701 81.4546 194.351C81.9514 193.995 82.6327 193.817 83.4986 193.817C84.3052 193.817 85.0936 193.981 85.8638 194.31L85.4605 195.232C84.7085 194.923 84.0272 194.768 83.4165 194.768C82.8788 194.768 82.4732 194.852 82.1997 195.021C81.9263 195.189 81.7896 195.422 81.7896 195.718C81.7896 195.918 81.8397 196.089 81.94 196.23C82.0448 196.372 82.2111 196.506 82.439 196.634C82.6669 196.761 83.1044 196.946 83.7515 197.188C84.6402 197.511 85.2395 197.837 85.5494 198.165C85.8638 198.493 86.021 198.906 86.021 199.402ZM93.0005 201.446V196.6C93.0005 195.989 92.8615 195.533 92.5835 195.232C92.3055 194.932 91.8703 194.781 91.2779 194.781C90.4895 194.781 89.913 194.995 89.5484 195.424C89.1884 195.852 89.0083 196.554 89.0083 197.529V201.446H87.8736V190.81H89.0083V194.029C89.0083 194.417 88.9901 194.738 88.9537 194.993H89.022C89.2453 194.633 89.562 194.351 89.9722 194.146C90.3869 193.936 90.8586 193.831 91.3872 193.831C92.3033 193.831 92.9891 194.05 93.4449 194.487C93.9051 194.92 94.1353 195.611 94.1353 196.559V201.446H93.0005ZM97.6079 201.446H96.4732V193.954H97.6079V201.446ZM96.3775 191.924C96.3775 191.664 96.4413 191.475 96.5689 191.356C96.6965 191.233 96.856 191.172 97.0474 191.172C97.2297 191.172 97.3869 191.233 97.5191 191.356C97.6512 191.479 97.7173 191.669 97.7173 191.924C97.7173 192.179 97.6512 192.37 97.5191 192.498C97.3869 192.621 97.2297 192.683 97.0474 192.683C96.856 192.683 96.6965 192.621 96.5689 192.498C96.4413 192.37 96.3775 192.179 96.3775 191.924ZM103.501 201.583C103.013 201.583 102.566 201.494 102.161 201.316C101.76 201.134 101.422 200.856 101.149 200.482H101.067C101.122 200.92 101.149 201.335 101.149 201.727V204.81H100.014V193.954H100.937L101.094 194.979H101.149C101.441 194.569 101.78 194.273 102.168 194.091C102.555 193.909 102.999 193.817 103.501 193.817C104.494 193.817 105.26 194.157 105.797 194.836C106.34 195.515 106.611 196.467 106.611 197.693C106.611 198.924 106.335 199.881 105.784 200.564C105.237 201.243 104.476 201.583 103.501 201.583ZM103.336 194.781C102.571 194.781 102.017 194.993 101.675 195.417C101.334 195.841 101.158 196.515 101.149 197.44V197.693C101.149 198.746 101.324 199.5 101.675 199.956C102.026 200.407 102.589 200.633 103.364 200.633C104.011 200.633 104.517 200.371 104.881 199.847C105.251 199.323 105.435 198.6 105.435 197.68C105.435 196.745 105.251 196.03 104.881 195.533C104.517 195.032 104.002 194.781 103.336 194.781ZM118.745 194.364C118.745 195.376 118.398 196.155 117.706 196.702C117.017 197.244 116.031 197.516 114.746 197.516H113.57V201.446H112.408V191.452H114.999C117.496 191.452 118.745 192.423 118.745 194.364ZM113.57 196.518H114.616C115.646 196.518 116.391 196.351 116.851 196.019C117.311 195.686 117.542 195.153 117.542 194.419C117.542 193.758 117.325 193.266 116.892 192.942C116.459 192.619 115.785 192.457 114.869 192.457H113.57V196.518ZM127.139 197.693C127.139 198.915 126.832 199.869 126.216 200.558C125.601 201.241 124.751 201.583 123.667 201.583C122.997 201.583 122.402 201.426 121.882 201.111C121.363 200.797 120.962 200.346 120.679 199.758C120.397 199.17 120.255 198.482 120.255 197.693C120.255 196.472 120.561 195.522 121.171 194.843C121.782 194.159 122.63 193.817 123.714 193.817C124.763 193.817 125.594 194.166 126.21 194.863C126.829 195.561 127.139 196.504 127.139 197.693ZM121.431 197.693C121.431 198.65 121.623 199.38 122.005 199.881C122.388 200.382 122.951 200.633 123.694 200.633C124.437 200.633 125 200.384 125.382 199.888C125.77 199.386 125.963 198.655 125.963 197.693C125.963 196.741 125.77 196.019 125.382 195.526C125 195.03 124.432 194.781 123.68 194.781C122.937 194.781 122.377 195.025 121.999 195.513C121.62 196 121.431 196.727 121.431 197.693ZM130.27 201.446H129.135V193.954H130.27V201.446ZM129.04 191.924C129.04 191.664 129.103 191.475 129.231 191.356C129.359 191.233 129.518 191.172 129.71 191.172C129.892 191.172 130.049 191.233 130.181 191.356C130.313 191.479 130.379 191.669 130.379 191.924C130.379 192.179 130.313 192.37 130.181 192.498C130.049 192.621 129.892 192.683 129.71 192.683C129.518 192.683 129.359 192.621 129.231 192.498C129.103 192.37 129.04 192.179 129.04 191.924ZM137.803 201.446V196.6C137.803 195.989 137.664 195.533 137.386 195.232C137.108 194.932 136.673 194.781 136.081 194.781C135.297 194.781 134.723 194.993 134.358 195.417C133.993 195.841 133.811 196.54 133.811 197.516V201.446H132.676V193.954H133.599L133.784 194.979H133.838C134.071 194.61 134.397 194.326 134.816 194.125C135.235 193.92 135.702 193.817 136.217 193.817C137.12 193.817 137.799 194.036 138.254 194.474C138.71 194.907 138.938 195.602 138.938 196.559V201.446H137.803ZM143.696 200.646C143.896 200.646 144.09 200.633 144.277 200.605C144.464 200.574 144.612 200.542 144.721 200.51V201.378C144.598 201.437 144.416 201.485 144.174 201.521C143.937 201.562 143.723 201.583 143.532 201.583C142.083 201.583 141.358 200.82 141.358 199.293V194.836H140.285V194.289L141.358 193.817L141.836 192.218H142.493V193.954H144.667V194.836H142.493V199.245C142.493 199.696 142.6 200.043 142.814 200.284C143.028 200.526 143.322 200.646 143.696 200.646Z" fill="#1C202B"/>
<g clip-path="url(#clip0)">
<path d="M211.568 84.0276H230.001L224.206 78.2211C223.92 77.9355 223.769 77.5548 223.769 77.1516C223.769 76.7485 223.926 76.3677 224.206 76.0821L225.107 75.1806C225.393 74.8951 225.768 74.7383 226.171 74.7383C226.574 74.7383 226.955 74.8951 227.235 75.175L237.168 85.1083C237.454 85.3939 237.61 85.7746 237.605 86.1778C237.605 86.5809 237.448 86.9617 237.168 87.2473L227.235 97.1805C226.949 97.4661 226.574 97.6173 226.171 97.6173C225.768 97.6173 225.393 97.4605 225.107 97.1805L224.206 96.279C223.92 95.9935 223.769 95.6183 223.769 95.2152C223.769 94.812 223.926 94.4537 224.206 94.1681L230.068 88.3279H211.59C210.761 88.3279 210.062 87.6168 210.062 86.7825V85.5059C210.062 84.6772 210.778 84.0164 211.613 84.0164" fill="#FF516A"/>
</g>
<g clip-path="url(#clip1)">
<path d="M486.183 82.1971H504.616L498.821 76.3905C498.535 76.105 498.384 75.7242 498.384 75.321C498.384 74.9179 498.541 74.5371 498.821 74.2516L499.723 73.3501C500.008 73.0645 500.383 72.9077 500.786 72.9077C501.19 72.9077 501.57 73.0645 501.85 73.3445L511.784 83.2777C512.069 83.5633 512.226 83.9441 512.22 84.3472C512.22 84.7504 512.064 85.1311 511.784 85.4167L501.85 95.35C501.565 95.6355 501.19 95.7867 500.786 95.7867C500.383 95.7867 500.008 95.6299 499.723 95.35L498.821 94.4485C498.535 94.1629 498.384 93.7878 498.384 93.3846C498.384 92.9814 498.541 92.6231 498.821 92.3375L504.684 86.4974H486.206C485.377 86.4974 484.677 85.7863 484.677 84.952V83.6753C484.677 82.8466 485.394 82.1859 486.228 82.1859" fill="#FF516A"/>
</g>
<path d="M339.463 181.446V170.738H340.708V181.446H339.463ZM348.963 181.446V176.253C348.963 175.599 348.814 175.111 348.516 174.789C348.218 174.466 347.752 174.305 347.117 174.305C346.277 174.305 345.662 174.532 345.271 174.986C344.881 175.44 344.685 176.19 344.685 177.235V181.446H343.47V173.419H344.458L344.656 174.518H344.715C344.964 174.122 345.313 173.817 345.762 173.602C346.211 173.382 346.712 173.272 347.264 173.272C348.23 173.272 348.958 173.507 349.446 173.976C349.934 174.439 350.179 175.184 350.179 176.209V181.446H348.963ZM355.892 181.593C354.729 181.593 353.829 181.236 353.189 180.523C352.554 179.806 352.237 178.792 352.237 177.484C352.237 176.141 352.559 175.104 353.204 174.371C353.853 173.639 354.776 173.272 355.972 173.272C356.358 173.272 356.744 173.314 357.129 173.397C357.515 173.48 357.818 173.578 358.038 173.69L357.664 174.723C357.395 174.615 357.102 174.527 356.785 174.459C356.468 174.386 356.187 174.349 355.943 174.349C354.312 174.349 353.496 175.389 353.496 177.469C353.496 178.456 353.694 179.212 354.09 179.74C354.49 180.267 355.081 180.531 355.862 180.531C356.531 180.531 357.217 180.387 357.92 180.099V181.175C357.383 181.454 356.707 181.593 355.892 181.593ZM363.494 173.272C363.851 173.272 364.17 173.302 364.454 173.36L364.285 174.488C363.953 174.415 363.66 174.378 363.406 174.378C362.757 174.378 362.2 174.642 361.736 175.169C361.277 175.697 361.048 176.354 361.048 177.14V181.446H359.832V173.419H360.835L360.975 174.906H361.033C361.331 174.383 361.69 173.98 362.11 173.697C362.53 173.414 362.991 173.272 363.494 173.272ZM369.346 181.593C368.16 181.593 367.222 181.231 366.534 180.509C365.85 179.786 365.508 178.783 365.508 177.499C365.508 176.205 365.826 175.177 366.46 174.415C367.1 173.653 367.957 173.272 369.031 173.272C370.037 173.272 370.833 173.604 371.419 174.269C372.005 174.928 372.298 175.799 372.298 176.883V177.652H366.768C366.792 178.595 367.029 179.31 367.478 179.798C367.933 180.287 368.57 180.531 369.39 180.531C370.254 180.531 371.109 180.35 371.954 179.989V181.073C371.524 181.258 371.116 181.39 370.73 181.468C370.35 181.551 369.888 181.593 369.346 181.593ZM369.017 174.291C368.372 174.291 367.857 174.5 367.471 174.92C367.09 175.34 366.866 175.921 366.797 176.664H370.994C370.994 175.897 370.823 175.311 370.481 174.906C370.14 174.496 369.651 174.291 369.017 174.291ZM379.314 181.446L379.073 180.304H379.014C378.614 180.807 378.213 181.148 377.813 181.329C377.417 181.505 376.922 181.593 376.326 181.593C375.53 181.593 374.905 181.388 374.451 180.978C374.002 180.567 373.777 179.984 373.777 179.227C373.777 177.606 375.074 176.756 377.666 176.678L379.029 176.634V176.136C379.029 175.506 378.892 175.042 378.619 174.745C378.35 174.442 377.918 174.291 377.322 174.291C376.653 174.291 375.896 174.496 375.052 174.906L374.678 173.976C375.074 173.761 375.506 173.592 375.975 173.47C376.448 173.348 376.922 173.287 377.395 173.287C378.352 173.287 379.06 173.5 379.519 173.924C379.983 174.349 380.215 175.03 380.215 175.968V181.446H379.314ZM376.568 180.589C377.325 180.589 377.918 180.382 378.348 179.967C378.782 179.552 378.999 178.971 378.999 178.224V177.499L377.784 177.55C376.817 177.584 376.119 177.735 375.689 178.004C375.264 178.268 375.052 178.68 375.052 179.242C375.052 179.681 375.184 180.016 375.447 180.245C375.716 180.475 376.089 180.589 376.568 180.589ZM387.906 179.256C387.906 180.003 387.627 180.58 387.071 180.985C386.514 181.39 385.733 181.593 384.727 181.593C383.663 181.593 382.832 181.424 382.237 181.087V179.959C382.622 180.155 383.035 180.309 383.475 180.421C383.919 180.533 384.346 180.589 384.756 180.589C385.391 180.589 385.879 180.489 386.221 180.289C386.563 180.084 386.734 179.774 386.734 179.359C386.734 179.046 386.597 178.78 386.324 178.561C386.055 178.336 385.528 178.072 384.742 177.77C383.995 177.491 383.462 177.25 383.145 177.044C382.832 176.834 382.598 176.598 382.442 176.334C382.29 176.07 382.215 175.755 382.215 175.389C382.215 174.735 382.481 174.22 383.013 173.844C383.545 173.463 384.275 173.272 385.203 173.272C386.067 173.272 386.912 173.448 387.737 173.8L387.305 174.789C386.499 174.457 385.769 174.291 385.115 174.291C384.539 174.291 384.104 174.381 383.811 174.562C383.518 174.742 383.372 174.991 383.372 175.309C383.372 175.523 383.426 175.707 383.533 175.858C383.645 176.009 383.824 176.153 384.068 176.29C384.312 176.427 384.781 176.625 385.474 176.883C386.426 177.23 387.068 177.579 387.4 177.931C387.737 178.282 387.906 178.724 387.906 179.256ZM393.282 181.593C392.095 181.593 391.158 181.231 390.469 180.509C389.786 179.786 389.444 178.783 389.444 177.499C389.444 176.205 389.761 175.177 390.396 174.415C391.036 173.653 391.892 173.272 392.967 173.272C393.973 173.272 394.768 173.604 395.354 174.269C395.94 174.928 396.233 175.799 396.233 176.883V177.652H390.704C390.728 178.595 390.965 179.31 391.414 179.798C391.868 180.287 392.505 180.531 393.326 180.531C394.19 180.531 395.044 180.35 395.889 179.989V181.073C395.459 181.258 395.052 181.39 394.666 181.468C394.285 181.551 393.824 181.593 393.282 181.593ZM392.952 174.291C392.308 174.291 391.792 174.5 391.407 174.92C391.026 175.34 390.801 175.921 390.733 176.664H394.93C394.93 175.897 394.759 175.311 394.417 174.906C394.075 174.496 393.587 174.291 392.952 174.291ZM305.464 204.446L301.831 194.954H301.773C301.841 195.706 301.875 196.6 301.875 197.635V204.446H300.726V193.738H302.601L305.992 202.571H306.05L309.471 193.738H311.331V204.446H310.086V197.547C310.086 196.756 310.12 195.896 310.188 194.969H310.13L306.468 204.446H305.464ZM317.483 204.593C316.297 204.593 315.359 204.231 314.671 203.509C313.987 202.786 313.645 201.783 313.645 200.499C313.645 199.205 313.963 198.177 314.598 197.415C315.237 196.653 316.094 196.272 317.168 196.272C318.174 196.272 318.97 196.604 319.556 197.269C320.142 197.928 320.435 198.799 320.435 199.883V200.652H314.905C314.93 201.595 315.166 202.31 315.616 202.798C316.07 203.287 316.707 203.531 317.527 203.531C318.392 203.531 319.246 203.35 320.091 202.989V204.073C319.661 204.258 319.253 204.39 318.868 204.468C318.487 204.551 318.025 204.593 317.483 204.593ZM317.154 197.291C316.509 197.291 315.994 197.5 315.608 197.92C315.227 198.34 315.003 198.921 314.934 199.664H319.131C319.131 198.897 318.96 198.311 318.619 197.906C318.277 197.496 317.788 197.291 317.154 197.291ZM332.747 204.446V199.224C332.747 198.584 332.61 198.106 332.337 197.789C332.063 197.466 331.639 197.305 331.062 197.305C330.306 197.305 329.746 197.522 329.385 197.957C329.024 198.392 328.843 199.061 328.843 199.964V204.446H327.627V199.224C327.627 198.584 327.491 198.106 327.217 197.789C326.944 197.466 326.517 197.305 325.935 197.305C325.174 197.305 324.615 197.535 324.258 197.994C323.907 198.448 323.731 199.195 323.731 200.235V204.446H322.515V196.419H323.504L323.702 197.518H323.76C323.99 197.127 324.312 196.822 324.727 196.602C325.147 196.382 325.616 196.272 326.133 196.272C327.388 196.272 328.208 196.727 328.594 197.635H328.653C328.892 197.215 329.239 196.883 329.693 196.639C330.147 196.395 330.664 196.272 331.246 196.272C332.154 196.272 332.832 196.507 333.282 196.976C333.736 197.439 333.963 198.184 333.963 199.209V204.446H332.747ZM340.21 196.287C341.265 196.287 342.083 196.648 342.664 197.371C343.25 198.089 343.543 199.107 343.543 200.425C343.543 201.744 343.247 202.769 342.657 203.501C342.071 204.229 341.255 204.593 340.21 204.593C339.688 204.593 339.209 204.498 338.775 204.307C338.345 204.112 337.984 203.814 337.691 203.414H337.603L337.347 204.446H336.475V193.05H337.691V195.818C337.691 196.438 337.671 196.995 337.632 197.488H337.691C338.257 196.688 339.097 196.287 340.21 196.287ZM340.035 197.305C339.205 197.305 338.606 197.544 338.24 198.023C337.874 198.497 337.691 199.297 337.691 200.425C337.691 201.553 337.879 202.361 338.255 202.85C338.631 203.333 339.234 203.575 340.064 203.575C340.811 203.575 341.368 203.304 341.734 202.762C342.1 202.215 342.283 201.431 342.283 200.411C342.283 199.366 342.1 198.587 341.734 198.074C341.368 197.562 340.801 197.305 340.035 197.305ZM349.065 204.593C347.879 204.593 346.941 204.231 346.253 203.509C345.569 202.786 345.227 201.783 345.227 200.499C345.227 199.205 345.545 198.177 346.18 197.415C346.819 196.653 347.676 196.272 348.75 196.272C349.756 196.272 350.552 196.604 351.138 197.269C351.724 197.928 352.017 198.799 352.017 199.883V200.652H346.487C346.512 201.595 346.748 202.31 347.198 202.798C347.652 203.287 348.289 203.531 349.109 203.531C349.974 203.531 350.828 203.35 351.673 202.989V204.073C351.243 204.258 350.835 204.39 350.45 204.468C350.069 204.551 349.607 204.593 349.065 204.593ZM348.736 197.291C348.091 197.291 347.576 197.5 347.19 197.92C346.809 198.34 346.585 198.921 346.517 199.664H350.713C350.713 198.897 350.542 198.311 350.201 197.906C349.859 197.496 349.371 197.291 348.736 197.291ZM357.759 196.272C358.116 196.272 358.435 196.302 358.719 196.36L358.55 197.488C358.218 197.415 357.925 197.378 357.671 197.378C357.022 197.378 356.465 197.642 356.001 198.169C355.542 198.697 355.313 199.354 355.313 200.14V204.446H354.097V196.419H355.101L355.24 197.906H355.298C355.596 197.383 355.955 196.98 356.375 196.697C356.795 196.414 357.256 196.272 357.759 196.272ZM365.398 202.256C365.398 203.003 365.12 203.58 364.563 203.985C364.007 204.39 363.226 204.593 362.22 204.593C361.155 204.593 360.325 204.424 359.729 204.087V202.959C360.115 203.155 360.528 203.309 360.967 203.421C361.412 203.533 361.839 203.589 362.249 203.589C362.884 203.589 363.372 203.489 363.714 203.289C364.056 203.084 364.226 202.774 364.226 202.359C364.226 202.046 364.09 201.78 363.816 201.561C363.548 201.336 363.02 201.072 362.234 200.77C361.487 200.491 360.955 200.25 360.638 200.044C360.325 199.834 360.091 199.598 359.934 199.334C359.783 199.07 359.707 198.755 359.707 198.389C359.707 197.735 359.974 197.22 360.506 196.844C361.038 196.463 361.768 196.272 362.696 196.272C363.56 196.272 364.405 196.448 365.23 196.8L364.798 197.789C363.992 197.457 363.262 197.291 362.608 197.291C362.032 197.291 361.597 197.381 361.304 197.562C361.011 197.742 360.865 197.991 360.865 198.309C360.865 198.523 360.918 198.707 361.026 198.858C361.138 199.009 361.316 199.153 361.56 199.29C361.805 199.427 362.273 199.625 362.967 199.883C363.919 200.23 364.561 200.579 364.893 200.931C365.23 201.282 365.398 201.724 365.398 202.256ZM372.876 204.446V199.253C372.876 198.599 372.727 198.111 372.43 197.789C372.132 197.466 371.665 197.305 371.031 197.305C370.186 197.305 369.568 197.535 369.178 197.994C368.792 198.453 368.599 199.205 368.599 200.25V204.446H367.383V193.05H368.599V196.5C368.599 196.915 368.58 197.259 368.54 197.532H368.614C368.853 197.146 369.192 196.844 369.632 196.624C370.076 196.399 370.581 196.287 371.148 196.287C372.129 196.287 372.864 196.521 373.352 196.99C373.846 197.454 374.092 198.194 374.092 199.209V204.446H372.876ZM377.813 204.446H376.597V196.419H377.813V204.446ZM376.495 194.244C376.495 193.965 376.563 193.763 376.7 193.636C376.836 193.504 377.007 193.438 377.212 193.438C377.408 193.438 377.576 193.504 377.718 193.636C377.859 193.768 377.93 193.97 377.93 194.244C377.93 194.517 377.859 194.722 377.718 194.859C377.576 194.991 377.408 195.057 377.212 195.057C377.007 195.057 376.836 194.991 376.7 194.859C376.563 194.722 376.495 194.517 376.495 194.244ZM384.126 204.593C383.604 204.593 383.125 204.498 382.691 204.307C382.261 204.112 381.9 203.814 381.607 203.414H381.519C381.578 203.882 381.607 204.327 381.607 204.747V208.05H380.391V196.419H381.38L381.548 197.518H381.607C381.919 197.078 382.283 196.761 382.698 196.565C383.113 196.37 383.589 196.272 384.126 196.272C385.191 196.272 386.011 196.636 386.587 197.364C387.168 198.091 387.459 199.112 387.459 200.425C387.459 201.744 387.163 202.769 386.573 203.501C385.987 204.229 385.171 204.593 384.126 204.593ZM383.951 197.305C383.13 197.305 382.537 197.532 382.171 197.986C381.805 198.44 381.617 199.163 381.607 200.154V200.425C381.607 201.553 381.795 202.361 382.171 202.85C382.547 203.333 383.15 203.575 383.98 203.575C384.673 203.575 385.215 203.294 385.606 202.732C386.001 202.171 386.199 201.397 386.199 200.411C386.199 199.41 386.001 198.643 385.606 198.111C385.215 197.574 384.663 197.305 383.951 197.305ZM399.712 201.597C399.712 202.54 399.371 203.274 398.687 203.802C398.003 204.329 397.076 204.593 395.904 204.593C394.634 204.593 393.658 204.429 392.974 204.102V202.901C393.413 203.086 393.892 203.233 394.41 203.34C394.927 203.448 395.44 203.501 395.948 203.501C396.778 203.501 397.403 203.345 397.823 203.033C398.243 202.715 398.453 202.276 398.453 201.714C398.453 201.343 398.377 201.041 398.226 200.806C398.079 200.567 397.83 200.347 397.478 200.147C397.132 199.947 396.602 199.72 395.889 199.466C394.893 199.109 394.18 198.687 393.75 198.199C393.326 197.71 393.113 197.073 393.113 196.287C393.113 195.462 393.423 194.805 394.043 194.317C394.663 193.829 395.484 193.584 396.504 193.584C397.569 193.584 398.548 193.78 399.441 194.17L399.053 195.254C398.169 194.883 397.31 194.698 396.475 194.698C395.816 194.698 395.301 194.839 394.93 195.123C394.559 195.406 394.373 195.799 394.373 196.302C394.373 196.673 394.441 196.978 394.578 197.217C394.715 197.452 394.944 197.669 395.267 197.869C395.594 198.064 396.092 198.282 396.761 198.521C397.884 198.921 398.655 199.351 399.075 199.81C399.5 200.269 399.712 200.865 399.712 201.597ZM404.312 203.589C404.527 203.589 404.734 203.575 404.934 203.545C405.135 203.511 405.293 203.477 405.411 203.443V204.373C405.279 204.437 405.083 204.488 404.825 204.527C404.571 204.571 404.341 204.593 404.136 204.593C402.583 204.593 401.807 203.775 401.807 202.139V197.364H400.657V196.778L401.807 196.272L402.32 194.559H403.023V196.419H405.352V197.364H403.023V202.088C403.023 202.571 403.138 202.942 403.367 203.201C403.597 203.46 403.912 203.589 404.312 203.589ZM411.958 204.446L411.717 203.304H411.658C411.258 203.807 410.857 204.148 410.457 204.329C410.061 204.505 409.566 204.593 408.97 204.593C408.174 204.593 407.549 204.388 407.095 203.978C406.646 203.567 406.421 202.984 406.421 202.227C406.421 200.606 407.718 199.756 410.31 199.678L411.673 199.634V199.136C411.673 198.506 411.536 198.042 411.263 197.745C410.994 197.442 410.562 197.291 409.966 197.291C409.297 197.291 408.54 197.496 407.696 197.906L407.322 196.976C407.718 196.761 408.15 196.592 408.619 196.47C409.092 196.348 409.566 196.287 410.039 196.287C410.996 196.287 411.705 196.5 412.163 196.924C412.627 197.349 412.859 198.03 412.859 198.968V204.446H411.958ZM409.212 203.589C409.969 203.589 410.562 203.382 410.992 202.967C411.426 202.552 411.643 201.971 411.643 201.224V200.499L410.428 200.55C409.461 200.584 408.763 200.735 408.333 201.004C407.908 201.268 407.696 201.68 407.696 202.242C407.696 202.681 407.828 203.016 408.091 203.245C408.36 203.475 408.733 203.589 409.212 203.589ZM417.964 203.589C418.179 203.589 418.387 203.575 418.587 203.545C418.787 203.511 418.946 203.477 419.063 203.443V204.373C418.931 204.437 418.736 204.488 418.477 204.527C418.223 204.571 417.994 204.593 417.788 204.593C416.236 204.593 415.459 203.775 415.459 202.139V197.364H414.309V196.778L415.459 196.272L415.972 194.559H416.675V196.419H419.004V197.364H416.675V202.088C416.675 202.571 416.79 202.942 417.019 203.201C417.249 203.46 417.564 203.589 417.964 203.589ZM421.817 196.419V201.626C421.817 202.281 421.966 202.769 422.264 203.091C422.561 203.414 423.028 203.575 423.663 203.575C424.502 203.575 425.115 203.345 425.501 202.886C425.892 202.427 426.087 201.678 426.087 200.638V196.419H427.303V204.446H426.299L426.123 203.37H426.058C425.809 203.765 425.462 204.068 425.017 204.278C424.578 204.488 424.075 204.593 423.509 204.593C422.532 204.593 421.8 204.361 421.311 203.897C420.828 203.433 420.586 202.691 420.586 201.67V196.419H421.817ZM435.066 202.256C435.066 203.003 434.788 203.58 434.231 203.985C433.675 204.39 432.893 204.593 431.888 204.593C430.823 204.593 429.993 204.424 429.397 204.087V202.959C429.783 203.155 430.196 203.309 430.635 203.421C431.079 203.533 431.507 203.589 431.917 203.589C432.552 203.589 433.04 203.489 433.382 203.289C433.724 203.084 433.894 202.774 433.894 202.359C433.894 202.046 433.758 201.78 433.484 201.561C433.216 201.336 432.688 201.072 431.902 200.77C431.155 200.491 430.623 200.25 430.306 200.044C429.993 199.834 429.759 199.598 429.602 199.334C429.451 199.07 429.375 198.755 429.375 198.389C429.375 197.735 429.642 197.22 430.174 196.844C430.706 196.463 431.436 196.272 432.364 196.272C433.228 196.272 434.073 196.448 434.898 196.8L434.466 197.789C433.66 197.457 432.93 197.291 432.276 197.291C431.7 197.291 431.265 197.381 430.972 197.562C430.679 197.742 430.533 197.991 430.533 198.309C430.533 198.523 430.586 198.707 430.694 198.858C430.806 199.009 430.984 199.153 431.228 199.29C431.473 199.427 431.941 199.625 432.635 199.883C433.587 200.23 434.229 200.579 434.561 200.931C434.898 201.282 435.066 201.724 435.066 202.256Z" fill="#1C202B"/>
<g filter="url(#filter2_d)">
<g filter="url(#filter3_d)">
<path d="M367.508 144.308C405.424 144.308 436.162 113.57 436.162 75.6538C436.162 37.7374 405.424 7 367.508 7C329.591 7 298.854 37.7374 298.854 75.6538C298.854 113.57 329.591 144.308 367.508 144.308Z" fill="#EFEEEE"/>
<path d="M434.662 75.6538C434.662 112.742 404.596 142.808 367.508 142.808C330.42 142.808 300.354 112.742 300.354 75.6538C300.354 38.5658 330.42 8.49999 367.508 8.49999C404.596 8.49999 434.662 38.5658 434.662 75.6538Z" stroke="#278AFD" stroke-width="3"/>
</g>
<path d="M318.43 76V64.8H321.086L324.03 69.536L326.974 64.8H329.63V76H327.182V68.688L324.03 73.472H323.966L320.846 68.736V76H318.43ZM336.129 76.192C334.828 76.192 333.756 75.7813 332.913 74.96C332.07 74.128 331.649 73.0507 331.649 71.728C331.649 70.48 332.049 69.424 332.849 68.56C333.649 67.696 334.662 67.264 335.889 67.264C337.244 67.264 338.278 67.712 338.993 68.608C339.708 69.504 340.065 70.608 340.065 71.92C340.065 72.048 340.054 72.2613 340.033 72.56H334.065C334.182 73.104 334.422 73.52 334.785 73.808C335.148 74.096 335.606 74.24 336.161 74.24C336.918 74.24 337.612 73.9467 338.241 73.36L339.633 74.592C338.769 75.6587 337.601 76.192 336.129 76.192ZM334.033 71.04H337.697C337.622 70.4853 337.425 70.0427 337.105 69.712C336.796 69.3813 336.39 69.216 335.889 69.216C335.398 69.216 334.988 69.3813 334.657 69.712C334.337 70.032 334.129 70.4747 334.033 71.04ZM341.877 76V67.424H344.309V68.64C345.024 67.7227 345.867 67.264 346.837 67.264C347.979 67.264 348.784 67.7173 349.253 68.624C350.032 67.7173 350.971 67.264 352.069 67.264C352.987 67.264 353.696 67.536 354.197 68.08C354.709 68.6133 354.965 69.392 354.965 70.416V76H352.533V71.216C352.533 70.0533 352.059 69.472 351.109 69.472C350.651 69.472 350.288 69.6213 350.021 69.92C349.765 70.2187 349.637 70.6507 349.637 71.216V76H347.205V71.216C347.205 70.0533 346.731 69.472 345.781 69.472C345.323 69.472 344.96 69.6213 344.693 69.92C344.437 70.2187 344.309 70.6507 344.309 71.216V76H341.877ZM362.185 76.16C361.118 76.16 360.227 75.7333 359.513 74.88V76H357.081V64.32H359.513V68.656C360.195 67.728 361.086 67.264 362.185 67.264C363.251 67.264 364.169 67.664 364.937 68.464C365.705 69.264 366.089 70.352 366.089 71.728C366.089 73.0933 365.705 74.176 364.937 74.976C364.179 75.7653 363.262 76.16 362.185 76.16ZM360.073 73.44C360.478 73.8773 360.974 74.096 361.561 74.096C362.147 74.096 362.643 73.8773 363.049 73.44C363.454 72.992 363.657 72.4107 363.657 71.696C363.657 71.0027 363.454 70.4373 363.049 70C362.643 69.552 362.147 69.328 361.561 69.328C360.974 69.328 360.478 69.552 360.073 70C359.678 70.4373 359.481 71.0133 359.481 71.728C359.481 72.4213 359.678 72.992 360.073 73.44ZM371.941 76.192C370.64 76.192 369.568 75.7813 368.725 74.96C367.883 74.128 367.461 73.0507 367.461 71.728C367.461 70.48 367.861 69.424 368.661 68.56C369.461 67.696 370.475 67.264 371.701 67.264C373.056 67.264 374.091 67.712 374.805 68.608C375.52 69.504 375.877 70.608 375.877 71.92C375.877 72.048 375.867 72.2613 375.845 72.56H369.877C369.995 73.104 370.235 73.52 370.597 73.808C370.96 74.096 371.419 74.24 371.973 74.24C372.731 74.24 373.424 73.9467 374.053 73.36L375.445 74.592C374.581 75.6587 373.413 76.192 371.941 76.192ZM369.845 71.04H373.509C373.435 70.4853 373.237 70.0427 372.917 69.712C372.608 69.3813 372.203 69.216 371.701 69.216C371.211 69.216 370.8 69.3813 370.469 69.712C370.149 70.032 369.941 70.4747 369.845 71.04ZM377.69 76V67.424H380.122V69.152C380.677 67.84 381.589 67.2107 382.858 67.264V69.808H382.73C381.898 69.808 381.253 70.064 380.794 70.576C380.346 71.0773 380.122 71.8293 380.122 72.832V76H377.69ZM387.385 76.16C386.031 76.16 384.804 75.728 383.705 74.864L384.745 73.264C385.684 73.9467 386.585 74.288 387.449 74.288C388.132 74.288 388.473 74.064 388.473 73.616C388.473 73.5627 388.463 73.5093 388.441 73.456C388.431 73.4027 388.404 73.3547 388.361 73.312C388.319 73.2693 388.271 73.232 388.217 73.2C388.175 73.1573 388.111 73.12 388.025 73.088C387.951 73.0453 387.881 73.0133 387.817 72.992C387.764 72.96 387.684 72.928 387.577 72.896C387.471 72.8533 387.38 72.8213 387.305 72.8C387.231 72.7787 387.129 72.752 387.001 72.72C386.873 72.6773 386.772 72.6453 386.697 72.624C386.335 72.5173 386.025 72.4107 385.769 72.304C385.524 72.1867 385.263 72.032 384.985 71.84C384.708 71.6373 384.495 71.3867 384.345 71.088C384.207 70.7787 384.137 70.4213 384.137 70.016C384.137 69.1733 384.436 68.512 385.033 68.032C385.631 67.5413 386.377 67.296 387.273 67.296C388.425 67.296 389.492 67.6267 390.473 68.288L389.545 69.968C388.639 69.4347 387.865 69.168 387.225 69.168C386.628 69.168 386.329 69.376 386.329 69.792C386.329 70.08 386.82 70.3893 387.801 70.72C387.919 70.7627 388.009 70.7947 388.073 70.816C388.361 70.912 388.607 71.0027 388.809 71.088C389.012 71.1733 389.241 71.2907 389.497 71.44C389.753 71.5893 389.956 71.7493 390.105 71.92C390.265 72.08 390.399 72.288 390.505 72.544C390.612 72.8 390.665 73.0827 390.665 73.392C390.665 74.3093 390.361 75.0027 389.753 75.472C389.156 75.9307 388.367 76.16 387.385 76.16ZM392.409 76V64.32H394.841V68.64C395.555 67.7227 396.393 67.264 397.353 67.264C398.27 67.264 398.985 67.5467 399.497 68.112C400.009 68.6773 400.265 69.456 400.265 70.448V76H397.833V71.216C397.833 70.6507 397.705 70.2187 397.449 69.92C397.193 69.6213 396.83 69.472 396.361 69.472C395.891 69.472 395.518 69.6213 395.241 69.92C394.974 70.2187 394.841 70.6507 394.841 71.216V76H392.409ZM402.425 66.48V64.32H404.985V66.48H402.425ZM402.489 76V67.424H404.921V76H402.489ZM407.206 78.56V67.424H409.638V68.656C410.32 67.728 411.211 67.264 412.31 67.264C413.376 67.264 414.294 67.664 415.062 68.464C415.83 69.264 416.214 70.352 416.214 71.728C416.214 73.0933 415.83 74.176 415.062 74.976C414.304 75.7653 413.387 76.16 412.31 76.16C411.243 76.16 410.352 75.7333 409.638 74.88V78.56H407.206ZM410.198 73.44C410.603 73.8773 411.099 74.096 411.686 74.096C412.272 74.096 412.768 73.8773 413.174 73.44C413.579 72.992 413.782 72.4107 413.782 71.696C413.782 71.0027 413.579 70.4373 413.174 70C412.768 69.552 412.272 69.328 411.686 69.328C411.099 69.328 410.603 69.552 410.198 70C409.803 70.4373 409.606 71.0133 409.606 71.728C409.606 72.4213 409.803 72.992 410.198 73.44ZM346.891 95V83.8H349.355V92.76H354.939V95H346.891ZM360.449 95.192C359.148 95.192 358.076 94.7813 357.233 93.96C356.391 93.128 355.969 92.0507 355.969 90.728C355.969 89.48 356.369 88.424 357.169 87.56C357.969 86.696 358.983 86.264 360.209 86.264C361.564 86.264 362.599 86.712 363.313 87.608C364.028 88.504 364.385 89.608 364.385 90.92C364.385 91.048 364.375 91.2613 364.353 91.56H358.385C358.503 92.104 358.743 92.52 359.105 92.808C359.468 93.096 359.927 93.24 360.481 93.24C361.239 93.24 361.932 92.9467 362.561 92.36L363.953 93.592C363.089 94.6587 361.921 95.192 360.449 95.192ZM358.353 90.04H362.017C361.943 89.4853 361.745 89.0427 361.425 88.712C361.116 88.3813 360.711 88.216 360.209 88.216C359.719 88.216 359.308 88.3813 358.977 88.712C358.657 89.032 358.449 89.4747 358.353 90.04ZM368.399 95.064L365.023 86.424H367.599L369.519 92.168L371.455 86.424H373.983L370.607 95.064H368.399ZM378.965 95.192C377.664 95.192 376.592 94.7813 375.749 93.96C374.906 93.128 374.485 92.0507 374.485 90.728C374.485 89.48 374.885 88.424 375.685 87.56C376.485 86.696 377.498 86.264 378.725 86.264C380.08 86.264 381.114 86.712 381.829 87.608C382.544 88.504 382.901 89.608 382.901 90.92C382.901 91.048 382.89 91.2613 382.869 91.56H376.901C377.018 92.104 377.258 92.52 377.621 92.808C377.984 93.096 378.442 93.24 378.997 93.24C379.754 93.24 380.448 92.9467 381.077 92.36L382.469 93.592C381.605 94.6587 380.437 95.192 378.965 95.192ZM376.869 90.04H380.533C380.458 89.4853 380.261 89.0427 379.941 88.712C379.632 88.3813 379.226 88.216 378.725 88.216C378.234 88.216 377.824 88.3813 377.493 88.712C377.173 89.032 376.965 89.4747 376.869 90.04ZM384.825 95V83.32H387.257V95H384.825Z" fill="#1C202B"/>
</g>
<g filter="url(#filter4_d)">
<g filter="url(#filter5_d)">
<path d="M627.477 144.308C665.393 144.308 696.131 113.57 696.131 75.6538C696.131 37.7374 665.393 7 627.477 7C589.56 7 558.823 37.7374 558.823 75.6538C558.823 113.57 589.56 144.308 627.477 144.308Z" fill="#FF516A"/>
<path d="M694.631 75.6538C694.631 112.742 664.565 142.808 627.477 142.808C590.389 142.808 560.323 112.742 560.323 75.6538C560.323 38.5658 590.389 8.49999 627.477 8.49999C664.565 8.49999 694.631 38.5658 694.631 75.6538Z" stroke="white" stroke-width="3"/>
</g>
<path d="M594.425 73V61.8H596.889V73H594.425ZM599.432 73V64.424H601.864V65.64C602.578 64.7227 603.416 64.264 604.376 64.264C605.293 64.264 606.008 64.5467 606.52 65.112C607.032 65.6773 607.288 66.456 607.288 67.448V73H604.856V68.216C604.856 67.6507 604.728 67.2187 604.472 66.92C604.216 66.6213 603.853 66.472 603.384 66.472C602.914 66.472 602.541 66.6213 602.264 66.92C601.997 67.2187 601.864 67.6507 601.864 68.216V73H599.432ZM613.448 73.192C612.168 73.192 611.102 72.76 610.248 71.896C609.406 71.032 608.984 69.976 608.984 68.728C608.984 67.4907 609.411 66.44 610.264 65.576C611.118 64.7013 612.19 64.264 613.48 64.264C614.856 64.264 615.992 64.7653 616.888 65.768L615.464 67.208C614.867 66.6427 614.2 66.36 613.464 66.36C612.867 66.36 612.371 66.5893 611.976 67.048C611.582 67.5067 611.384 68.0667 611.384 68.728C611.384 69.4 611.582 69.9653 611.976 70.424C612.382 70.872 612.91 71.096 613.56 71.096C614.232 71.096 614.888 70.792 615.528 70.184L616.952 71.624C616.483 72.136 615.982 72.5253 615.448 72.792C614.915 73.0587 614.248 73.192 613.448 73.192ZM618.541 73V64.424H620.973V66.152C621.528 64.84 622.44 64.2107 623.709 64.264V66.808H623.581C622.749 66.808 622.104 67.064 621.645 67.576C621.197 68.0773 620.973 68.8293 620.973 69.832V73H618.541ZM629.058 73.192C627.757 73.192 626.685 72.7813 625.842 71.96C624.999 71.128 624.578 70.0507 624.578 68.728C624.578 67.48 624.978 66.424 625.778 65.56C626.578 64.696 627.591 64.264 628.818 64.264C630.173 64.264 631.207 64.712 631.922 65.608C632.637 66.504 632.994 67.608 632.994 68.92C632.994 69.048 632.983 69.2613 632.962 69.56H626.994C627.111 70.104 627.351 70.52 627.714 70.808C628.077 71.096 628.535 71.24 629.09 71.24C629.847 71.24 630.541 70.9467 631.17 70.36L632.562 71.592C631.698 72.6587 630.53 73.192 629.058 73.192ZM626.962 68.04H630.626C630.551 67.4853 630.354 67.0427 630.034 66.712C629.725 66.3813 629.319 66.216 628.818 66.216C628.327 66.216 627.917 66.3813 627.586 66.712C627.266 67.032 627.058 67.4747 626.962 68.04ZM637.239 73.16C636.396 73.16 635.692 72.9253 635.127 72.456C634.572 71.9867 634.295 71.336 634.295 70.504C634.295 69.5973 634.604 68.9147 635.223 68.456C635.852 67.9973 636.695 67.768 637.751 67.768C638.465 67.768 639.164 67.8853 639.847 68.12V67.976C639.847 66.9307 639.233 66.408 638.007 66.408C637.271 66.408 636.481 66.5627 635.639 66.872L635.031 65.016C636.076 64.5573 637.185 64.328 638.359 64.328C639.649 64.328 640.615 64.648 641.255 65.288C641.873 65.9067 642.183 66.8187 642.183 68.024V73H639.831V72.072C639.18 72.7973 638.316 73.16 637.239 73.16ZM637.975 71.48C638.54 71.48 638.999 71.3413 639.351 71.064C639.703 70.776 639.879 70.4133 639.879 69.976V69.544C639.42 69.3307 638.903 69.224 638.327 69.224C637.793 69.224 637.377 69.3307 637.079 69.544C636.791 69.7467 636.647 70.0453 636.647 70.44C636.647 70.76 636.769 71.016 637.015 71.208C637.26 71.3893 637.58 71.48 637.975 71.48ZM647.283 73.16C645.929 73.16 644.702 72.728 643.603 71.864L644.643 70.264C645.582 70.9467 646.483 71.288 647.347 71.288C648.03 71.288 648.371 71.064 648.371 70.616C648.371 70.5627 648.361 70.5093 648.339 70.456C648.329 70.4027 648.302 70.3547 648.259 70.312C648.217 70.2693 648.169 70.232 648.115 70.2C648.073 70.1573 648.009 70.12 647.923 70.088C647.849 70.0453 647.779 70.0133 647.715 69.992C647.662 69.96 647.582 69.928 647.475 69.896C647.369 69.8533 647.278 69.8213 647.203 69.8C647.129 69.7787 647.027 69.752 646.899 69.72C646.771 69.6773 646.67 69.6453 646.595 69.624C646.233 69.5173 645.923 69.4107 645.667 69.304C645.422 69.1867 645.161 69.032 644.883 68.84C644.606 68.6373 644.393 68.3867 644.243 68.088C644.105 67.7787 644.035 67.4213 644.035 67.016C644.035 66.1733 644.334 65.512 644.931 65.032C645.529 64.5413 646.275 64.296 647.171 64.296C648.323 64.296 649.39 64.6267 650.371 65.288L649.443 66.968C648.537 66.4347 647.763 66.168 647.123 66.168C646.526 66.168 646.227 66.376 646.227 66.792C646.227 67.08 646.718 67.3893 647.699 67.72C647.817 67.7627 647.907 67.7947 647.971 67.816C648.259 67.912 648.505 68.0027 648.707 68.088C648.91 68.1733 649.139 68.2907 649.395 68.44C649.651 68.5893 649.854 68.7493 650.003 68.92C650.163 69.08 650.297 69.288 650.403 69.544C650.51 69.8 650.563 70.0827 650.563 70.392C650.563 71.3093 650.259 72.0027 649.651 72.472C649.054 72.9307 648.265 73.16 647.283 73.16ZM656.371 73.192C655.069 73.192 653.997 72.7813 653.155 71.96C652.312 71.128 651.891 70.0507 651.891 68.728C651.891 67.48 652.291 66.424 653.091 65.56C653.891 64.696 654.904 64.264 656.131 64.264C657.485 64.264 658.52 64.712 659.235 65.608C659.949 66.504 660.307 67.608 660.307 68.92C660.307 69.048 660.296 69.2613 660.275 69.56H654.307C654.424 70.104 654.664 70.52 655.027 70.808C655.389 71.096 655.848 71.24 656.403 71.24C657.16 71.24 657.853 70.9467 658.483 70.36L659.875 71.592C659.011 72.6587 657.843 73.192 656.371 73.192ZM654.275 68.04H657.939C657.864 67.4853 657.667 67.0427 657.347 66.712C657.037 66.3813 656.632 66.216 656.131 66.216C655.64 66.216 655.229 66.3813 654.899 66.712C654.579 67.032 654.371 67.4747 654.275 68.04ZM587.844 92V80.8H596.292V82.992H590.292V85.264H595.572V87.456H590.292V89.808H596.372V92H587.844ZM600.739 92.16C599.896 92.16 599.192 91.9253 598.627 91.456C598.072 90.9867 597.795 90.336 597.795 89.504C597.795 88.5973 598.104 87.9147 598.723 87.456C599.352 86.9973 600.195 86.768 601.251 86.768C601.965 86.768 602.664 86.8853 603.347 87.12V86.976C603.347 85.9307 602.733 85.408 601.507 85.408C600.771 85.408 599.981 85.5627 599.139 85.872L598.531 84.016C599.576 83.5573 600.685 83.328 601.859 83.328C603.149 83.328 604.115 83.648 604.755 84.288C605.373 84.9067 605.683 85.8187 605.683 87.024V92H603.331V91.072C602.68 91.7973 601.816 92.16 600.739 92.16ZM601.475 90.48C602.04 90.48 602.499 90.3413 602.851 90.064C603.203 89.776 603.379 89.4133 603.379 88.976V88.544C602.92 88.3307 602.403 88.224 601.827 88.224C601.293 88.224 600.877 88.3307 600.579 88.544C600.291 88.7467 600.147 89.0453 600.147 89.44C600.147 89.76 600.269 90.016 600.515 90.208C600.76 90.3893 601.08 90.48 601.475 90.48ZM607.775 92V83.424H610.207V85.152C610.762 83.84 611.674 83.2107 612.943 83.264V85.808H612.815C611.983 85.808 611.338 86.064 610.879 86.576C610.431 87.0773 610.207 87.8293 610.207 88.832V92H607.775ZM614.463 92V83.424H616.895V84.64C617.609 83.7227 618.447 83.264 619.407 83.264C620.324 83.264 621.039 83.5467 621.551 84.112C622.063 84.6773 622.319 85.456 622.319 86.448V92H619.887V87.216C619.887 86.6507 619.759 86.2187 619.503 85.92C619.247 85.6213 618.884 85.472 618.415 85.472C617.945 85.472 617.572 85.6213 617.295 85.92C617.028 86.2187 616.895 86.6507 616.895 87.216V92H614.463ZM624.48 82.48V80.32H627.04V82.48H624.48ZM624.544 92V83.424H626.976V92H624.544ZM629.26 92V83.424H631.692V84.64C632.406 83.7227 633.244 83.264 634.204 83.264C635.121 83.264 635.836 83.5467 636.348 84.112C636.86 84.6773 637.116 85.456 637.116 86.448V92H634.684V87.216C634.684 86.6507 634.556 86.2187 634.3 85.92C634.044 85.6213 633.681 85.472 633.212 85.472C632.742 85.472 632.369 85.6213 632.092 85.92C631.825 86.2187 631.692 86.6507 631.692 87.216V92H629.26ZM643.068 94.592C641.671 94.592 640.407 94.2933 639.276 93.696L640.108 91.872C641.036 92.3947 642.002 92.656 643.004 92.656C644.636 92.656 645.452 91.8773 645.452 90.32V89.904C645.068 90.3733 644.658 90.7253 644.22 90.96C643.794 91.184 643.271 91.296 642.652 91.296C641.596 91.296 640.695 90.9333 639.948 90.208C639.212 89.4827 638.844 88.5013 638.844 87.264C638.844 86.0373 639.218 85.0667 639.964 84.352C640.711 83.6267 641.607 83.264 642.652 83.264C643.719 83.264 644.642 83.6907 645.42 84.544V83.424H647.852V90.064C647.852 91.5893 647.49 92.7147 646.764 93.44C645.996 94.208 644.764 94.592 643.068 94.592ZM641.868 88.736C642.263 89.0987 642.759 89.28 643.356 89.28C643.954 89.28 644.45 89.0933 644.844 88.72C645.25 88.3467 645.452 87.8613 645.452 87.264C645.452 86.688 645.25 86.2133 644.844 85.84C644.45 85.4667 643.954 85.28 643.356 85.28C642.759 85.28 642.263 85.4667 641.868 85.84C641.474 86.2133 641.276 86.6987 641.276 87.296C641.276 87.8827 641.474 88.3627 641.868 88.736ZM659.126 85.568C658.614 86.1227 657.958 86.4 657.158 86.4C656.358 86.4 655.707 86.128 655.206 85.584C654.705 85.0293 654.454 84.3467 654.454 83.536C654.454 82.7253 654.71 82.048 655.222 81.504C655.734 80.9493 656.39 80.672 657.19 80.672C657.99 80.672 658.641 80.9493 659.142 81.504C659.643 82.048 659.894 82.7253 659.894 83.536C659.894 84.336 659.638 85.0133 659.126 85.568ZM655.574 92L663.75 80.8H665.654L657.478 92H655.574ZM666.006 91.296C665.494 91.8507 664.838 92.128 664.038 92.128C663.238 92.128 662.587 91.856 662.086 91.312C661.585 90.7573 661.334 90.0747 661.334 89.264C661.334 88.4533 661.59 87.776 662.102 87.232C662.614 86.6773 663.27 86.4 664.07 86.4C664.87 86.4 665.521 86.6773 666.022 87.232C666.523 87.776 666.774 88.4533 666.774 89.264C666.774 90.064 666.518 90.7413 666.006 91.296ZM657.19 84.944C657.51 84.944 657.761 84.8107 657.942 84.544C658.123 84.2667 658.214 83.9307 658.214 83.536C658.214 83.152 658.113 82.8213 657.91 82.544C657.718 82.2667 657.467 82.128 657.158 82.128C656.838 82.128 656.587 82.2613 656.406 82.528C656.225 82.7947 656.134 83.1307 656.134 83.536C656.134 83.92 656.23 84.2507 656.422 84.528C656.625 84.8053 656.881 84.944 657.19 84.944ZM664.07 90.672C664.39 90.672 664.641 90.5387 664.822 90.272C665.003 89.9947 665.094 89.6587 665.094 89.264C665.094 88.88 664.993 88.5493 664.79 88.272C664.598 87.9947 664.347 87.856 664.038 87.856C663.718 87.856 663.467 87.9893 663.286 88.256C663.105 88.5227 663.014 88.8587 663.014 89.264C663.014 89.648 663.11 89.9787 663.302 90.256C663.505 90.5333 663.761 90.672 664.07 90.672Z" fill="#1C202B"/>
</g>
<path d="M541.206 180.446V170.452H542.368V180.446H541.206ZM550.072 180.446V175.6C550.072 174.989 549.933 174.533 549.655 174.232C549.377 173.932 548.942 173.781 548.349 173.781C547.565 173.781 546.991 173.993 546.627 174.417C546.262 174.841 546.08 175.54 546.08 176.516V180.446H544.945V172.954H545.868L546.052 173.979H546.107C546.339 173.61 546.665 173.326 547.085 173.125C547.504 172.92 547.971 172.817 548.486 172.817C549.388 172.817 550.067 173.036 550.523 173.474C550.979 173.907 551.207 174.602 551.207 175.559V180.446H550.072ZM556.539 180.583C555.454 180.583 554.613 180.25 554.016 179.585C553.424 178.915 553.128 177.969 553.128 176.748C553.128 175.495 553.428 174.526 554.03 173.843C554.636 173.159 555.497 172.817 556.614 172.817C556.974 172.817 557.334 172.856 557.694 172.934C558.054 173.011 558.336 173.102 558.542 173.207L558.193 174.171C557.942 174.071 557.669 173.989 557.373 173.925C557.076 173.856 556.814 173.822 556.586 173.822C555.064 173.822 554.303 174.793 554.303 176.734C554.303 177.655 554.488 178.361 554.857 178.854C555.231 179.346 555.782 179.592 556.511 179.592C557.136 179.592 557.776 179.457 558.432 179.188V180.193C557.931 180.453 557.3 180.583 556.539 180.583ZM563.634 172.817C563.967 172.817 564.266 172.845 564.53 172.899L564.373 173.952C564.063 173.884 563.789 173.85 563.552 173.85C562.946 173.85 562.427 174.096 561.994 174.588C561.565 175.08 561.351 175.693 561.351 176.427V180.446H560.216V172.954H561.153L561.283 174.342H561.337C561.615 173.854 561.95 173.478 562.342 173.214C562.734 172.95 563.165 172.817 563.634 172.817ZM569.096 180.583C567.989 180.583 567.114 180.246 566.471 179.571C565.833 178.897 565.514 177.96 565.514 176.762C565.514 175.554 565.81 174.595 566.403 173.884C567 173.173 567.8 172.817 568.802 172.817C569.741 172.817 570.484 173.127 571.031 173.747C571.578 174.362 571.851 175.176 571.851 176.188V176.905H566.69C566.713 177.785 566.934 178.452 567.353 178.908C567.777 179.364 568.372 179.592 569.137 179.592C569.944 179.592 570.741 179.423 571.53 179.086V180.098C571.129 180.271 570.748 180.394 570.388 180.467C570.033 180.544 569.602 180.583 569.096 180.583ZM568.789 173.768C568.187 173.768 567.706 173.964 567.346 174.355C566.991 174.747 566.781 175.29 566.717 175.982H570.634C570.634 175.267 570.475 174.72 570.156 174.342C569.837 173.959 569.381 173.768 568.789 173.768ZM578.4 180.446L578.174 179.38H578.12C577.746 179.849 577.372 180.168 576.999 180.337C576.629 180.501 576.167 180.583 575.611 180.583C574.868 180.583 574.285 180.392 573.861 180.009C573.442 179.626 573.232 179.081 573.232 178.375C573.232 176.862 574.442 176.069 576.862 175.996L578.133 175.955V175.49C578.133 174.902 578.006 174.469 577.751 174.191C577.5 173.909 577.097 173.768 576.541 173.768C575.916 173.768 575.21 173.959 574.421 174.342L574.073 173.474C574.442 173.273 574.845 173.116 575.283 173.002C575.725 172.888 576.167 172.831 576.609 172.831C577.502 172.831 578.163 173.029 578.591 173.426C579.024 173.822 579.241 174.458 579.241 175.333V180.446H578.4ZM575.836 179.646C576.543 179.646 577.097 179.453 577.498 179.065C577.903 178.678 578.106 178.136 578.106 177.438V176.762L576.971 176.81C576.069 176.841 575.417 176.983 575.016 177.233C574.62 177.479 574.421 177.865 574.421 178.389C574.421 178.799 574.545 179.111 574.791 179.325C575.041 179.539 575.39 179.646 575.836 179.646ZM586.419 178.402C586.419 179.1 586.159 179.637 585.639 180.016C585.12 180.394 584.391 180.583 583.452 180.583C582.458 180.583 581.683 180.426 581.128 180.111V179.059C581.488 179.241 581.873 179.384 582.283 179.489C582.697 179.594 583.096 179.646 583.479 179.646C584.072 179.646 584.527 179.553 584.846 179.366C585.165 179.175 585.325 178.885 585.325 178.498C585.325 178.206 585.197 177.958 584.942 177.753C584.691 177.543 584.199 177.297 583.465 177.015C582.768 176.755 582.271 176.529 581.975 176.338C581.683 176.142 581.465 175.921 581.319 175.675C581.178 175.429 581.107 175.135 581.107 174.793C581.107 174.182 581.355 173.701 581.852 173.351C582.349 172.995 583.03 172.817 583.896 172.817C584.703 172.817 585.491 172.981 586.261 173.31L585.858 174.232C585.106 173.923 584.425 173.768 583.814 173.768C583.276 173.768 582.871 173.852 582.597 174.021C582.324 174.189 582.187 174.422 582.187 174.718C582.187 174.918 582.237 175.089 582.337 175.23C582.442 175.372 582.609 175.506 582.836 175.634C583.064 175.761 583.502 175.946 584.149 176.188C585.038 176.511 585.637 176.837 585.947 177.165C586.261 177.493 586.419 177.906 586.419 178.402ZM591.436 180.583C590.329 180.583 589.454 180.246 588.811 179.571C588.173 178.897 587.854 177.96 587.854 176.762C587.854 175.554 588.15 174.595 588.743 173.884C589.34 173.173 590.14 172.817 591.142 172.817C592.081 172.817 592.824 173.127 593.371 173.747C593.918 174.362 594.191 175.176 594.191 176.188V176.905H589.03C589.053 177.785 589.274 178.452 589.693 178.908C590.117 179.364 590.711 179.592 591.477 179.592C592.284 179.592 593.081 179.423 593.87 179.086V180.098C593.469 180.271 593.088 180.394 592.728 180.467C592.373 180.544 591.942 180.583 591.436 180.583ZM591.128 173.768C590.527 173.768 590.046 173.964 589.686 174.355C589.331 174.747 589.121 175.29 589.057 175.982H592.974C592.974 175.267 592.815 174.72 592.496 174.342C592.177 173.959 591.721 173.768 591.128 173.768ZM602.483 175.449L605.149 170.452H606.407L603.071 176.57V180.446H601.895V176.625L598.566 170.452H599.837L602.483 175.449ZM614.084 176.693C614.084 177.915 613.776 178.869 613.161 179.558C612.545 180.241 611.696 180.583 610.611 180.583C609.941 180.583 609.346 180.426 608.827 180.111C608.307 179.797 607.906 179.346 607.624 178.758C607.341 178.17 607.2 177.482 607.2 176.693C607.2 175.472 607.505 174.522 608.116 173.843C608.726 173.159 609.574 172.817 610.659 172.817C611.707 172.817 612.539 173.166 613.154 173.863C613.774 174.561 614.084 175.504 614.084 176.693ZM608.376 176.693C608.376 177.65 608.567 178.38 608.95 178.881C609.333 179.382 609.895 179.633 610.638 179.633C611.381 179.633 611.944 179.384 612.327 178.888C612.714 178.386 612.908 177.655 612.908 176.693C612.908 175.741 612.714 175.019 612.327 174.526C611.944 174.03 611.377 173.781 610.625 173.781C609.882 173.781 609.321 174.025 608.943 174.513C608.565 175 608.376 175.727 608.376 176.693ZM617.146 172.954V177.814C617.146 178.425 617.285 178.881 617.563 179.182C617.841 179.482 618.276 179.633 618.869 179.633C619.653 179.633 620.225 179.419 620.585 178.99C620.949 178.562 621.131 177.862 621.131 176.892V172.954H622.266V180.446H621.33L621.166 179.441H621.104C620.872 179.811 620.548 180.093 620.133 180.289C619.723 180.485 619.254 180.583 618.725 180.583C617.814 180.583 617.13 180.367 616.674 179.934C616.223 179.501 615.998 178.808 615.998 177.855V172.954H617.146ZM628.097 172.817C628.43 172.817 628.728 172.845 628.993 172.899L628.836 173.952C628.526 173.884 628.252 173.85 628.015 173.85C627.409 173.85 626.89 174.096 626.457 174.588C626.028 175.08 625.814 175.693 625.814 176.427V180.446H624.679V172.954H625.616L625.746 174.342H625.8C626.078 173.854 626.413 173.478 626.805 173.214C627.197 172.95 627.628 172.817 628.097 172.817ZM639.773 180.446H634.202V170.452H639.773V171.484H635.364V174.704H639.506V175.729H635.364V179.407H639.773V180.446ZM646.431 180.446L646.206 179.38H646.151C645.777 179.849 645.404 180.168 645.03 180.337C644.661 180.501 644.198 180.583 643.642 180.583C642.899 180.583 642.316 180.392 641.892 180.009C641.473 179.626 641.263 179.081 641.263 178.375C641.263 176.862 642.473 176.069 644.893 175.996L646.165 175.955V175.49C646.165 174.902 646.037 174.469 645.782 174.191C645.531 173.909 645.128 173.768 644.572 173.768C643.947 173.768 643.241 173.959 642.453 174.342L642.104 173.474C642.473 173.273 642.877 173.116 643.314 173.002C643.756 172.888 644.198 172.831 644.64 172.831C645.533 172.831 646.194 173.029 646.623 173.426C647.056 173.822 647.272 174.458 647.272 175.333V180.446H646.431ZM643.868 179.646C644.574 179.646 645.128 179.453 645.529 179.065C645.934 178.678 646.137 178.136 646.137 177.438V176.762L645.003 176.81C644.1 176.841 643.448 176.983 643.047 177.233C642.651 177.479 642.453 177.865 642.453 178.389C642.453 178.799 642.576 179.111 642.822 179.325C643.072 179.539 643.421 179.646 643.868 179.646ZM653.035 172.817C653.367 172.817 653.666 172.845 653.93 172.899L653.773 173.952C653.463 173.884 653.19 173.85 652.953 173.85C652.347 173.85 651.827 174.096 651.394 174.588C650.966 175.08 650.752 175.693 650.752 176.427V180.446H649.617V172.954H650.553L650.683 174.342H650.738C651.016 173.854 651.351 173.478 651.743 173.214C652.135 172.95 652.565 172.817 653.035 172.817ZM660.459 180.446V175.6C660.459 174.989 660.32 174.533 660.042 174.232C659.764 173.932 659.328 173.781 658.736 173.781C657.952 173.781 657.378 173.993 657.013 174.417C656.649 174.841 656.466 175.54 656.466 176.516V180.446H655.332V172.954H656.254L656.439 173.979H656.494C656.726 173.61 657.052 173.326 657.471 173.125C657.891 172.92 658.358 172.817 658.873 172.817C659.775 172.817 660.454 173.036 660.91 173.474C661.365 173.907 661.593 174.602 661.593 175.559V180.446H660.459ZM665.066 180.446H663.931V172.954H665.066V180.446ZM663.836 170.924C663.836 170.664 663.899 170.475 664.027 170.356C664.155 170.233 664.314 170.172 664.505 170.172C664.688 170.172 664.845 170.233 664.977 170.356C665.109 170.479 665.175 170.669 665.175 170.924C665.175 171.179 665.109 171.37 664.977 171.498C664.845 171.621 664.688 171.683 664.505 171.683C664.314 171.683 664.155 171.621 664.027 171.498C663.899 171.37 663.836 171.179 663.836 170.924ZM672.599 180.446V175.6C672.599 174.989 672.46 174.533 672.182 174.232C671.904 173.932 671.469 173.781 670.877 173.781C670.093 173.781 669.518 173.993 669.154 174.417C668.789 174.841 668.607 175.54 668.607 176.516V180.446H667.472V172.954H668.395L668.58 173.979H668.634C668.867 173.61 669.193 173.326 669.612 173.125C670.031 172.92 670.498 172.817 671.013 172.817C671.916 172.817 672.595 173.036 673.05 173.474C673.506 173.907 673.734 174.602 673.734 175.559V180.446H672.599ZM682.204 172.954V173.672L680.816 173.836C680.944 173.995 681.058 174.205 681.158 174.465C681.258 174.72 681.308 175.009 681.308 175.333C681.308 176.067 681.058 176.652 680.556 177.09C680.055 177.527 679.367 177.746 678.492 177.746C678.268 177.746 678.059 177.728 677.863 177.691C677.38 177.947 677.138 178.268 677.138 178.655C677.138 178.86 677.223 179.013 677.391 179.113C677.56 179.209 677.849 179.257 678.259 179.257H679.586C680.397 179.257 681.019 179.428 681.452 179.77C681.889 180.111 682.108 180.608 682.108 181.26C682.108 182.089 681.775 182.72 681.11 183.153C680.445 183.591 679.474 183.81 678.198 183.81C677.218 183.81 676.461 183.627 675.928 183.263C675.4 182.898 675.135 182.383 675.135 181.718C675.135 181.262 675.281 180.868 675.573 180.535C675.864 180.202 676.275 179.977 676.803 179.858C676.612 179.772 676.45 179.637 676.318 179.455C676.19 179.273 676.127 179.061 676.127 178.819C676.127 178.546 676.199 178.307 676.345 178.102C676.491 177.896 676.721 177.698 677.036 177.507C676.648 177.347 676.332 177.076 676.086 176.693C675.844 176.311 675.723 175.873 675.723 175.381C675.723 174.561 675.969 173.929 676.461 173.487C676.954 173.041 677.651 172.817 678.553 172.817C678.945 172.817 679.298 172.863 679.613 172.954H682.204ZM676.229 181.704C676.229 182.11 676.4 182.417 676.742 182.627C677.084 182.837 677.573 182.941 678.211 182.941C679.164 182.941 679.868 182.798 680.324 182.511C680.784 182.228 681.014 181.843 681.014 181.355C681.014 180.95 680.889 180.667 680.638 180.508C680.388 180.353 679.916 180.275 679.223 180.275H677.863C677.348 180.275 676.947 180.398 676.66 180.645C676.373 180.891 676.229 181.244 676.229 181.704ZM676.844 175.354C676.844 175.878 676.992 176.274 677.289 176.543C677.585 176.812 677.997 176.946 678.526 176.946C679.633 176.946 680.187 176.409 680.187 175.333C680.187 174.207 679.627 173.645 678.505 173.645C677.972 173.645 677.562 173.788 677.275 174.075C676.988 174.362 676.844 174.788 676.844 175.354ZM688.711 180.446H687.549V170.452H693.121V171.484H688.711V175.142H692.854V176.174H688.711V180.446ZM698.029 172.817C698.362 172.817 698.66 172.845 698.924 172.899L698.767 173.952C698.457 173.884 698.184 173.85 697.947 173.85C697.341 173.85 696.821 174.096 696.388 174.588C695.96 175.08 695.746 175.693 695.746 176.427V180.446H694.611V172.954H695.547L695.677 174.342H695.732C696.01 173.854 696.345 173.478 696.737 173.214C697.129 172.95 697.559 172.817 698.029 172.817ZM706.793 176.693C706.793 177.915 706.485 178.869 705.87 179.558C705.254 180.241 704.405 180.583 703.32 180.583C702.65 180.583 702.055 180.426 701.536 180.111C701.016 179.797 700.615 179.346 700.333 178.758C700.05 178.17 699.909 177.482 699.909 176.693C699.909 175.472 700.214 174.522 700.825 173.843C701.435 173.159 702.283 172.817 703.368 172.817C704.416 172.817 705.248 173.166 705.863 173.863C706.483 174.561 706.793 175.504 706.793 176.693ZM701.085 176.693C701.085 177.65 701.276 178.38 701.659 178.881C702.042 179.382 702.604 179.633 703.347 179.633C704.09 179.633 704.653 179.384 705.036 178.888C705.423 178.386 705.617 177.655 705.617 176.693C705.617 175.741 705.423 175.019 705.036 174.526C704.653 174.03 704.086 173.781 703.334 173.781C702.591 173.781 702.03 174.025 701.652 174.513C701.274 175 701.085 175.727 701.085 176.693ZM718.338 180.446V175.572C718.338 174.975 718.211 174.529 717.956 174.232C717.7 173.932 717.304 173.781 716.766 173.781C716.06 173.781 715.538 173.984 715.201 174.39C714.864 174.795 714.695 175.42 714.695 176.263V180.446H713.56V175.572C713.56 174.975 713.433 174.529 713.177 174.232C712.922 173.932 712.523 173.781 711.981 173.781C711.27 173.781 710.748 173.995 710.416 174.424C710.087 174.848 709.923 175.545 709.923 176.516V180.446H708.789V172.954H709.711L709.896 173.979H709.951C710.165 173.615 710.466 173.33 710.853 173.125C711.245 172.92 711.683 172.817 712.166 172.817C713.337 172.817 714.102 173.241 714.462 174.089H714.517C714.74 173.697 715.064 173.387 715.488 173.159C715.912 172.931 716.395 172.817 716.937 172.817C717.785 172.817 718.418 173.036 718.837 173.474C719.261 173.907 719.473 174.602 719.473 175.559V180.446H718.338ZM579.35 201.446H573.779V191.452H579.35V192.484H574.941V195.704H579.084V196.729H574.941V200.407H579.35V201.446ZM583.042 201.446L580.198 193.954H581.415L583.028 198.397C583.392 199.437 583.607 200.111 583.67 200.421H583.725C583.775 200.179 583.933 199.68 584.197 198.924C584.466 198.163 585.065 196.506 585.995 193.954H587.211L584.368 201.446H583.042ZM591.58 201.583C590.472 201.583 589.597 201.246 588.955 200.571C588.317 199.897 587.998 198.96 587.998 197.762C587.998 196.554 588.294 195.595 588.886 194.884C589.483 194.173 590.283 193.817 591.286 193.817C592.225 193.817 592.967 194.127 593.514 194.747C594.061 195.362 594.335 196.176 594.335 197.188V197.905H589.173C589.196 198.785 589.417 199.452 589.836 199.908C590.26 200.364 590.855 200.592 591.621 200.592C592.427 200.592 593.225 200.423 594.013 200.086V201.098C593.612 201.271 593.232 201.394 592.872 201.467C592.516 201.544 592.086 201.583 591.58 201.583ZM591.272 194.768C590.67 194.768 590.19 194.964 589.83 195.355C589.474 195.747 589.265 196.29 589.201 196.982H593.118C593.118 196.267 592.958 195.72 592.639 195.342C592.32 194.959 591.864 194.768 591.272 194.768ZM599.694 193.817C600.027 193.817 600.325 193.845 600.589 193.899L600.432 194.952C600.122 194.884 599.849 194.85 599.612 194.85C599.006 194.85 598.486 195.096 598.053 195.588C597.625 196.08 597.411 196.693 597.411 197.427V201.446H596.276V193.954H597.212L597.342 195.342H597.397C597.675 194.854 598.01 194.478 598.402 194.214C598.794 193.95 599.225 193.817 599.694 193.817ZM600.801 193.954H602.018L603.659 198.227C604.019 199.202 604.242 199.906 604.329 200.339H604.383C604.443 200.106 604.566 199.71 604.753 199.149C604.944 198.584 605.564 196.853 606.612 193.954H607.829L604.609 202.485C604.29 203.328 603.916 203.925 603.488 204.276C603.064 204.632 602.542 204.81 601.922 204.81C601.576 204.81 601.234 204.771 600.897 204.693V203.784C601.148 203.839 601.428 203.866 601.738 203.866C602.517 203.866 603.073 203.429 603.406 202.554L603.823 201.487L600.801 193.954ZM615.929 201.446H614.767V192.484H611.602V191.452H619.094V192.484H615.929V201.446ZM623.852 193.817C624.185 193.817 624.483 193.845 624.748 193.899L624.59 194.952C624.281 194.884 624.007 194.85 623.77 194.85C623.164 194.85 622.644 195.096 622.211 195.588C621.783 196.08 621.569 196.693 621.569 197.427V201.446H620.434V193.954H621.371L621.501 195.342H621.555C621.833 194.854 622.168 194.478 622.56 194.214C622.952 193.95 623.383 193.817 623.852 193.817ZM630.756 201.446L630.531 200.38H630.476C630.102 200.849 629.729 201.168 629.355 201.337C628.986 201.501 628.523 201.583 627.967 201.583C627.225 201.583 626.641 201.392 626.217 201.009C625.798 200.626 625.588 200.081 625.588 199.375C625.588 197.862 626.798 197.069 629.218 196.996L630.49 196.955V196.49C630.49 195.902 630.362 195.469 630.107 195.191C629.856 194.909 629.453 194.768 628.897 194.768C628.273 194.768 627.566 194.959 626.778 195.342L626.429 194.474C626.798 194.273 627.202 194.116 627.639 194.002C628.081 193.888 628.523 193.831 628.965 193.831C629.859 193.831 630.519 194.029 630.948 194.426C631.381 194.822 631.597 195.458 631.597 196.333V201.446H630.756ZM628.193 200.646C628.899 200.646 629.453 200.453 629.854 200.065C630.26 199.678 630.462 199.136 630.462 198.438V197.762L629.328 197.81C628.425 197.841 627.774 197.983 627.373 198.233C626.976 198.479 626.778 198.865 626.778 199.389C626.778 199.799 626.901 200.111 627.147 200.325C627.398 200.539 627.746 200.646 628.193 200.646ZM639.069 201.446V196.6C639.069 195.989 638.93 195.533 638.652 195.232C638.374 194.932 637.939 194.781 637.346 194.781C636.562 194.781 635.988 194.993 635.624 195.417C635.259 195.841 635.077 196.54 635.077 197.516V201.446H633.942V193.954H634.865L635.049 194.979H635.104C635.336 194.61 635.662 194.326 636.082 194.125C636.501 193.92 636.968 193.817 637.483 193.817C638.385 193.817 639.064 194.036 639.52 194.474C639.976 194.907 640.204 195.602 640.204 196.559V201.446H639.069ZM647.375 199.402C647.375 200.1 647.115 200.637 646.595 201.016C646.076 201.394 645.347 201.583 644.408 201.583C643.414 201.583 642.64 201.426 642.084 201.111V200.059C642.444 200.241 642.829 200.384 643.239 200.489C643.654 200.594 644.052 200.646 644.435 200.646C645.028 200.646 645.483 200.553 645.802 200.366C646.121 200.175 646.281 199.885 646.281 199.498C646.281 199.206 646.153 198.958 645.898 198.753C645.647 198.543 645.155 198.297 644.421 198.015C643.724 197.755 643.227 197.529 642.931 197.338C642.64 197.142 642.421 196.921 642.275 196.675C642.134 196.429 642.063 196.135 642.063 195.793C642.063 195.182 642.311 194.701 642.808 194.351C643.305 193.995 643.986 193.817 644.852 193.817C645.659 193.817 646.447 193.981 647.217 194.31L646.814 195.232C646.062 194.923 645.381 194.768 644.77 194.768C644.232 194.768 643.827 194.852 643.553 195.021C643.28 195.189 643.143 195.422 643.143 195.718C643.143 195.918 643.193 196.089 643.294 196.23C643.398 196.372 643.565 196.506 643.793 196.634C644.02 196.761 644.458 196.946 645.105 197.188C645.994 197.511 646.593 197.837 646.903 198.165C647.217 198.493 647.375 198.906 647.375 199.402ZM653.835 201.446L653.609 200.38H653.554C653.181 200.849 652.807 201.168 652.433 201.337C652.064 201.501 651.601 201.583 651.045 201.583C650.303 201.583 649.719 201.392 649.295 201.009C648.876 200.626 648.667 200.081 648.667 199.375C648.667 197.862 649.877 197.069 652.296 196.996L653.568 196.955V196.49C653.568 195.902 653.44 195.469 653.185 195.191C652.934 194.909 652.531 194.768 651.975 194.768C651.351 194.768 650.644 194.959 649.856 195.342L649.507 194.474C649.877 194.273 650.28 194.116 650.717 194.002C651.159 193.888 651.601 193.831 652.044 193.831C652.937 193.831 653.598 194.029 654.026 194.426C654.459 194.822 654.675 195.458 654.675 196.333V201.446H653.835ZM651.271 200.646C651.977 200.646 652.531 200.453 652.932 200.065C653.338 199.678 653.541 199.136 653.541 198.438V197.762L652.406 197.81C651.503 197.841 650.852 197.983 650.451 198.233C650.054 198.479 649.856 198.865 649.856 199.389C649.856 199.799 649.979 200.111 650.225 200.325C650.476 200.539 650.824 200.646 651.271 200.646ZM660.014 201.583C658.93 201.583 658.089 201.25 657.492 200.585C656.899 199.915 656.603 198.969 656.603 197.748C656.603 196.495 656.904 195.526 657.505 194.843C658.112 194.159 658.973 193.817 660.089 193.817C660.449 193.817 660.809 193.856 661.17 193.934C661.53 194.011 661.812 194.102 662.017 194.207L661.669 195.171C661.418 195.071 661.144 194.989 660.848 194.925C660.552 194.856 660.29 194.822 660.062 194.822C658.54 194.822 657.779 195.793 657.779 197.734C657.779 198.655 657.963 199.361 658.333 199.854C658.706 200.346 659.258 200.592 659.987 200.592C660.611 200.592 661.252 200.457 661.908 200.188V201.193C661.406 201.453 660.775 201.583 660.014 201.583ZM666.112 200.646C666.312 200.646 666.506 200.633 666.693 200.605C666.88 200.574 667.028 200.542 667.137 200.51V201.378C667.014 201.437 666.832 201.485 666.59 201.521C666.353 201.562 666.139 201.583 665.948 201.583C664.499 201.583 663.774 200.82 663.774 199.293V194.836H662.701V194.289L663.774 193.817L664.253 192.218H664.909V193.954H667.083V194.836H664.909V199.245C664.909 199.696 665.016 200.043 665.23 200.284C665.444 200.526 665.738 200.646 666.112 200.646ZM669.776 201.446H668.641V193.954H669.776V201.446ZM668.545 191.924C668.545 191.664 668.609 191.475 668.737 191.356C668.864 191.233 669.024 191.172 669.215 191.172C669.398 191.172 669.555 191.233 669.687 191.356C669.819 191.479 669.885 191.669 669.885 191.924C669.885 192.179 669.819 192.37 669.687 192.498C669.555 192.621 669.398 192.683 669.215 192.683C669.024 192.683 668.864 192.621 668.737 192.498C668.609 192.37 668.545 192.179 668.545 191.924ZM678.649 197.693C678.649 198.915 678.341 199.869 677.726 200.558C677.111 201.241 676.261 201.583 675.176 201.583C674.506 201.583 673.912 201.426 673.392 201.111C672.873 200.797 672.472 200.346 672.189 199.758C671.906 199.17 671.765 198.482 671.765 197.693C671.765 196.472 672.071 195.522 672.681 194.843C673.292 194.159 674.14 193.817 675.224 193.817C676.272 193.817 677.104 194.166 677.719 194.863C678.339 195.561 678.649 196.504 678.649 197.693ZM672.941 197.693C672.941 198.65 673.132 199.38 673.515 199.881C673.898 200.382 674.461 200.633 675.204 200.633C675.947 200.633 676.509 200.384 676.892 199.888C677.28 199.386 677.473 198.655 677.473 197.693C677.473 196.741 677.28 196.019 676.892 195.526C676.509 195.03 675.942 194.781 675.19 194.781C674.447 194.781 673.887 195.025 673.508 195.513C673.13 196 672.941 196.727 672.941 197.693ZM685.772 201.446V196.6C685.772 195.989 685.633 195.533 685.355 195.232C685.077 194.932 684.642 194.781 684.049 194.781C683.266 194.781 682.691 194.993 682.327 195.417C681.962 195.841 681.78 196.54 681.78 197.516V201.446H680.645V193.954H681.568L681.753 194.979H681.807C682.04 194.61 682.365 194.326 682.785 194.125C683.204 193.92 683.671 193.817 684.186 193.817C685.088 193.817 685.767 194.036 686.223 194.474C686.679 194.907 686.907 195.602 686.907 196.559V201.446H685.772Z" fill="#1C202B"/>
<defs>
<filter id="filter0_d" x="16" y="7" width="147.308" height="147.308" filterUnits="userSpaceOnUse" color-interpolation-filters="sRGB">
<feFlood flood-opacity="0" result="BackgroundImageFix"/>
<feColorMatrix in="SourceAlpha" type="matrix" values="0 0 0 0 0 0 0 0 0 0 0 0 0 0 0 0 0 0 127 0"/>
<feOffset dx="5" dy="5"/>
<feGaussianBlur stdDeviation="2.5"/>
<feColorMatrix type="matrix" values="0 0 0 0 0 0 0 0 0 0 0 0 0 0 0 0 0 0 0.25 0"/>
<feBlend mode="normal" in2="BackgroundImageFix" result="effect1_dropShadow"/>
<feBlend mode="normal" in="SourceGraphic" in2="effect1_dropShadow" result="shape"/>
</filter>
<filter id="filter1_d" x="0" y="0" width="169.308" height="169.308" filterUnits="userSpaceOnUse" color-interpolation-filters="sRGB">
<feFlood flood-opacity="0" result="BackgroundImageFix"/>
<feColorMatrix in="SourceAlpha" type="matrix" values="0 0 0 0 0 0 0 0 0 0 0 0 0 0 0 0 0 0 127 0"/>
<feOffset dy="9"/>
<feGaussianBlur stdDeviation="8"/>
<feColorMatrix type="matrix" values="0 0 0 0 0.220833 0 0 0 0 0.220833 0 0 0 0 0.220833 0 0 0 0.15 0"/>
<feBlend mode="normal" in2="BackgroundImageFix" result="effect1_dropShadow"/>
<feBlend mode="normal" in="SourceGraphic" in2="effect1_dropShadow" result="shape"/>
</filter>
<filter id="filter2_d" x="298.854" y="7" width="147.308" height="147.308" filterUnits="userSpaceOnUse" color-interpolation-filters="sRGB">
<feFlood flood-opacity="0" result="BackgroundImageFix"/>
<feColorMatrix in="SourceAlpha" type="matrix" values="0 0 0 0 0 0 0 0 0 0 0 0 0 0 0 0 0 0 127 0"/>
<feOffset dx="5" dy="5"/>
<feGaussianBlur stdDeviation="2.5"/>
<feColorMatrix type="matrix" values="0 0 0 0 0 0 0 0 0 0 0 0 0 0 0 0 0 0 0.25 0"/>
<feBlend mode="normal" in2="BackgroundImageFix" result="effect1_dropShadow"/>
<feBlend mode="normal" in="SourceGraphic" in2="effect1_dropShadow" result="shape"/>
</filter>
<filter id="filter3_d" x="282.854" y="0" width="169.308" height="169.308" filterUnits="userSpaceOnUse" color-interpolation-filters="sRGB">
<feFlood flood-opacity="0" result="BackgroundImageFix"/>
<feColorMatrix in="SourceAlpha" type="matrix" values="0 0 0 0 0 0 0 0 0 0 0 0 0 0 0 0 0 0 127 0"/>
<feOffset dy="9"/>
<feGaussianBlur stdDeviation="8"/>
<feColorMatrix type="matrix" values="0 0 0 0 0.220833 0 0 0 0 0.220833 0 0 0 0 0.220833 0 0 0 0.15 0"/>
<feBlend mode="normal" in2="BackgroundImageFix" result="effect1_dropShadow"/>
<feBlend mode="normal" in="SourceGraphic" in2="effect1_dropShadow" result="shape"/>
</filter>
<filter id="filter4_d" x="558.823" y="7" width="147.308" height="147.308" filterUnits="userSpaceOnUse" color-interpolation-filters="sRGB">
<feFlood flood-opacity="0" result="BackgroundImageFix"/>
<feColorMatrix in="SourceAlpha" type="matrix" values="0 0 0 0 0 0 0 0 0 0 0 0 0 0 0 0 0 0 127 0"/>
<feOffset dx="5" dy="5"/>
<feGaussianBlur stdDeviation="2.5"/>
<feColorMatrix type="matrix" values="0 0 0 0 0 0 0 0 0 0 0 0 0 0 0 0 0 0 0.25 0"/>
<feBlend mode="normal" in2="BackgroundImageFix" result="effect1_dropShadow"/>
<feBlend mode="normal" in="SourceGraphic" in2="effect1_dropShadow" result="shape"/>
</filter>
<filter id="filter5_d" x="542.823" y="0" width="169.308" height="169.308" filterUnits="userSpaceOnUse" color-interpolation-filters="sRGB">
<feFlood flood-opacity="0" result="BackgroundImageFix"/>
<feColorMatrix in="SourceAlpha" type="matrix" values="0 0 0 0 0 0 0 0 0 0 0 0 0 0 0 0 0 0 127 0"/>
<feOffset dy="9"/>
<feGaussianBlur stdDeviation="8"/>
<feColorMatrix type="matrix" values="0 0 0 0 0.220833 0 0 0 0 0.220833 0 0 0 0 0.220833 0 0 0 0.15 0"/>
<feBlend mode="normal" in2="BackgroundImageFix" result="effect1_dropShadow"/>
<feBlend mode="normal" in="SourceGraphic" in2="effect1_dropShadow" result="shape"/>
</filter>
<clipPath id="clip0">
<rect width="27.5489" height="22.8846" fill="white" transform="translate(210.062 74.7383)"/>
</clipPath>
<clipPath id="clip1">
<rect width="27.5489" height="22.8846" fill="white" transform="translate(484.677 72.9077)"/>
</clipPath>
</defs>
</svg>
