<svg width="50" height="50" viewBox="0 0 50 50" fill="none" xmlns="http://www.w3.org/2000/svg">
<circle cx="25" cy="25" r="23" fill="#FF516A" stroke="#E5E5E5" stroke-width="4"/>
<path d="M24.9596 20.848C25.4076 20.848 25.7703 20.9707 26.0476 21.216C26.325 21.4613 26.4636 21.824 26.4636 22.304C26.4636 22.5387 26.4263 22.7573 26.3516 22.96C26.2876 23.152 26.1756 23.3547 26.0156 23.568C25.8663 23.7707 25.669 23.9893 25.4236 24.224C25.1783 24.448 24.8796 24.704 24.5276 24.992L20.7996 28.048V30H29.0876V27.872H24.2076L26.0316 26.464C26.5223 26.08 26.9543 25.728 27.3276 25.408C27.701 25.0773 28.005 24.7467 28.2396 24.416C28.485 24.0853 28.6663 23.7387 28.7836 23.376C28.9116 23.0027 28.9756 22.5813 28.9756 22.112C28.9756 21.5893 28.885 21.1147 28.7036 20.688C28.533 20.2613 28.277 19.8987 27.9356 19.6C27.605 19.2907 27.1996 19.056 26.7196 18.896C26.2503 18.7253 25.717 18.64 25.1196 18.64C24.6183 18.64 24.1703 18.6933 23.7756 18.8C23.381 18.896 23.0183 19.0453 22.6876 19.248C22.3676 19.44 22.0636 19.68 21.7756 19.968C21.4983 20.256 21.221 20.5867 20.9436 20.96L22.6716 22.352C23.0876 21.84 23.461 21.4613 23.7916 21.216C24.133 20.9707 24.5223 20.848 24.9596 20.848Z" fill="white"/>
</svg>
