<svg width="50" height="50" viewBox="0 0 50 50" fill="none" xmlns="http://www.w3.org/2000/svg">
<circle cx="25" cy="25" r="23" fill="#FF516A" stroke="#E5E5E5" stroke-width="4"/>
<path d="M25.6953 20.912L23.0233 23.6L23.4073 25.168H24.4313C25.1353 25.168 25.6739 25.2907 26.0473 25.536C26.4313 25.7813 26.6233 26.1387 26.6233 26.608C26.6233 27.0347 26.4739 27.3707 26.1753 27.616C25.8873 27.8613 25.5086 27.984 25.0393 27.984C24.4633 27.984 23.9619 27.872 23.5353 27.648C23.1193 27.4133 22.7193 27.0773 22.3353 26.64L20.6393 28.256C21.1193 28.832 21.7113 29.3013 22.4153 29.664C23.1299 30.016 23.9939 30.192 25.0073 30.192C25.6259 30.192 26.1859 30.1013 26.6873 29.92C27.1886 29.7387 27.6099 29.4827 27.9513 29.152C28.3033 28.8213 28.5699 28.432 28.7513 27.984C28.9433 27.536 29.0393 27.0453 29.0393 26.512C29.0393 25.9893 28.9539 25.5467 28.7833 25.184C28.6126 24.8107 28.3886 24.5013 28.1112 24.256C27.8339 24 27.5139 23.8027 27.1513 23.664C26.7886 23.5253 26.4153 23.424 26.0313 23.36L28.8633 20.656V18.8H21.2953V20.912H25.6953Z" fill="white"/>
</svg>
