<svg width="50" height="50" viewBox="0 0 50 50" fill="none" xmlns="http://www.w3.org/2000/svg">
<circle cx="25" cy="25" r="23" fill="#FF516A" stroke="#E5E5E5" stroke-width="4"/>
<path d="M24.8409 30.192C23.2196 30.192 21.8223 29.632 20.6489 28.512L22.1369 26.736C23.0329 27.5467 23.9236 27.952 24.8089 27.952C25.3956 27.952 25.8543 27.8133 26.1849 27.536C26.5156 27.2587 26.6809 26.8693 26.6809 26.368C26.6809 25.8987 26.4996 25.5307 26.1369 25.264C25.7743 24.9867 25.2943 24.848 24.6969 24.848C24.0996 24.848 23.4756 24.9867 22.8249 25.264L21.4009 24.32L21.7209 18.8H28.6009V20.96H23.8329L23.7049 22.896C24.2169 22.768 24.7076 22.704 25.1769 22.704C26.3396 22.704 27.2836 23.0027 28.0089 23.6C28.7343 24.1973 29.0969 25.104 29.0969 26.32C29.0969 27.504 28.7076 28.448 27.9289 29.152C27.1609 29.8453 26.1316 30.192 24.8409 30.192Z" fill="white"/>
</svg>
