<svg width="50" height="50" viewBox="0 0 50 50" fill="none" xmlns="http://www.w3.org/2000/svg">
<circle cx="25" cy="25" r="23" fill="#FF516A" stroke="#E5E5E5" stroke-width="4"/>
<path d="M25.1271 30.192C23.7725 30.192 22.6951 29.792 21.8951 28.992C21.0098 28.1067 20.5671 26.6827 20.5671 24.72C20.5671 22.9067 20.9831 21.4347 21.8151 20.304C22.6471 19.1733 23.8685 18.608 25.4791 18.608C26.7805 18.608 27.9485 19.0187 28.9831 19.84L27.6871 21.744C27.2818 21.4347 26.9085 21.2107 26.5671 21.072C26.2365 20.9227 25.8471 20.848 25.3991 20.848C24.7378 20.848 24.2151 21.088 23.8311 21.568C23.4578 22.0373 23.2285 22.6613 23.1431 23.44C23.8685 22.96 24.6418 22.72 25.4631 22.72C26.6151 22.72 27.5591 23.0347 28.2951 23.664C29.0311 24.2933 29.3991 25.1787 29.3991 26.32C29.3991 27.4507 28.9938 28.3787 28.1831 29.104C27.3725 29.8293 26.3538 30.192 25.1271 30.192ZM23.6071 27.616C23.9591 27.9253 24.4338 28.08 25.0311 28.08C25.6285 28.08 26.0978 27.9253 26.4391 27.616C26.7805 27.3067 26.9511 26.9013 26.9511 26.4C26.9511 25.92 26.7751 25.5307 26.4231 25.232C26.0711 24.9227 25.5965 24.768 24.9991 24.768C24.4018 24.768 23.9325 24.9173 23.5911 25.216C23.2498 25.5147 23.0791 25.9147 23.0791 26.416C23.0791 26.896 23.2551 27.296 23.6071 27.616Z" fill="white"/>
</svg>
