<svg width="19" height="24" viewBox="0 0 19 24" fill="none" xmlns="http://www.w3.org/2000/svg">
<path d="M15.2734 12.6063C15.2547 9.76781 17.5587 8.37713 17.6711 8.31998C16.3599 6.37685 14.3369 6.11014 13.6063 6.09109C11.9017 5.90059 10.2533 7.13886 9.37291 7.13886C8.49252 7.13886 7.14382 6.11014 5.70147 6.14825C3.84702 6.18635 2.10495 7.27222 1.14963 8.96769C-0.817219 12.4349 0.643867 17.5213 2.53578 20.3026C3.47238 21.6743 4.57756 23.1983 6.01991 23.1411C7.4248 23.084 7.94929 22.2267 9.65389 22.2267C11.3398 22.2267 11.8268 23.1411 13.3066 23.103C14.8239 23.084 15.7792 21.7314 16.6783 20.3407C17.7648 18.7786 18.1956 17.2165 18.2144 17.1403C18.1956 17.1403 15.3109 16.0163 15.2734 12.6063ZM12.5011 4.24321C13.2504 3.27165 13.7749 1.97622 13.625 0.6427C12.5199 0.699851 11.1524 1.42376 10.3657 2.35723C9.67262 3.19544 9.03574 4.54802 9.20433 5.82439C10.4406 5.91964 11.7144 5.19573 12.5011 4.24321Z" fill="white"/>
</svg>
