<svg width="167" height="50" viewBox="0 0 167 50" fill="none" xmlns="http://www.w3.org/2000/svg">
<path d="M161.129 0H5C2.23858 0 0 2.23858 0 5V45C0 47.7614 2.23858 50 5 50H161.129C163.89 50 166.129 47.7614 166.129 45V5C166.129 2.23858 163.89 0 161.129 0Z" fill="black"/>
<path d="M42.9994 24.0073C42.9772 20.8534 45.7085 19.3082 45.8417 19.2447C44.2873 17.0856 41.8892 16.7893 41.0232 16.7681C39.0025 16.5565 37.0484 17.9323 36.0048 17.9323C34.9611 17.9323 33.3623 16.7893 31.6525 16.8316C29.4542 16.874 27.3891 18.0805 26.2566 19.9643C23.9251 23.8167 25.6571 29.4683 27.8998 32.5587C29.0101 34.0828 30.3202 35.7761 32.03 35.7126C33.6954 35.6491 34.3172 34.6966 36.3378 34.6966C38.3363 34.6966 38.9137 35.7126 40.6679 35.6703C42.4665 35.6491 43.599 34.1463 44.6648 32.6011C45.9527 30.8654 46.4635 29.1297 46.4857 29.045C46.4635 29.045 43.0438 27.7962 42.9994 24.0073ZM39.7131 14.7149C40.6013 13.6354 41.223 12.196 41.0454 10.7144C39.7353 10.7779 38.1143 11.5822 37.1816 12.6194C36.3601 13.5507 35.6051 15.0536 35.8049 16.4718C37.2705 16.5776 38.7804 15.7733 39.7131 14.7149Z" fill="white"/>
<path d="M67.3955 35.8062H65.0353L63.7316 31.961H59.236L57.9998 35.8062H55.707L60.1576 22.72H62.9224L67.3955 35.8062ZM63.3495 30.3465L62.1806 26.9263C62.0458 26.5864 61.821 25.7579 61.4838 24.462H61.4389C61.304 25.0143 61.0792 25.8428 60.787 26.9263L59.6406 30.3465H63.3495ZM78.8366 30.9626C78.8366 32.5771 78.3646 33.8305 77.443 34.7652C76.6113 35.5937 75.5998 36.0186 74.3636 36.0186C73.0374 36.0186 72.0933 35.5725 71.5089 34.6802V39.63H69.2836V29.4543C69.2836 28.4558 69.2611 27.4149 69.1937 26.3527H71.1493L71.2841 27.8398H71.3291C72.0708 26.7138 73.1947 26.1402 74.7007 26.1402C75.8696 26.1402 76.8586 26.5864 77.6453 27.4574C78.4545 28.3708 78.8366 29.518 78.8366 30.9626ZM76.5889 31.0476C76.5889 30.1341 76.3641 29.3693 75.937 28.7745C75.465 28.1584 74.8131 27.8398 74.0039 27.8398C73.4645 27.8398 72.97 28.0097 72.5204 28.3496C72.0708 28.6895 71.7786 29.1356 71.6438 29.7092C71.5763 29.9216 71.5538 30.1341 71.5314 30.3465V31.9186C71.5314 32.5984 71.7561 33.1932 72.2057 33.6605C72.6553 34.1279 73.2397 34.3616 73.9365 34.3616C74.7682 34.3616 75.42 34.0642 75.8921 33.4481C76.3416 32.832 76.5889 32.046 76.5889 31.0476ZM90.323 30.9626C90.323 32.5771 89.851 33.8305 88.929 34.7652C88.097 35.5937 87.086 36.0186 85.85 36.0186C84.524 36.0186 83.579 35.5725 82.995 34.6802V39.63H80.792V29.4543C80.792 28.4558 80.77 27.4149 80.702 26.3527H82.658L82.793 27.8398H82.838C83.579 26.7138 84.703 26.1402 86.209 26.1402C87.378 26.1402 88.367 26.5864 89.154 27.4574C89.941 28.3708 90.323 29.518 90.323 30.9626ZM88.075 31.0476C88.075 30.1341 87.85 29.3693 87.423 28.7745C86.951 28.1584 86.299 27.8398 85.49 27.8398C84.951 27.8398 84.456 28.0097 84.007 28.3496C83.557 28.6895 83.265 29.1356 83.13 29.7092C83.062 29.9641 83.018 30.1766 83.018 30.3465V31.9186C83.018 32.5984 83.242 33.1932 83.692 33.6605C84.141 34.1279 84.726 34.3616 85.423 34.3616C86.254 34.3616 86.906 34.0642 87.378 33.4481C87.828 32.832 88.075 32.046 88.075 31.0476ZM103.18 32.131C103.18 33.2357 102.775 34.1492 101.944 34.8502C101.045 35.615 99.786 35.9974 98.168 35.9974C96.684 35.9974 95.493 35.7212 94.571 35.1901L95.088 33.4481C96.055 34.0004 97.134 34.2554 98.302 34.2554C99.134 34.2554 99.786 34.0854 100.258 33.7243C100.73 33.3631 100.955 32.8958 100.955 32.3009C100.955 31.7698 100.752 31.3237 100.37 30.9626C99.988 30.6014 99.359 30.2615 98.46 29.9429C96.032 29.0931 94.818 27.8398 94.818 26.1827C94.818 25.0993 95.245 24.2283 96.1 23.5485C96.954 22.8687 98.1 22.5288 99.494 22.5288C100.752 22.5288 101.809 22.7412 102.641 23.1449L102.079 24.8444C101.292 24.4407 100.415 24.2496 99.426 24.2496C98.64 24.2496 98.033 24.4407 97.583 24.8019C97.223 25.1205 97.021 25.5242 97.021 25.9915C97.021 26.5014 97.223 26.9475 97.651 27.2662C98.01 27.5848 98.685 27.9035 99.674 28.2859C100.865 28.732 101.741 29.2631 102.303 29.8792C102.888 30.474 103.18 31.2175 103.18 32.131ZM110.53 27.9247H108.08V32.5134C108.08 33.6818 108.507 34.2554 109.384 34.2554C109.789 34.2554 110.103 34.2341 110.373 34.1492L110.44 35.7424C110.013 35.8911 109.429 35.9761 108.71 35.9761C107.833 35.9761 107.159 35.7212 106.664 35.2113C106.17 34.7015 105.922 33.8517 105.922 32.6621V27.9035H104.461V26.3314H105.922V24.6107L108.103 23.9946V26.3527H110.553L110.53 27.9247ZM121.544 31.0051C121.544 32.4496 121.095 33.6393 120.218 34.574C119.297 35.53 118.083 36.0186 116.554 36.0186C115.093 36.0186 113.924 35.5512 113.048 34.6378C112.171 33.7243 111.744 32.5559 111.744 31.1538C111.744 29.688 112.194 28.4983 113.093 27.5636C113.992 26.6289 115.206 26.1615 116.712 26.1615C118.173 26.1615 119.364 26.6289 120.241 27.5423C121.117 28.4346 121.544 29.5817 121.544 31.0051ZM119.252 31.0476C119.252 30.1766 119.049 29.433 118.667 28.817C118.195 28.0734 117.543 27.691 116.667 27.691C115.768 27.691 115.093 28.0734 114.621 28.817C114.217 29.433 114.037 30.1978 114.037 31.09C114.037 31.961 114.239 32.7046 114.621 33.3206C115.093 34.0642 115.768 34.4466 116.644 34.4466C117.498 34.4466 118.15 34.0642 118.645 33.2994C119.049 32.6621 119.252 31.9186 119.252 31.0476ZM128.76 28.2009C128.535 28.1584 128.288 28.1372 128.063 28.1372C127.276 28.1372 126.669 28.4133 126.265 28.9657C125.905 29.4543 125.703 30.0703 125.703 30.8351V35.7849H123.477V29.3268C123.477 28.3284 123.455 27.3511 123.41 26.3527H125.343L125.433 28.1584H125.5C125.725 27.5423 126.107 27.0325 126.602 26.6713C127.074 26.3527 127.636 26.1615 128.198 26.1615C128.4 26.1615 128.58 26.1827 128.76 26.204V28.2009ZM138.695 30.6227C138.695 30.9413 138.672 31.26 138.605 31.5787H131.952C131.974 32.5134 132.289 33.2357 132.918 33.7243C133.48 34.1704 134.199 34.3828 135.098 34.3828C136.087 34.3828 136.987 34.2341 137.796 33.9367L138.133 35.3813C137.189 35.7637 136.065 35.9549 134.784 35.9549C133.233 35.9549 132.019 35.53 131.142 34.659C130.266 33.788 129.816 32.6408 129.816 31.1963C129.816 29.7729 130.221 28.5833 131.052 27.6486C131.907 26.6289 133.075 26.1402 134.537 26.1402C135.975 26.1402 137.076 26.6501 137.796 27.6486C138.403 28.4558 138.695 29.4543 138.695 30.6227ZM136.582 30.0916C136.604 29.4755 136.447 28.9232 136.155 28.4771C135.773 27.8822 135.188 27.6061 134.379 27.6061C133.66 27.6061 133.053 27.8822 132.603 28.4558C132.244 28.9019 132.019 29.4543 131.952 30.0916H136.582Z" fill="white"/>
<path d="M58.5847 18.089C57.9778 18.089 57.4383 18.0678 56.9888 18.0041V11.6734C57.6181 11.5884 58.2475 11.5459 58.8769 11.5459C61.4169 11.5459 62.5857 12.7356 62.5857 14.6688C62.5857 16.8781 61.2146 18.089 58.5847 18.089ZM58.9668 12.3532C58.6296 12.3532 58.3374 12.3745 58.0902 12.4169V17.218C58.225 17.2393 58.4723 17.2393 58.8319 17.2393C60.4953 17.2393 61.4394 16.347 61.4394 14.6688C61.4394 13.1817 60.5852 12.3532 58.9668 12.3532ZM66.2496 18.1315C64.811 18.1315 63.8894 17.1118 63.8894 15.7522C63.8894 14.3289 64.8335 13.3092 66.3395 13.3092C67.7556 13.3092 68.6997 14.2652 68.6997 15.6885C68.6997 17.1118 67.7107 18.1315 66.2496 18.1315ZM66.2946 14.0315C65.5078 14.0315 64.9909 14.7325 64.9909 15.7097C64.9909 16.6657 65.5078 17.3667 66.2721 17.3667C67.0363 17.3667 67.5533 16.6232 67.5533 15.6885C67.5533 14.7538 67.0588 14.0315 66.2946 14.0315ZM76.8816 13.3729L75.3531 18.0041H74.3416L73.7122 15.9859C73.5549 15.4973 73.42 14.9874 73.3076 14.4776H73.2851C73.1952 14.9874 73.0604 15.4973 72.8805 15.9859L72.2062 18.0041H71.1947L69.7561 13.3729H70.88L71.442 15.5823C71.5768 16.1134 71.6892 16.602 71.7791 17.0693H71.8016C71.8915 16.6869 72.0039 16.1983 72.2062 15.5823L72.903 13.3729H73.8021L74.4765 15.5398C74.6338 16.0709 74.7687 16.5807 74.8811 17.0693H74.9035C74.971 16.602 75.0834 16.0921 75.2407 15.5398L75.8476 13.3729H76.8816ZM82.524 18.0253H81.422V15.3486C81.422 14.5201 81.085 14.1164 80.433 14.1164C79.7812 14.1164 79.3317 14.6475 79.3317 15.2424V18.0041H78.2303V14.7113C78.2303 14.3076 78.2303 13.8615 78.1853 13.3942H79.1518L79.1968 14.1164H79.2193C79.5115 13.6278 80.118 13.3092 80.77 13.3092C81.804 13.3092 82.479 14.0527 82.479 15.2636L82.524 18.0253ZM85.536 18.0253H84.434V11.2485H85.536V18.0253ZM89.514 18.1315C88.076 18.1315 87.154 17.1118 87.154 15.7522C87.154 14.3289 88.098 13.3092 89.604 13.3092C91.02 13.3092 91.964 14.2652 91.964 15.6885C91.964 17.1118 90.975 18.1315 89.514 18.1315ZM89.559 14.0315C88.772 14.0315 88.255 14.7325 88.255 15.7097C88.255 16.6657 88.772 17.3667 89.537 17.3667C90.301 17.3667 90.818 16.6232 90.818 15.6885C90.818 14.7538 90.323 14.0315 89.559 14.0315ZM96.257 18.0253L96.168 17.4942H96.145C95.808 17.9191 95.336 18.1315 94.706 18.1315C93.83 18.1315 93.2 17.5579 93.2 16.7719C93.2 15.6248 94.257 15.0299 96.078 15.0299V14.945C96.078 14.3289 95.74 14.0315 95.066 14.0315C94.572 14.0315 94.167 14.1377 93.785 14.3714L93.56 13.6916C94.01 13.4154 94.572 13.2879 95.246 13.2879C96.527 13.2879 97.179 13.9253 97.179 15.1999V16.8994C97.179 17.3667 97.201 17.7279 97.246 18.0041L96.257 18.0253ZM96.1 15.7097C94.886 15.7097 94.279 15.9859 94.279 16.6445C94.279 17.1331 94.594 17.3667 95.021 17.3667C95.583 17.3667 96.1 16.9631 96.1 16.432V15.7097ZM102.461 18.0253L102.416 17.2818H102.394C102.079 17.8341 101.562 18.1315 100.82 18.1315C99.629 18.1315 98.752 17.1543 98.752 15.7735C98.752 14.3289 99.652 13.3092 100.91 13.3092C101.562 13.3092 102.034 13.5216 102.304 13.9465H102.326V11.2485H103.428V16.7719C103.428 17.218 103.45 17.6429 103.473 18.0253H102.461ZM102.304 15.2849C102.304 14.6263 101.854 14.074 101.158 14.074C100.348 14.074 99.854 14.7538 99.854 15.7097C99.854 16.6445 100.371 17.2818 101.135 17.2818C101.832 17.2818 102.304 16.7082 102.304 16.0496V15.2849ZM110.328 18.1315C108.89 18.1315 107.968 17.1118 107.968 15.7522C107.968 14.3289 108.912 13.3092 110.418 13.3092C111.835 13.3092 112.779 14.2652 112.779 15.6885C112.756 17.1118 111.79 18.1315 110.328 18.1315ZM110.351 14.0315C109.564 14.0315 109.07 14.7325 109.07 15.7097C109.07 16.6657 109.587 17.3667 110.351 17.3667C111.115 17.3667 111.632 16.6232 111.632 15.6885C111.632 14.7538 111.138 14.0315 110.351 14.0315ZM118.623 18.0253H117.521V15.3486C117.521 14.5201 117.184 14.1164 116.532 14.1164C115.881 14.1164 115.453 14.6475 115.453 15.2424V18.0041H114.352V14.7113C114.352 14.3076 114.352 13.8615 114.307 13.3942H115.274L115.319 14.1164H115.341C115.633 13.6278 116.24 13.3092 116.892 13.3092C117.926 13.3092 118.6 14.0527 118.6 15.2636V18.0253H118.623ZM125.973 14.1589H124.782V16.4108C124.782 16.9844 124.984 17.2605 125.411 17.2605C125.613 17.2605 125.771 17.2393 125.906 17.218L125.928 18.0041C125.726 18.089 125.434 18.1103 125.074 18.1103C124.22 18.1103 123.703 17.6642 123.703 16.4957V14.1589H122.983V13.3942H123.703V12.5444L124.782 12.247V13.3942H125.973V14.1589ZM131.75 18.0253H130.671V15.3698C130.671 14.5413 130.334 14.1164 129.682 14.1164C129.12 14.1164 128.58 14.4776 128.58 15.2211V18.0253H127.502V11.2485H128.58V14.0315H128.603C128.94 13.5216 129.435 13.2667 130.086 13.2667C131.12 13.2667 131.75 14.0315 131.75 15.2424V18.0253ZM137.661 15.9434H134.38C134.402 16.8144 135.009 17.3243 135.931 17.3243C136.425 17.3243 136.852 17.2393 137.257 17.1118L137.437 17.8341C136.965 18.0253 136.425 18.1103 135.796 18.1103C134.267 18.1103 133.346 17.1968 133.346 15.7735C133.346 14.3501 134.267 13.2879 135.661 13.2879C136.92 13.2879 137.706 14.1589 137.706 15.4973C137.706 15.646 137.684 15.7947 137.661 15.9434ZM136.672 15.2211C136.672 14.4988 136.29 13.989 135.594 13.989C134.964 13.989 134.47 14.4988 134.402 15.2211H136.672Z" fill="white"/>
</svg>
