<svg width="71" height="16" viewBox="0 0 71 16" fill="none" xmlns="http://www.w3.org/2000/svg">
<path d="M10.8533 12.2255H8.86227L7.7625 8.76489H3.97015L2.92726 12.2255H0.993164L4.74758 0.447952H7.07987L10.8533 12.2255ZM7.44015 7.31181L6.45414 4.23359C6.34037 3.92768 6.15075 3.18203 5.86633 2.01574H5.8284C5.71463 2.51285 5.52501 3.2585 5.27851 4.23359L4.31146 7.31181H7.44015ZM20.5048 7.86628C20.5048 9.31935 20.1066 10.4474 19.3291 11.2886C18.6276 12.0343 17.7743 12.4167 16.7314 12.4167C15.6126 12.4167 14.8163 12.0152 14.3232 11.2122V15.667H12.446V6.5088C12.446 5.61019 12.4271 4.67334 12.3702 3.71737H14.0199L14.1336 5.05573H14.1716C14.7973 4.0424 15.7454 3.52618 17.0158 3.52618C18.0018 3.52618 18.8361 3.92768 19.4998 4.71158C20.1824 5.53371 20.5048 6.56616 20.5048 7.86628ZM18.6086 7.94275C18.6086 7.12062 18.419 6.43232 18.0587 5.89698C17.6605 5.34252 17.1106 5.05573 16.428 5.05573C15.9729 5.05573 15.5558 5.20868 15.1765 5.51459C14.7973 5.8205 14.5508 6.22201 14.437 6.73823C14.3801 6.92943 14.3612 7.12062 14.3422 7.31181V8.72665C14.3422 9.33847 14.5318 9.87381 14.9111 10.2944C15.2903 10.7151 15.7833 10.9254 16.3711 10.9254C17.0727 10.9254 17.6226 10.6577 18.0208 10.1032C18.4 9.54878 18.6086 8.84137 18.6086 7.94275ZM30.1942 7.86628C30.1942 9.31935 29.796 10.4474 29.0186 11.2886C28.317 12.0343 27.4637 12.4167 26.4208 12.4167C25.3021 12.4167 24.5057 12.0152 24.0127 11.2122V15.667H22.1544V6.5088C22.1544 5.61019 22.1355 4.67334 22.0786 3.71737H23.7283L23.842 5.05573H23.8799C24.5057 4.0424 25.4538 3.52618 26.7242 3.52618C27.7102 3.52618 28.5445 3.92768 29.2082 4.71158C29.8719 5.53371 30.1942 6.56616 30.1942 7.86628ZM28.298 7.94275C28.298 7.12062 28.1084 6.43232 27.7481 5.89698C27.3499 5.34252 26.8001 5.05573 26.1174 5.05573C25.6623 5.05573 25.2452 5.20868 24.866 5.51459C24.4867 5.8205 24.2402 6.22201 24.1264 6.73823C24.0696 6.96767 24.0316 7.15886 24.0316 7.31181V8.72665C24.0316 9.33847 24.2213 9.87381 24.6005 10.2944C24.9797 10.7151 25.4727 10.9254 26.0605 10.9254C26.7621 10.9254 27.312 10.6577 27.7102 10.1032C28.0894 9.54878 28.298 8.84137 28.298 7.94275ZM41.0403 8.91784C41.0403 9.91205 40.699 10.7342 39.9974 11.3651C39.2389 12.0534 38.1771 12.3976 36.8118 12.3976C35.5604 12.3976 34.5554 12.149 33.778 11.671L34.2141 10.1032C35.0294 10.6003 35.9396 10.8298 36.9256 10.8298C37.6272 10.8298 38.1771 10.6768 38.5753 10.3518C38.9735 10.0268 39.1631 9.60614 39.1631 9.0708C39.1631 8.59281 38.9924 8.19131 38.6701 7.86628C38.3477 7.54125 37.8168 7.23534 37.0583 6.94855C35.0105 6.18377 33.9865 5.05573 33.9865 3.56441C33.9865 2.58932 34.3468 1.80543 35.0674 1.19361C35.7879 0.581788 36.755 0.275879 37.9306 0.275879C38.9924 0.275879 39.8836 0.467072 40.5852 0.83034L40.1112 2.35989C39.4475 1.99662 38.708 1.82455 37.8737 1.82455C37.21 1.82455 36.6981 1.99662 36.3188 2.32165C36.0154 2.60844 35.8448 2.97171 35.8448 3.39234C35.8448 3.8512 36.0154 4.25271 36.3757 4.5395C36.6791 4.82629 37.248 5.11308 38.0823 5.45723C39.0872 5.85874 39.8267 6.33673 40.3008 6.89119C40.7938 7.42653 41.0403 8.09571 41.0403 8.91784ZM47.2408 5.1322H45.1739V9.26199C45.1739 10.3136 45.5342 10.8298 46.2737 10.8298C46.615 10.8298 46.8805 10.8107 47.108 10.7342L47.1649 12.1681C46.8047 12.302 46.3117 12.3785 45.7049 12.3785C44.9654 12.3785 44.3965 12.149 43.9794 11.6902C43.5622 11.2313 43.3536 10.4665 43.3536 9.39583V5.11308H42.1211V3.69825H43.3536V2.14958L45.1929 1.59512V3.71737H47.2597L47.2408 5.1322ZM56.532 7.90452C56.532 9.20463 56.1528 10.2753 55.4133 11.1166C54.6358 11.9769 53.6119 12.4167 52.3225 12.4167C51.09 12.4167 50.104 11.9961 49.3645 11.1739C48.625 10.3518 48.2647 9.30023 48.2647 8.03835C48.2647 6.71911 48.6439 5.64843 49.4024 4.80717C50.1609 3.96592 51.1848 3.54529 52.4552 3.54529C53.6878 3.54529 54.6927 3.96592 55.4322 4.78806C56.1717 5.59107 56.532 6.62352 56.532 7.90452ZM54.5979 7.94275C54.5979 7.15886 54.4273 6.48968 54.1049 5.93522C53.7067 5.26604 53.1568 4.92189 52.4173 4.92189C51.6589 4.92189 51.09 5.26604 50.6918 5.93522C50.3505 6.48968 50.1988 7.17798 50.1988 7.98099C50.1988 8.76489 50.3695 9.43407 50.6918 9.98853C51.09 10.6577 51.6589 11.0019 52.3984 11.0019C53.1189 11.0019 53.6688 10.6577 54.086 9.96941C54.4273 9.39583 54.5979 8.72665 54.5979 7.94275ZM62.6187 5.38076C62.4291 5.34252 62.2205 5.3234 62.0309 5.3234C61.3672 5.3234 60.8553 5.57195 60.514 6.06905C60.2106 6.5088 60.0399 7.06326 60.0399 7.75156V12.2064H58.1627V6.39408C58.1627 5.49547 58.1438 4.61598 58.1058 3.71737H59.7365L59.8124 5.34252H59.8693C60.0589 4.78806 60.3812 4.32919 60.7984 4.00416C61.1966 3.71737 61.6706 3.54529 62.1447 3.54529C62.3153 3.54529 62.467 3.56441 62.6187 3.58353V5.38076ZM70.9998 7.56037C70.9998 7.84716 70.9808 8.13395 70.924 8.42074H65.3113C65.3302 9.26199 65.5957 9.91205 66.1266 10.3518C66.6007 10.7533 67.2075 10.9445 67.9659 10.9445C68.8002 10.9445 69.5587 10.8107 70.2413 10.543L70.5257 11.8431C69.7294 12.1873 68.7813 12.3593 67.7005 12.3593C66.3921 12.3593 65.3682 11.9769 64.6287 11.1931C63.8892 10.4092 63.5099 9.37671 63.5099 8.07659C63.5099 6.79559 63.8512 5.72491 64.5528 4.88365C65.2734 3.96592 66.2594 3.52618 67.4919 3.52618C68.7054 3.52618 69.6346 3.98504 70.2413 4.88365C70.7533 5.61019 70.9998 6.5088 70.9998 7.56037ZM69.2174 7.08238C69.2364 6.52792 69.1036 6.03082 68.8571 5.62931C68.5348 5.09397 68.0418 4.84541 67.3592 4.84541C66.7524 4.84541 66.2404 5.09396 65.8612 5.61019C65.5578 6.0117 65.3682 6.5088 65.3113 7.08238H69.2174Z" fill="white"/>
</svg>
