<svg width="40" height="40" viewBox="0 0 40 40" fill="none" xmlns="http://www.w3.org/2000/svg">
<path d="M19.9958 0V40C31.0408 40 39.9916 31.0492 39.9916 20.0042C40.0001 8.95081 31.0408 0 19.9958 0Z" fill="#252F6B"/>
<path d="M19.9958 0C8.95081 0 0 8.95081 0 19.9958C0 31.0407 8.95081 39.9916 19.9958 39.9916C31.0407 40 31.0407 0 19.9958 0Z" fill="#273375"/>
<path d="M13.7132 30.6605L15.0642 28.9717L12.9785 29.3517L12.2608 27.3335L11.4755 29.3517L9.34754 28.9717L10.6986 30.6183L9.29688 32.2649L11.4332 31.9271L12.151 33.9031L12.9363 31.9271L15.1233 32.3156L13.7132 30.6605Z" fill="#F3F4F5"/>
<path d="M29.6559 32.1383L30.4243 31.1925L29.2421 31.4036L28.8283 30.2637L28.3892 31.4036L27.1817 31.1925L27.9501 32.1214L27.1479 33.0502L28.3639 32.8645L28.7692 33.9791L29.2168 32.8645L30.4496 33.084L29.6559 32.1383Z" fill="#F3F4F5"/>
<path d="M29.6559 11.0872L30.4243 10.1414L29.2421 10.3525L28.8283 9.2041L28.3892 10.3525L27.1817 10.1414L27.9501 11.0703L27.1479 11.9991L28.3639 11.8133L28.7692 12.928L29.2168 11.8133L30.4496 12.0329L29.6559 11.0872Z" fill="#F3F4F5"/>
<path d="M34.6041 16.5334L35.3641 15.5792L34.1903 15.7988L33.7766 14.6504L33.329 15.7988L32.13 15.5792L32.8899 16.5166L32.0962 17.4454L33.3121 17.2512L33.7175 18.3743L34.165 17.2596L35.3979 17.4792L34.6041 16.5334Z" fill="#F3F4F5"/>
<path d="M25.3747 18.9573L26.1431 18.0031L24.961 18.2226L24.5472 17.0742L24.1081 18.2226L22.9006 18.0031L23.669 18.9319L22.8752 19.8692L24.0828 19.675L24.4965 20.7981L24.9356 19.675L26.1769 19.8946L25.3747 18.9573Z" fill="#F3F4F5"/>
<path d="M4.1966 7.74316C3.88416 8.14848 3.58017 8.56225 3.30151 8.9929H5.44633L4.1966 7.74316Z" fill="#29337A"/>
<path d="M14.5239 19.9956H16.4576L14.5239 18.0703V19.9956Z" fill="#29337A"/>
<path d="M8.13994 3.89258C7.68396 4.23034 7.23642 4.59344 6.81421 4.96499L8.13994 6.29072V3.89258Z" fill="#29337A"/>
<path d="M6.21484 19.9956H8.14011V18.0703L6.21484 19.9956Z" fill="#29337A"/>
<path d="M19.9957 0C18.0958 0 16.2634 0.270213 14.5239 0.768419V6.29935L19.9957 0.827528V0Z" fill="#29337A"/>
<path d="M19.9958 18.1551V15.377H17.2261L19.9958 18.1551Z" fill="#29337A"/>
<path d="M0.827528 19.9959L5.44648 15.377H0.540426C0.194216 16.8631 0 18.4084 0 19.9959H0.827528Z" fill="#29337A"/>
<path d="M17.2178 8.99297H19.9959V6.21484L17.2178 8.99297Z" fill="#29337A"/>
<path d="M19.996 18.7376V18.1549L17.2263 15.3768H19.996V14.3804H15.6472L19.996 18.7376Z" fill="white"/>
<path d="M5.44654 8.99281H3.30173C3.09062 9.31369 2.88796 9.65145 2.6853 9.98922H6.89894L4.39947 7.48975C4.33191 7.57419 4.26436 7.65863 4.19681 7.75152L5.44654 8.99281Z" fill="white"/>
<path d="M8.14019 18.0701V19.9953H9.1366V16.6177L5.75049 19.9953H6.21492L8.14019 18.0701Z" fill="white"/>
<path d="M14.5242 0.759766C14.1865 0.852651 13.8572 0.962426 13.5278 1.0722V7.75153L19.9961 1.2833V0.827319L14.5242 6.29914V0.759766Z" fill="white"/>
<path d="M8.1065 15.3768L8.14027 15.343L9.10291 14.3804H0.802296C0.709411 14.7097 0.616525 15.039 0.540527 15.3768H5.44659L0.827629 19.9957H3.48754L8.1065 15.3768Z" fill="white"/>
<path d="M0.827637 19.9954L5.44659 15.3765L0.827637 19.9954Z" fill="white"/>
<path d="M19.9961 9.98914V8.99273H17.2179L19.9961 6.2146V3.55469L13.5701 9.98914H19.9961Z" fill="white"/>
<path d="M19.9959 6.21484L17.2178 8.99297L19.9959 6.21484Z" fill="white"/>
<path d="M8.14042 6.29906L6.81469 4.96488C6.34182 5.37865 5.89428 5.81774 5.46362 6.27373L8.14887 8.95897L8.1742 8.9843L9.13683 9.94694V3.2085C8.79907 3.42804 8.46974 3.65604 8.14042 3.89247V6.29906Z" fill="white"/>
<path d="M14.5241 18.0702L16.4578 19.9955H18.9911L13.5361 14.5405V19.9955H14.5241V18.0702Z" fill="white"/>
<path d="M8.14014 8.95898L8.16547 8.98432L8.14014 8.95898Z" fill="#D32030"/>
<path d="M16.6349 15.3767L15.6385 14.3803H19.9957V9.98086H13.5612L13.5275 10.0146V9.98086H13.5612L19.9957 3.54641V1.28337L13.5275 7.7516V1.07227C11.9653 1.60425 10.4876 2.33045 9.12805 3.20864V9.94708L9.16182 9.98086H9.12805V9.94708L8.16541 8.98445L8.17386 8.99289H8.14008V8.95911L5.46328 6.27387C5.09174 6.6623 4.74553 7.06762 4.40776 7.48139L6.90723 9.98086H2.6936C1.89984 11.3488 1.25809 12.8265 0.810547 14.3803H9.10272L9.13649 14.3465V14.3803H9.10272L8.14008 15.3429V15.3767H8.1063L3.48735 19.9956H5.75883L9.13649 16.6095V19.9956H13.5359V14.5407L18.9908 19.9956H19.7424C19.8268 19.9028 19.9112 19.8183 19.9957 19.7254V18.7375L16.6349 15.3767Z" fill="#D32030"/>
<path d="M13.5356 7.75143L19.9954 1.2832L13.5356 7.75143Z" fill="#D32030"/>
<path d="M8.14022 15.3766V15.3428L8.10645 15.3766H8.14022Z" fill="#D32030"/>
<path d="M9.13631 14.3467L9.10254 14.3805H9.13631V14.3467Z" fill="#D32030"/>
<path d="M13.5356 10.023L13.5694 9.98926H13.5356V10.023Z" fill="#D32030"/>
<path d="M8.14014 8.99276H8.17391V8.98432L8.14014 8.95898V8.99276Z" fill="#D32030"/>
<path d="M9.17025 9.98934L9.13647 9.95557V9.98934H9.17025Z" fill="#D32030"/>
</svg>
