<svg width="54" height="57" viewBox="0 0 54 57" fill="none" xmlns="http://www.w3.org/2000/svg">
<g clip-path="url(#clip0)" filter="url(#filter0_d)">
<path d="M48.9673 23.5161H41.551V0.983293C41.551 0.625629 41.2694 0.267965 40.8939 0.0891328C40.5184 -0.0896993 40.049 -0.000283259 39.7673 0.267965L36.951 2.95045L34.1347 0.267965C33.7592 -0.0896993 33.102 -0.0896993 32.7265 0.267965L29.9102 2.95045L27.0939 0.267965C26.7184 -0.0896993 26.0612 -0.0896993 25.6857 0.267965L22.8694 2.95045L20.0531 0.267965C19.6776 -0.0896993 19.0204 -0.0896993 18.6449 0.267965L15.8286 2.95045L13.0122 0.267965C12.449 -0.0896993 11.7918 -0.0896993 11.4163 0.267965L8.6 2.95045L5.78367 0.267965C5.40816 -0.0896993 4.75102 -0.0896993 4.37551 0.267965C4.09388 0.446797 4 0.715045 4 0.983293V43.9924C4 46.7643 6.34694 48.9997 9.25714 48.9997H44.8367C47.7469 48.9997 50.0939 46.7643 50.0939 43.9924V24.4997C50 23.9632 49.5306 23.5161 48.9673 23.5161ZM5.97143 43.9924V3.30811L7.84898 5.09643C8.22449 5.36468 8.88163 5.36468 9.25714 5.00702L12.0735 2.32453L14.8898 5.00702C15.2653 5.36468 15.9224 5.36468 16.298 5.00702L19.1143 2.32453L21.9306 5.00702C22.3061 5.36468 22.9633 5.36468 23.3388 5.00702L26.1551 2.32453L28.9714 5.00702C29.3469 5.36468 30.0041 5.36468 30.3796 5.00702L33.1959 2.32453L36.0122 5.00702C36.3878 5.36468 37.0449 5.36468 37.4204 5.00702L39.298 3.21869V24.4103V43.903C39.298 45.0654 39.6735 46.1384 40.4245 46.9431H9.25714C7.47347 47.0326 5.97143 45.6913 5.97143 43.9924ZM47.9347 43.9924C47.9347 45.6913 46.5265 47.0326 44.7429 47.0326C42.9592 47.0326 41.551 45.6913 41.551 43.9924V25.3939H47.9347V43.9924Z" fill="#1123FF"/>
<path d="M22.7757 20.0291C21.7431 20.0291 20.9921 19.4031 20.9921 18.5984C20.9921 18.0619 20.5227 17.6148 19.9594 17.6148C19.3961 17.6148 18.9268 18.0619 18.9268 18.5984C18.9268 20.1185 20.1472 21.4597 21.7431 21.9068V22.7115C21.7431 23.248 22.2125 23.6951 22.7757 23.6951C23.339 23.6951 23.8084 23.248 23.8084 22.7115V21.9068C25.4043 21.5491 26.6247 20.2079 26.6247 18.5984C26.6247 16.7207 24.9349 15.2006 22.7757 15.2006C21.7431 15.2006 20.9921 14.5747 20.9921 13.7699C20.9921 12.9652 21.837 12.3393 22.7757 12.3393C23.7145 12.3393 24.5594 12.9652 24.5594 13.7699C24.5594 14.3064 25.0288 14.7535 25.5921 14.7535C26.1553 14.7535 26.6247 14.3064 26.6247 13.7699C26.6247 12.2499 25.4043 10.9086 23.8084 10.4615V9.83563C23.8084 9.29913 23.339 8.85205 22.7757 8.85205C22.2125 8.85205 21.7431 9.29913 21.7431 9.83563V10.4615C20.1472 10.8192 18.9268 12.1604 18.9268 13.7699C18.9268 15.6477 20.6166 17.1677 22.7757 17.1677C23.8084 17.1677 24.5594 17.7937 24.5594 18.5984C24.5594 19.4031 23.8084 20.0291 22.7757 20.0291Z" fill="#1123FF"/>
<path d="M30.9428 17.0785H32.9142C33.4775 17.0785 33.9469 16.6314 33.9469 16.0949C33.9469 15.5584 33.4775 15.1113 32.9142 15.1113H30.9428C30.3795 15.1113 29.9102 15.5584 29.9102 16.0949C29.9102 16.7208 30.3795 17.0785 30.9428 17.0785Z" fill="#1123FF"/>
<path d="M14.608 15.2007H12.7304C12.1671 15.2007 11.6978 15.6478 11.6978 16.1843C11.6978 16.7208 12.1671 17.1678 12.7304 17.1678H14.7018C15.2651 17.1678 15.7345 16.7208 15.7345 16.1843C15.6406 15.6478 15.1712 15.2007 14.608 15.2007Z" fill="#1123FF"/>
<path d="M33.3839 25.8413H17.4247C16.8615 25.8413 16.3921 26.2884 16.3921 26.8249C16.3921 27.3614 16.8615 27.8085 17.4247 27.8085H33.29C33.8533 27.8085 34.3227 27.3614 34.3227 26.8249C34.3227 26.2884 33.9472 25.8413 33.3839 25.8413Z" fill="#1123FF"/>
<path d="M12.1674 25.8413C11.8858 25.8413 11.6042 25.9307 11.4164 26.1096C11.2286 26.2884 11.1348 26.5566 11.1348 26.8249C11.1348 27.0931 11.2286 27.3614 11.4164 27.5402C11.698 27.6296 11.8858 27.719 12.1674 27.719C12.4491 27.719 12.7307 27.6296 12.9184 27.4508C13.1062 27.272 13.2001 27.0037 13.2001 26.7355C13.2001 26.4672 13.1062 26.199 12.9184 26.0201C12.7307 25.8413 12.4491 25.8413 12.1674 25.8413Z" fill="#1123FF"/>
<path d="M33.3839 32.1006H17.4247C16.8615 32.1006 16.3921 32.5477 16.3921 33.0842C16.3921 33.6207 16.8615 34.0677 17.4247 34.0677H33.29C33.8533 34.0677 34.3227 33.6207 34.3227 33.0842C34.3227 32.5477 33.9472 32.1006 33.3839 32.1006Z" fill="#1123FF"/>
<path d="M12.1674 32.1006C11.8858 32.1006 11.6042 32.19 11.4164 32.3688C11.2286 32.5477 11.1348 32.8159 11.1348 33.0842C11.1348 33.3524 11.2286 33.6207 11.4164 33.7995C11.6042 33.9783 11.8858 34.0677 12.1674 34.0677C12.4491 34.0677 12.7307 33.9783 12.9184 33.7995C13.1062 33.6207 13.2001 33.3524 13.2001 33.0842C13.2001 32.8159 13.1062 32.5477 12.9184 32.3688C12.7307 32.2794 12.4491 32.1006 12.1674 32.1006Z" fill="#1123FF"/>
<path d="M33.3839 38.4487H17.4247C16.8615 38.4487 16.3921 38.8958 16.3921 39.4323C16.3921 39.9688 16.8615 40.4159 17.4247 40.4159H33.29C33.8533 40.4159 34.3227 39.9688 34.3227 39.4323C34.4166 38.8958 33.9472 38.4487 33.3839 38.4487Z" fill="#1123FF"/>
<path d="M12.1674 38.4487C11.8858 38.4487 11.6042 38.5381 11.4164 38.717C11.2286 38.8958 11.1348 39.1641 11.1348 39.4323C11.1348 39.7005 11.2286 39.9688 11.4164 40.1476C11.6042 40.3265 11.8858 40.4159 12.1674 40.4159C12.4491 40.4159 12.7307 40.3265 12.9184 40.1476C13.1062 39.9688 13.2001 39.7005 13.2001 39.4323C13.2001 39.1641 13.1062 38.8958 12.9184 38.717C12.7307 38.5381 12.4491 38.4487 12.1674 38.4487Z" fill="#1123FF"/>
</g>
<defs>
<filter id="filter0_d" x="0" y="0" width="54" height="57" filterUnits="userSpaceOnUse" color-interpolation-filters="sRGB">
<feFlood flood-opacity="0" result="BackgroundImageFix"/>
<feColorMatrix in="SourceAlpha" type="matrix" values="0 0 0 0 0 0 0 0 0 0 0 0 0 0 0 0 0 0 127 0"/>
<feOffset dy="4"/>
<feGaussianBlur stdDeviation="2"/>
<feColorMatrix type="matrix" values="0 0 0 0 0 0 0 0 0 0 0 0 0 0 0 0 0 0 0.15 0"/>
<feBlend mode="normal" in2="BackgroundImageFix" result="effect1_dropShadow"/>
<feBlend mode="normal" in="SourceGraphic" in2="effect1_dropShadow" result="shape"/>
</filter>
<clipPath id="clip0">
<rect width="46" height="49" fill="white" transform="translate(4)"/>
</clipPath>
</defs>
</svg>
