<svg width="46" height="49" viewBox="0 0 46 49" fill="none" xmlns="http://www.w3.org/2000/svg">
<g clip-path="url(#clip0)">
<path d="M44.9673 23.516H37.551V0.983148C37.551 0.625484 37.2694 0.26782 36.8939 0.0889878C36.5184 -0.0898443 36.049 -0.000428218 35.7673 0.26782L32.951 2.9503L30.1347 0.26782C29.7592 -0.0898443 29.102 -0.0898443 28.7265 0.26782L25.9102 2.9503L23.0939 0.26782C22.7184 -0.0898443 22.0612 -0.0898443 21.6857 0.26782L18.8694 2.9503L16.0531 0.26782C15.6776 -0.0898443 15.0204 -0.0898443 14.6449 0.26782L11.8286 2.9503L9.01224 0.26782C8.44898 -0.0898443 7.79184 -0.0898443 7.41633 0.26782L4.6 2.9503L1.78367 0.26782C1.40816 -0.0898443 0.75102 -0.0898443 0.37551 0.26782C0.0938775 0.446652 0 0.7149 0 0.983148V43.9923C0 46.7642 2.34694 48.9996 5.25714 48.9996H40.8367C43.7469 48.9996 46.0939 46.7642 46.0939 43.9923V24.4996C46 23.9631 45.5306 23.516 44.9673 23.516ZM1.97143 43.9923V3.30797L3.84898 5.09629C4.22449 5.36454 4.88163 5.36454 5.25714 5.00687L8.07347 2.32439L10.8898 5.00687C11.2653 5.36454 11.9224 5.36454 12.298 5.00687L15.1143 2.32439L17.9306 5.00687C18.3061 5.36454 18.9633 5.36454 19.3388 5.00687L22.1551 2.32439L24.9714 5.00687C25.3469 5.36454 26.0041 5.36454 26.3796 5.00687L29.1959 2.32439L32.0122 5.00687C32.3878 5.36454 33.0449 5.36454 33.4204 5.00687L35.298 3.21855V24.4102V43.9029C35.298 45.0653 35.6735 46.1383 36.4245 46.943H5.25714C3.47347 47.0324 1.97143 45.6912 1.97143 43.9923ZM43.9347 43.9923C43.9347 45.6912 42.5265 47.0324 40.7429 47.0324C38.9592 47.0324 37.551 45.6912 37.551 43.9923V25.3937H43.9347V43.9923Z" fill="#FA304D"/>
<path d="M18.7755 20.0292C17.7429 20.0292 16.9918 19.4033 16.9918 18.5985C16.9918 18.062 16.5224 17.615 15.9592 17.615C15.3959 17.615 14.9265 18.062 14.9265 18.5985C14.9265 20.1186 16.1469 21.4599 17.7429 21.9069V22.7117C17.7429 23.2482 18.2122 23.6953 18.7755 23.6953C19.3388 23.6953 19.8082 23.2482 19.8082 22.7117V21.9069C21.4041 21.5493 22.6245 20.208 22.6245 18.5985C22.6245 16.7208 20.9347 15.2007 18.7755 15.2007C17.7429 15.2007 16.9918 14.5748 16.9918 13.7701C16.9918 12.9653 17.8367 12.3394 18.7755 12.3394C19.7143 12.3394 20.5592 12.9653 20.5592 13.7701C20.5592 14.3066 21.0286 14.7536 21.5918 14.7536C22.1551 14.7536 22.6245 14.3066 22.6245 13.7701C22.6245 12.25 21.4041 10.9088 19.8082 10.4617V9.83577C19.8082 9.29927 19.3388 8.85219 18.7755 8.85219C18.2122 8.85219 17.7429 9.29927 17.7429 9.83577V10.4617C16.1469 10.8193 14.9265 12.1606 14.9265 13.7701C14.9265 15.6478 16.6163 17.1679 18.7755 17.1679C19.8082 17.1679 20.5592 17.7938 20.5592 18.5985C20.5592 19.4033 19.8082 20.0292 18.7755 20.0292Z" fill="#FA304D"/>
<path d="M26.9429 17.0785H28.9143C29.4776 17.0785 29.9469 16.6314 29.9469 16.0949C29.9469 15.5584 29.4776 15.1113 28.9143 15.1113H26.9429C26.3796 15.1113 25.9102 15.5584 25.9102 16.0949C25.9102 16.7208 26.3796 17.0785 26.9429 17.0785Z" fill="#FA304D"/>
<path d="M10.6082 15.2007H8.73061C8.16734 15.2007 7.69796 15.6478 7.69796 16.1843C7.69796 16.7208 8.16734 17.1679 8.73061 17.1679H10.702C11.2653 17.1679 11.7347 16.7208 11.7347 16.1843C11.6408 15.6478 11.1714 15.2007 10.6082 15.2007Z" fill="#FA304D"/>
<path d="M29.3837 25.8412H13.4245C12.8612 25.8412 12.3918 26.2883 12.3918 26.8248C12.3918 27.3613 12.8612 27.8084 13.4245 27.8084H29.2898C29.8531 27.8084 30.3225 27.3613 30.3225 26.8248C30.3225 26.2883 29.9469 25.8412 29.3837 25.8412Z" fill="#FA304D"/>
<path d="M8.16734 25.8412C7.8857 25.8412 7.60407 25.9307 7.41631 26.1095C7.22856 26.2883 7.13468 26.5566 7.13468 26.8248C7.13468 27.0931 7.22856 27.3613 7.41631 27.5401C7.69795 27.6296 7.8857 27.719 8.16734 27.719C8.44897 27.719 8.7306 27.6296 8.91836 27.4507C9.10611 27.2719 9.19999 27.0036 9.19999 26.7354C9.19999 26.4672 9.10611 26.1989 8.91836 26.0201C8.7306 25.8412 8.44897 25.8412 8.16734 25.8412Z" fill="#FA304D"/>
<path d="M29.3837 32.1004H13.4245C12.8612 32.1004 12.3918 32.5474 12.3918 33.0839C12.3918 33.6204 12.8612 34.0675 13.4245 34.0675H29.2898C29.8531 34.0675 30.3225 33.6204 30.3225 33.0839C30.3225 32.5474 29.9469 32.1004 29.3837 32.1004Z" fill="#FA304D"/>
<path d="M8.16734 32.1004C7.8857 32.1004 7.60407 32.1898 7.41631 32.3686C7.22856 32.5474 7.13468 32.8157 7.13468 33.0839C7.13468 33.3522 7.22856 33.6204 7.41631 33.7993C7.60407 33.9781 7.8857 34.0675 8.16734 34.0675C8.44897 34.0675 8.7306 33.9781 8.91836 33.7993C9.10611 33.6204 9.19999 33.3522 9.19999 33.0839C9.19999 32.8157 9.10611 32.5474 8.91836 32.3686C8.7306 32.2792 8.44897 32.1004 8.16734 32.1004Z" fill="#FA304D"/>
<path d="M29.3837 38.4489H13.4245C12.8612 38.4489 12.3918 38.896 12.3918 39.4325C12.3918 39.969 12.8612 40.4161 13.4245 40.4161H29.2898C29.8531 40.4161 30.3225 39.969 30.3225 39.4325C30.4163 38.896 29.9469 38.4489 29.3837 38.4489Z" fill="#FA304D"/>
<path d="M8.16734 38.4489C7.8857 38.4489 7.60407 38.5383 7.41631 38.7172C7.22856 38.896 7.13468 39.1642 7.13468 39.4325C7.13468 39.7007 7.22856 39.969 7.41631 40.1478C7.60407 40.3266 7.8857 40.4161 8.16734 40.4161C8.44897 40.4161 8.7306 40.3266 8.91836 40.1478C9.10611 39.969 9.19999 39.7007 9.19999 39.4325C9.19999 39.1642 9.10611 38.896 8.91836 38.7172C8.7306 38.5383 8.44897 38.4489 8.16734 38.4489Z" fill="#FA304D"/>
</g>
<defs>
<clipPath id="clip0">
<rect width="46" height="49" fill="white"/>
</clipPath>
</defs>
</svg>
