<svg width="33" height="25" viewBox="0 0 33 25" fill="none" xmlns="http://www.w3.org/2000/svg">
<g clip-path="url(#clip0)">
<path d="M26.552 5.28516H0V7.17274H26.552V5.28516Z" fill="white"/>
<path d="M26.552 2.83557C26.552 1.27517 25.2852 0 23.7164 0H2.82718C1.26678 0 0 1.26678 0 2.83557V3.40604H26.552V2.83557Z" fill="white"/>
<path d="M26.4933 11.6612C26.5185 11.6612 26.5352 11.6612 26.5604 11.6612V9.06055H0V16.8038C0 18.3642 1.26678 19.631 2.83557 19.631H18.8926C18.8842 19.5136 18.8842 19.3877 18.8842 19.2703C18.8758 15.0756 22.2903 11.6612 26.4933 11.6612ZM4.71477 10.9481H7.07215C7.59228 10.9481 8.02013 11.3676 8.02013 11.8961C8.02013 12.4162 7.60067 12.8441 7.07215 12.8441H4.71477C4.19463 12.8357 3.77517 12.4162 3.77517 11.8961C3.77517 11.3676 4.19463 10.9481 4.71477 10.9481ZM10.0671 15.8558H4.71477C4.19463 15.8558 3.77517 15.4364 3.77517 14.9162C3.77517 14.3961 4.19463 13.9683 4.71477 13.9683H10.0671C10.5872 13.9683 11.0151 14.3877 11.0151 14.9162C11.0151 15.4364 10.5872 15.8558 10.0671 15.8558Z" fill="white"/>
<path d="M26.493 13.5488C23.3387 13.5488 20.7632 16.1159 20.7632 19.2787C20.7632 22.4331 23.3303 25.0086 26.493 25.0086C29.6558 25.0086 32.2229 22.4414 32.2229 19.2787C32.2145 16.1159 29.6474 13.5488 26.493 13.5488ZM29.2363 18.7837L26.9712 21.0488C26.7867 21.2334 26.5434 21.3257 26.3001 21.3257C26.0568 21.3257 25.8135 21.2334 25.6289 21.0488L24.4628 19.8827C24.0937 19.5136 24.0937 18.918 24.4628 18.5488C24.832 18.1797 25.4276 18.1797 25.7967 18.5488L26.2917 19.0438L27.8857 17.4498C28.2548 17.0807 28.8504 17.0807 29.2195 17.4498C29.5971 17.819 29.5971 18.4146 29.2363 18.7837Z" fill="white"/>
</g>
<defs>
<clipPath id="clip0">
<rect width="32.2148" height="25" fill="white"/>
</clipPath>
</defs>
</svg>
