<svg width="25" height="26" viewBox="0 0 25 26" fill="none" xmlns="http://www.w3.org/2000/svg">
<path d="M24.4257 14.3769L24.0476 13.8602C23.638 13.293 23.6317 12.5368 24.035 11.9696L24.4005 11.4528C24.9677 10.6588 24.703 9.54961 23.8396 9.08957L23.2725 8.78707C22.6549 8.45937 22.3272 7.77245 22.4406 7.08553L22.5477 6.45533C22.7116 5.49113 21.9932 4.60255 21.0164 4.56474L20.3799 4.53953C19.6866 4.50802 19.0816 4.04167 18.8926 3.36736L18.7161 2.74976C18.4451 1.81077 17.4179 1.32551 16.5167 1.70993L15.9306 1.96201C15.2878 2.2393 14.5505 2.07545 14.0779 1.55238L13.6556 1.07973C13.0065 0.355005 11.8659 0.367609 11.2294 1.09864L10.8134 1.57759C10.3534 2.10066 9.61605 2.27711 8.97325 2.01243L8.38086 1.77295C7.47968 1.40114 6.45245 1.90529 6.20037 2.84429L6.03022 3.46189C5.84746 4.1299 5.25507 4.60885 4.55555 4.65296L3.91905 4.69077C2.94854 4.74749 2.24272 5.64238 2.41918 6.60028L2.53261 7.22418C2.65865 7.91109 2.33095 8.59801 1.72596 8.93202L1.16508 9.24081C0.314311 9.71346 0.0685332 10.8289 0.642015 11.6167L1.02013 12.1334C1.42976 12.7006 1.43607 13.4568 1.03274 14.024L0.667222 14.5408C0.100043 15.3348 0.364727 16.444 1.2281 16.904L1.79528 17.2065C2.41287 17.5342 2.74058 18.2212 2.62714 18.9081L2.52001 19.5383C2.35616 20.5025 3.07458 21.3911 4.05139 21.4289L4.68789 21.4541C5.38111 21.4856 5.9861 21.9519 6.17516 22.6262L6.35162 23.2438C6.6226 24.1828 7.64983 24.6681 8.55101 24.2837L9.1371 24.0316C9.7799 23.7543 10.5172 23.9181 10.9899 24.4412L11.4121 24.9139C12.0612 25.6386 13.2019 25.6323 13.8447 24.895L14.2606 24.416C14.7207 23.8929 15.458 23.7165 16.1008 23.9812L16.6932 24.2206C17.5944 24.5925 18.6216 24.0883 18.8737 23.1493L19.0375 22.5317C19.2203 21.8637 19.8127 21.3848 20.5122 21.3406L21.1487 21.3028C22.1192 21.2461 22.825 20.3512 22.6486 19.3933L22.5351 18.7694C22.4091 18.0825 22.7368 17.3956 23.3418 17.0616L23.9027 16.7528C24.7534 16.2738 24.9992 15.1647 24.4257 14.3769ZM15.5399 17.1309C15.0799 17.6855 14.4875 18.0573 13.7943 18.2527C13.4918 18.3346 13.3531 18.4921 13.372 18.8072C13.3846 19.116 13.372 19.4248 13.372 19.7336C13.372 20.0109 13.2334 20.1559 12.9561 20.1622C12.6221 20.1748 12.2881 20.1748 11.9604 20.1622C11.6705 20.1559 11.5319 19.992 11.5256 19.7084C11.5193 19.4815 11.5193 19.2547 11.5193 19.0341C11.513 18.5363 11.5003 18.5173 11.0214 18.4417C10.4038 18.3472 9.80511 18.2022 9.24423 17.9313C8.80309 17.717 8.75898 17.6099 8.88502 17.1435C8.97955 16.8032 9.07408 16.4503 9.18121 16.1163C9.30725 15.7256 9.41439 15.6751 9.7736 15.8579C10.3912 16.1793 11.0529 16.3621 11.7461 16.4503C12.1873 16.507 12.6284 16.4629 13.0443 16.2801C13.8132 15.9398 13.9392 15.0512 13.2838 14.5156C13.0632 14.3328 12.8112 14.2005 12.5465 14.0807C11.8722 13.7845 11.1663 13.5577 10.5298 13.1733C9.49631 12.5557 8.84091 11.7049 8.91653 10.4445C9.00476 9.02024 9.81141 8.13796 11.1096 7.65901C11.6516 7.46365 11.6516 7.46995 11.6516 6.90908V6.3419C11.6642 5.91966 11.7335 5.84404 12.1558 5.83144C12.2881 5.82513 12.4204 5.83144 12.5465 5.83144C13.4414 5.83144 13.4414 5.83144 13.4477 6.72632C13.454 7.36282 13.4477 7.36912 14.0842 7.46365C14.5694 7.53928 15.0295 7.68422 15.4832 7.87958C15.729 7.99302 15.8235 8.16317 15.7479 8.42155C15.6345 8.81228 15.5336 9.203 15.4076 9.58742C15.2941 9.95294 15.1744 10.0034 14.8215 9.8332C14.122 9.49289 13.3846 9.35425 12.6095 9.39206C12.4078 9.40467 12.2062 9.42987 12.0171 9.5118C11.3491 9.80169 11.2357 10.5453 11.8091 10.9991C12.099 11.2322 12.4267 11.3961 12.7733 11.541C13.3657 11.7868 13.9644 12.02 14.5253 12.3351C16.3214 13.3371 16.8003 15.5932 15.5399 17.1309Z" fill="white"/>
</svg>
