<svg width="107" height="26" viewBox="0 0 107 26" fill="none" xmlns="http://www.w3.org/2000/svg">
<g clip-path="url(#clip0)">
<path d="M34.4034 3.19029C34.4034 3.92734 34.2196 4.57475 33.7576 5.03292C33.2063 5.58571 32.5605 5.86459 31.736 5.86459C30.9064 5.86459 30.2657 5.58571 29.7143 5.03292C29.1629 4.48013 28.8848 3.83272 28.8848 3.00603C28.8848 2.17933 29.1629 1.53192 29.7143 0.979134C30.2657 0.426345 30.9114 0.147461 31.736 0.147461C32.1036 0.147461 32.4711 0.242082 32.8387 0.426345C33.2063 0.610608 33.4844 0.794871 33.6682 1.07376L33.2063 1.5369C32.8387 1.07376 32.3768 0.889493 31.736 0.889493C31.1846 0.889493 30.6332 1.07376 30.2657 1.5369C29.8037 1.90543 29.6199 2.45822 29.6199 3.10563C29.6199 3.75304 29.8037 4.30583 30.2657 4.67435C30.7276 5.04288 31.1846 5.32176 31.736 5.32176C32.3817 5.32176 32.8387 5.1375 33.3007 4.67435C33.5788 4.39547 33.7626 4.02694 33.7626 3.56878H31.7409V2.82176H34.4084L34.4034 3.19029ZM38.6355 0.884513H36.1519V2.6375H38.4517V3.28491H36.1519V5.0379H38.6355V5.77495H35.4167V0.242082H38.6355V0.884513ZM41.6705 5.77495H40.9353V0.884513H39.3707V0.242082H43.2352V0.889493H41.6705V5.77495ZM45.9026 5.77495V0.242082H46.6378V5.77495H45.9026ZM49.7671 5.77495H49.027V0.884513H47.4623V0.242082H51.2325V0.889493H49.6728V5.77495H49.7671ZM58.5046 5.03292C57.9532 5.58571 57.3074 5.86459 56.4829 5.86459C55.6533 5.86459 55.0126 5.58571 54.4612 5.03292C53.9098 4.48013 53.6317 3.83272 53.6317 3.00603C53.6317 2.17933 53.9098 1.53192 54.4612 0.979134C55.0126 0.426345 55.6583 0.147461 56.4829 0.147461C57.3074 0.147461 57.9532 0.426345 58.5046 0.979134C59.0559 1.53192 59.3341 2.17933 59.3341 3.00603C59.3341 3.83272 59.0559 4.48013 58.5046 5.03292ZM55.0076 4.57475C55.3752 4.94328 55.9265 5.22216 56.4779 5.22216C57.0293 5.22216 57.5806 5.0379 57.9482 4.57475C58.3158 4.20623 58.594 3.65344 58.594 3.00603C58.594 2.35862 58.4102 1.80583 57.9482 1.4373C57.5806 1.06878 57.0293 0.789891 56.4779 0.789891C55.9265 0.789891 55.3752 0.974154 55.0076 1.4373C54.64 1.80583 54.3619 2.35862 54.3619 3.00603C54.3619 3.65344 54.5456 4.20623 55.0076 4.57475ZM60.3424 5.77495V0.242082H61.172L63.8394 4.57475V0.242082H64.5745V5.77495H63.8394L60.9882 1.25802V5.77495H60.3424Z" fill="white" stroke="white" stroke-width="0.2" stroke-miterlimit="10"/>
<path d="M53.4428 13.8874C51.2373 13.8874 49.4888 15.5457 49.4888 17.8515C49.4888 20.0627 51.2373 21.8156 53.4428 21.8156C55.6482 21.8156 57.3967 20.1573 57.3967 17.8515C57.4017 15.4561 55.6532 13.8874 53.4428 13.8874ZM53.4428 20.1623C52.2457 20.1623 51.2373 19.1463 51.2373 17.7668C51.2373 16.3824 52.2506 15.3714 53.4428 15.3714C54.6349 15.3714 55.6482 16.2927 55.6482 17.7668C55.6532 19.1463 54.6399 20.1623 53.4428 20.1623ZM44.8891 13.8874C42.6837 13.8874 40.9352 15.5457 40.9352 17.8515C40.9352 20.0627 42.6837 21.8156 44.8891 21.8156C47.0946 21.8156 48.8431 20.1573 48.8431 17.8515C48.8431 15.4561 47.0946 13.8874 44.8891 13.8874ZM44.8891 20.1623C43.692 20.1623 42.6837 19.1463 42.6837 17.7668C42.6837 16.3824 43.697 15.3714 44.8891 15.3714C46.0813 15.3714 47.0946 16.2927 47.0946 17.7668C47.0946 19.1463 46.0862 20.1623 44.8891 20.1623ZM34.6764 15.0876V16.7459H38.6304C38.536 17.6672 38.1684 18.4043 37.7114 18.8674C37.1601 19.4202 36.2411 20.0676 34.6764 20.0676C32.1928 20.0676 30.3549 18.1304 30.3549 15.6403C30.3549 13.1503 32.2872 11.2131 34.6764 11.2131C35.963 11.2131 36.9763 11.7658 37.7114 12.4133L38.9085 11.2131C37.9002 10.2917 36.6087 9.55469 34.7708 9.55469C31.4577 9.55469 28.6064 12.3236 28.6064 15.6403C28.6064 18.9571 31.4577 21.726 34.7708 21.726C36.6087 21.726 37.9002 21.1732 39.0029 19.973C40.1057 18.8674 40.4732 17.2987 40.4732 16.0985C40.4732 15.73 40.4732 15.3615 40.3789 15.0826L34.6764 15.0876ZM76.4412 16.3774C76.0736 15.4561 75.1547 13.8874 73.128 13.8874C71.1063 13.8874 69.4473 15.4561 69.4473 17.8515C69.4473 20.0627 71.1014 21.8156 73.3118 21.8156C75.0603 21.8156 76.163 20.7101 76.5306 20.0627L75.2441 19.1413C74.7821 19.7887 74.2308 20.2469 73.3118 20.2469C72.3929 20.2469 71.8415 19.8784 71.3795 19.0467L76.625 16.8356L76.4412 16.3774ZM71.1063 17.6722C71.1063 16.1981 72.3035 15.3664 73.128 15.3664C73.7738 15.3664 74.4146 15.735 74.5983 16.1981L71.1063 17.6722ZM66.7799 21.4521H68.5283V9.92321H66.7799V21.4521ZM64.023 14.719C63.5611 14.2559 62.8259 13.7977 61.907 13.7977C59.9747 13.7977 58.1368 15.5507 58.1368 17.7619C58.1368 19.973 59.8853 21.6364 61.907 21.6364C62.8259 21.6364 63.5611 21.1732 63.9287 20.715H64.023V21.2678C64.023 22.7419 63.1935 23.5736 61.907 23.5736C60.8937 23.5736 60.1585 22.8366 59.9747 22.1891L58.5044 22.8366C58.9664 23.8525 60.0691 25.1423 62.0014 25.1423C64.023 25.1423 65.6821 23.9421 65.6821 21.0836V14.0716H64.028L64.023 14.719ZM61.9964 20.1623C60.7993 20.1623 59.7909 19.1463 59.7909 17.7668C59.7909 16.3824 60.8042 15.3714 61.9964 15.3714C63.1885 15.3714 64.1124 16.3874 64.1124 17.7668C64.1124 19.1463 63.1935 20.1623 61.9964 20.1623ZM84.4435 9.92321H80.3057V21.4521H82.0542V17.1194H84.4435C86.3757 17.1194 88.2136 15.735 88.2136 13.5238C88.2136 11.3127 86.3757 9.92321 84.4435 9.92321ZM84.5378 15.4561H82.0542V11.4919H84.5378C85.8244 11.4919 86.5595 12.5975 86.5595 13.4292C86.4651 14.4401 85.73 15.4561 84.5378 15.4561ZM95.1131 13.7977C93.8266 13.7977 92.5351 14.3505 92.0781 15.5507L93.6428 16.1981C94.0104 15.5507 94.5618 15.3664 95.2075 15.3664C96.1264 15.3664 96.956 15.9192 97.0454 16.8405V16.9352C96.7672 16.7509 96.0321 16.472 95.2969 16.472C93.6428 16.472 91.9838 17.3933 91.9838 19.0567C91.9838 20.6254 93.3647 21.6413 94.835 21.6413C96.0321 21.6413 96.5834 21.0885 97.0404 20.5358H97.1348V21.4571H98.7889V17.0248C98.6101 14.9929 97.0454 13.7977 95.1131 13.7977ZM94.9293 20.1623C94.378 20.1623 93.5484 19.8834 93.5484 19.1463C93.5484 18.225 94.5618 17.9461 95.3863 17.9461C96.1215 17.9461 96.4891 18.1304 96.951 18.3146C96.7672 19.4202 95.8483 20.1623 94.9293 20.1623ZM104.591 14.0716L102.658 19.0517H102.564L100.542 14.0716H98.7045L101.739 21.0786L99.991 24.9531H101.739L106.429 14.0716H104.591ZM89.1325 21.4521H90.881V9.92321H89.1325V21.4521Z" fill="white"/>
<path d="M0.367577 0.700195C0.094378 0.97908 0 1.43725 0 1.99004V22.3735C0 22.9263 0.183789 23.3894 0.461955 23.6633L0.556333 23.758L11.9612 12.3237V12.1394L0.367577 0.700195Z" fill="white"/>
<path d="M15.6371 16.1931L11.8669 12.4133V12.1344L15.6371 8.35449L15.7315 8.44911L20.2368 11.0338C21.5233 11.7708 21.5233 12.971 20.2368 13.7081L15.6371 16.1931Z" fill="white"/>
<path d="M15.7312 16.103L11.8666 12.2285L0.367432 23.7574C0.829387 24.2206 1.47016 24.2206 2.2997 23.852L15.7312 16.103Z" fill="white"/>
<path d="M15.7312 8.35443L2.2997 0.700053C1.47016 0.241886 0.829387 0.331527 0.367432 0.794674L11.8666 12.2289L15.7312 8.35443Z" fill="white"/>
<path opacity="0.2" d="M15.6368 16.0088L2.2997 23.5735C1.56454 24.0367 0.918798 23.9421 0.46181 23.5735L0.367432 23.6682L0.46181 23.7628C0.923765 24.1313 1.56454 24.2259 2.2997 23.7628L15.6368 16.0088Z" fill="white"/>
<path opacity="0.12" d="M0.367577 23.574C0.094378 23.2951 0 22.837 0 22.2792V22.3738C0 22.9266 0.183789 23.3898 0.461955 23.6637V23.569L0.367577 23.574ZM20.2366 13.4296L15.6369 16.0143L15.7313 16.1089L20.2366 13.5242C20.8824 13.1557 21.1556 12.6925 21.1556 12.2344C21.1556 12.6925 20.788 13.0611 20.2366 13.4296Z" fill="white"/>
<path opacity="0.25" d="M2.29984 0.79467L20.2366 11.0337C20.788 11.4022 21.1556 11.7708 21.1556 12.2339C21.1556 11.7708 20.8774 11.3126 20.2366 10.9441L2.29984 0.700048C1.01332 -0.0370032 0 0.515785 0 1.98989V2.08451C0 0.700048 1.01332 0.0526382 2.29984 0.79467Z" fill="white"/>
<g clip-path="url(#clip1)">
<path d="M0.38383 0.473633C0.098551 0.758928 0 1.22763 0 1.79822V22.6502C0 23.2157 0.191915 23.6895 0.482381 23.9697L0.580932 24.0665L12.49 12.3694V12.1809L0.38383 0.473633Z" fill="url(#paint0_linear)"/>
<path d="M16.3285 16.3225L12.3916 12.4558V12.1705L16.3285 8.30371L16.427 8.40051L21.1315 11.0446C22.4749 11.7986 22.4749 13.0264 21.1315 13.7804L16.3285 16.3225Z" fill="url(#paint1_linear)"/>
<path d="M16.4269 16.2311L12.3915 12.2676L0.383789 24.0615C0.86617 24.5353 1.53528 24.5353 2.40149 24.1583L16.4269 16.2311Z" fill="url(#paint2_linear)"/>
<path d="M16.4269 8.30391L2.40149 0.473588C1.53528 0.00488904 0.86617 0.0965909 0.383789 0.570384L12.3915 12.2675L16.4269 8.30391Z" fill="url(#paint3_linear)"/>
<path opacity="0.2" d="M16.3283 16.1338L2.40149 23.8724C1.63383 24.3462 0.959535 24.2494 0.48234 23.8724L0.383789 23.9692L0.48234 24.066C0.964722 24.443 1.63383 24.5398 2.40149 24.066L16.3283 16.1338Z" fill="black"/>
<path opacity="0.12" d="M0.38383 23.8728C0.098551 23.5875 0 23.1188 0 22.5533V22.6501C0 23.2156 0.191915 23.6894 0.482381 23.9696V23.8728H0.38383ZM21.1314 13.4952L16.3283 16.1392L16.4269 16.236L21.1314 13.5919C21.8057 13.215 22.091 12.7412 22.091 12.2725C22.091 12.7412 21.7072 13.1182 21.1314 13.4952Z" fill="black"/>
<path opacity="0.25" d="M2.40153 0.568829L21.1314 11.0432C21.7072 11.4202 22.091 11.7972 22.091 12.271C22.091 11.7972 21.8005 11.3285 21.1314 10.9515L2.40153 0.472033C1.05813 -0.28196 0 0.283535 0 1.79662V1.89341C0 0.472033 1.05813 -0.185164 2.40153 0.568829Z" fill="white"/>
</g>
</g>
<defs>
<linearGradient id="paint0_linear" x1="11.3297" y1="1.61178" x2="-4.50133" y2="17.7289" gradientUnits="userSpaceOnUse">
<stop stop-color="#00A0FF"/>
<stop offset="0.007" stop-color="#00A1FF"/>
<stop offset="0.26" stop-color="#00BEFF"/>
<stop offset="0.512" stop-color="#00D2FF"/>
<stop offset="0.76" stop-color="#00DFFF"/>
<stop offset="1" stop-color="#00E3FF"/>
</linearGradient>
<linearGradient id="paint1_linear" x1="22.8934" y1="12.3145" x2="-0.348682" y2="12.3145" gradientUnits="userSpaceOnUse">
<stop stop-color="#FFE000"/>
<stop offset="0.409" stop-color="#FFBD00"/>
<stop offset="0.775" stop-color="#FFA500"/>
<stop offset="1" stop-color="#FF9C00"/>
</linearGradient>
<linearGradient id="paint2_linear" x1="14.2307" y1="14.4229" x2="-7.23655" y2="36.2793" gradientUnits="userSpaceOnUse">
<stop stop-color="#FF3A44"/>
<stop offset="1" stop-color="#C31162"/>
</linearGradient>
<linearGradient id="paint3_linear" x1="-2.63058" y1="-6.40161" x2="6.956" y2="3.35874" gradientUnits="userSpaceOnUse">
<stop stop-color="#32A071"/>
<stop offset="0.069" stop-color="#2DA771"/>
<stop offset="0.476" stop-color="#15CF74"/>
<stop offset="0.801" stop-color="#06E775"/>
<stop offset="1" stop-color="#00F076"/>
</linearGradient>
<clipPath id="clip0">
<rect width="106.429" height="25" fill="white" transform="translate(0 0.142578)"/>
</clipPath>
<clipPath id="clip1">
<rect width="22.1429" height="24.2857" fill="white" transform="translate(0 0.142578)"/>
</clipPath>
</defs>
</svg>
