<svg width="62" height="58" viewBox="0 0 62 58" fill="none" xmlns="http://www.w3.org/2000/svg">
<g clip-path="url(#clip0)" filter="url(#filter0_d)">
<path d="M30.6667 17.8763C30.1582 17.8763 29.7627 17.5055 29.7627 17.0288V15.4134C29.7627 14.9367 30.1582 14.5659 30.6667 14.5659C31.1751 14.5659 31.5706 14.9367 31.5706 15.4134V17.0288C31.5706 17.4791 31.1469 17.8763 30.6667 17.8763Z" fill="#FA304D"/>
<path d="M14.4521 25.8474C13.9436 25.8474 13.5481 25.4766 13.5481 24.9999C13.5481 16.1546 21.2317 8.95117 30.6667 8.95117C34.3673 8.95117 37.8984 10.037 40.8645 12.1291C41.26 12.394 41.3447 12.9236 41.0622 13.2944C40.7797 13.6652 40.2148 13.7446 39.8193 13.4798C37.1639 11.626 34.0001 10.6461 30.695 10.6461C22.2487 10.6461 15.3843 17.0815 15.3843 24.9999C15.356 25.4766 14.9605 25.8474 14.4521 25.8474Z" fill="#FA304D"/>
<path d="M30.6666 41.0485C26.966 41.0485 23.4349 39.9627 20.4688 37.8706C20.0733 37.6057 19.9886 37.0761 20.2711 36.7053C20.5536 36.3345 21.1185 36.2551 21.514 36.5199C24.1694 38.3737 27.3332 39.3536 30.6383 39.3536C39.0846 39.3536 45.949 32.9182 45.949 24.9998C45.949 24.5231 46.3445 24.1523 46.853 24.1523C47.3615 24.1523 47.757 24.5231 47.757 24.9998C47.7852 33.8451 40.1016 41.0485 30.6666 41.0485Z" fill="#FA304D"/>
<path d="M4.90395 25.8475C4.39548 25.8475 4 25.4767 4 25C4 11.2023 15.9492 0 30.6667 0C35.9209 0 41.0339 1.43008 45.3842 4.15784C45.8079 4.42267 45.9209 4.92585 45.6384 5.32309C45.3559 5.72034 44.8192 5.82627 44.3955 5.56144C40.3277 3.01907 35.5819 1.69492 30.6667 1.69492C16.9661 1.69492 5.80791 12.1557 5.80791 25C5.80791 25.4767 5.38418 25.8475 4.90395 25.8475Z" fill="#FA304D"/>
<path d="M30.6667 49.9998C25.4125 49.9998 20.2995 48.5697 15.9492 45.842C15.5255 45.5771 15.4125 45.074 15.695 44.6767C15.9775 44.2795 16.5142 44.1735 16.9379 44.4384C21.0057 46.9807 25.7515 48.3049 30.6667 48.3049C44.3673 48.3049 55.5255 37.8441 55.5255 24.9998C55.5255 24.5231 55.921 24.1523 56.4294 24.1523C56.9379 24.1523 57.3334 24.5231 57.3334 24.9998C57.3334 38.771 45.356 49.9998 30.6667 49.9998Z" fill="#FA304D"/>
<path d="M30.6666 33.8187C27.644 33.8187 25.2146 31.6471 25.2146 28.9988C25.2146 28.5221 25.6101 28.1514 26.1186 28.1514C26.627 28.1514 27.0225 28.5221 27.0225 28.9988C27.0225 30.7467 28.6609 32.1503 30.6948 32.1503C32.7005 32.1503 34.3671 30.7467 34.3671 28.9988C34.3671 27.2509 32.7287 25.8473 30.6948 25.8473C27.6722 25.8473 25.2428 23.6757 25.2428 21.0274C25.2428 18.3526 27.7005 16.2075 30.6948 16.2075C33.7174 16.2075 36.1468 18.3791 36.1468 21.0274C36.1468 21.5041 35.7513 21.8749 35.2428 21.8749C34.7344 21.8749 34.3389 21.5041 34.3389 21.0274C34.3389 19.2796 32.7005 17.876 30.6666 17.876C28.6609 17.876 26.9943 19.2796 26.9943 21.0274C26.9943 22.7753 28.6327 24.1789 30.6666 24.1789C33.6892 24.1789 36.1186 26.3505 36.1186 28.9988C36.1186 31.6471 33.6609 33.8187 30.6666 33.8187Z" fill="#FA304D"/>
<path d="M30.6667 35.6463C30.1582 35.6463 29.7627 35.2755 29.7627 34.7988V32.9715C29.7627 32.4948 30.1582 32.124 30.6667 32.124C31.1751 32.124 31.5706 32.4948 31.5706 32.9715V34.7988C31.5706 35.2755 31.1469 35.6463 30.6667 35.6463Z" fill="#FA304D"/>
<path d="M38.5479 16.7638C38.2655 16.7638 37.983 16.6314 37.8135 16.393C37.6157 16.1282 37.6157 15.7839 37.757 15.5191L39.5649 12.3941C39.7909 11.9968 40.3559 11.8379 40.7796 12.0498C41.2033 12.2617 41.3728 12.7913 41.1468 13.1886L40.1864 14.8835L51.627 13.5064L46.5423 3.78709L45.7231 5.24366C45.4971 5.64091 44.9321 5.79981 44.5084 5.58794C44.0847 5.37608 43.9152 4.84642 44.1412 4.44917L45.8078 1.56252C45.9773 1.29769 46.2598 1.13879 46.627 1.1123C46.966 1.1123 47.2768 1.29769 47.418 1.589L53.8304 13.8242C53.9717 14.0625 53.9434 14.3538 53.8022 14.5922C53.6609 14.8305 53.4067 14.9894 53.1242 15.0159L38.6892 16.7373C38.6044 16.7638 38.5762 16.7638 38.5479 16.7638Z" fill="#FA304D"/>
<path d="M14.7908 48.8612C14.4518 48.8612 14.1411 48.6758 13.9716 48.3845L7.55917 36.1494C7.41793 35.911 7.44617 35.6197 7.58742 35.3814C7.72866 35.143 7.9829 34.9841 8.26538 34.9576L22.7004 33.2362C23.0394 33.1833 23.3501 33.3422 23.5479 33.607C23.7456 33.8718 23.7456 34.2161 23.6044 34.4809L21.7965 37.6059C21.5705 38.0032 21.0055 38.1621 20.5818 37.9502C20.158 37.7383 19.9885 37.2087 20.2145 36.8114L21.175 35.1165L9.73431 36.4936L14.8191 46.2129L15.6383 44.7563C15.8643 44.3591 16.4292 44.2002 16.853 44.4121C17.2767 44.6239 17.4462 45.1536 17.2202 45.5508L15.5818 48.4375C15.4123 48.7023 15.1015 48.8612 14.7908 48.8612Z" fill="#FA304D"/>
</g>
<defs>
<filter id="filter0_d" x="0" y="0" width="61.3333" height="58" filterUnits="userSpaceOnUse" color-interpolation-filters="sRGB">
<feFlood flood-opacity="0" result="BackgroundImageFix"/>
<feColorMatrix in="SourceAlpha" type="matrix" values="0 0 0 0 0 0 0 0 0 0 0 0 0 0 0 0 0 0 127 0"/>
<feOffset dy="4"/>
<feGaussianBlur stdDeviation="2"/>
<feColorMatrix type="matrix" values="0 0 0 0 0 0 0 0 0 0 0 0 0 0 0 0 0 0 0.15 0"/>
<feBlend mode="normal" in2="BackgroundImageFix" result="effect1_dropShadow"/>
<feBlend mode="normal" in="SourceGraphic" in2="effect1_dropShadow" result="shape"/>
</filter>
<clipPath id="clip0">
<rect width="53.3333" height="50" fill="white" transform="translate(4)"/>
</clipPath>
</defs>
</svg>
