<svg width="21" height="26" viewBox="0 0 21 26" fill="none" xmlns="http://www.w3.org/2000/svg">
<path d="M17.9688 0.5H2.86458C1.28255 0.5 0 1.78255 0 3.36458V22.6354C0 24.2174 1.28255 25.5 2.86458 25.5H17.9688C19.5508 25.5 20.8333 24.2174 20.8333 22.6354V3.36458C20.8333 1.78255 19.5508 0.5 17.9688 0.5ZM8.10547 19.9987C8.41146 20.3047 8.41146 20.7995 8.10547 21.1055C7.95573 21.2552 7.75391 21.3333 7.55208 21.3333C7.35026 21.3333 7.15495 21.2552 6.9987 21.1055L6.25 20.3568L5.5013 21.1055C5.35156 21.2552 5.14974 21.3333 4.94792 21.3333C4.74609 21.3333 4.55078 21.2552 4.39453 21.1055C4.08854 20.7995 4.08854 20.3047 4.39453 19.9987L5.14323 19.25L4.39453 18.5013C4.08854 18.1953 4.08854 17.7005 4.39453 17.3945C4.70052 17.0885 5.19531 17.0885 5.5013 17.3945L6.25 18.1432L6.9987 17.3945C7.30469 17.0885 7.79948 17.0885 8.10547 17.3945C8.41146 17.7005 8.41146 18.1953 8.10547 18.5013L7.35677 19.25L8.10547 19.9987ZM7.55208 13.7812H7.03125V14.3021C7.03125 14.7318 6.67969 15.0833 6.25 15.0833C5.82031 15.0833 5.46875 14.7318 5.46875 14.3021V13.7812H4.94792C4.51823 13.7812 4.16667 13.4297 4.16667 13C4.16667 12.5703 4.51823 12.2188 4.94792 12.2188H5.46875V11.6979C5.46875 11.2682 5.82031 10.9167 6.25 10.9167C6.67969 10.9167 7.03125 11.2682 7.03125 11.6979V12.2188H7.55208C7.98177 12.2188 8.33333 12.5703 8.33333 13C8.33333 13.4297 7.98177 13.7812 7.55208 13.7812ZM15.8854 21.3333H13.2813C12.8516 21.3333 12.5 20.9818 12.5 20.5521C12.5 20.1224 12.8516 19.7708 13.2813 19.7708H15.8854C16.3151 19.7708 16.6667 20.1224 16.6667 20.5521C16.6667 20.9818 16.3151 21.3333 15.8854 21.3333ZM15.8854 18.7292H13.2813C12.8516 18.7292 12.5 18.3776 12.5 17.9479C12.5 17.5182 12.8516 17.1667 13.2813 17.1667H15.8854C16.3151 17.1667 16.6667 17.5182 16.6667 17.9479C16.6667 18.3776 16.3151 18.7292 15.8854 18.7292ZM15.8854 14.0417H13.2813C12.8516 14.0417 12.5 13.6901 12.5 13.2604C12.5 12.8307 12.8516 12.4792 13.2813 12.4792H15.8854C16.3151 12.4792 16.6667 12.8307 16.6667 13.2604C16.6667 13.6901 16.3151 14.0417 15.8854 14.0417ZM17.7083 7.01042C17.7083 8.01302 16.888 8.83333 15.8854 8.83333H4.94792C3.94531 8.83333 3.125 8.01302 3.125 7.01042V5.44792C3.125 4.44531 3.94531 3.625 4.94792 3.625H15.8854C16.888 3.625 17.7083 4.44531 17.7083 5.44792V7.01042Z" fill="white"/>
</svg>
