<svg width="24" height="24" viewBox="0 0 24 24" fill="none" xmlns="http://www.w3.org/2000/svg">
<path d="M8.85287 13.3707C8.85287 13.0779 8.60594 12.8389 8.30344 12.8389H6.39587C6.09337 12.8389 5.84644 13.0779 5.84644 13.3707V15.217C5.84644 15.5098 6.09337 15.7488 6.39587 15.7488H8.30344C8.60594 15.7488 8.85287 15.5098 8.85287 15.217V13.3707Z" fill="white"/>
<path d="M13.6246 13.3707C13.6246 13.0779 13.3777 12.8389 13.0752 12.8389H11.1676C10.8651 12.8389 10.6182 13.0779 10.6182 13.3707V15.217C10.6182 15.5098 10.8651 15.7488 11.1676 15.7488H13.0752C13.3777 15.7488 13.6246 15.5098 13.6246 15.217V13.3707Z" fill="white"/>
<path d="M18.3966 13.3707C18.3966 13.0779 18.1496 12.8389 17.8471 12.8389H15.9396C15.6371 12.8389 15.3901 13.0779 15.3901 13.3707V15.217C15.3901 15.5098 15.6371 15.7488 15.9396 15.7488H17.8471C18.1496 15.7488 18.3966 15.5098 18.3966 15.217V13.3707Z" fill="white"/>
<path d="M8.85287 17.9957C8.85287 17.7029 8.60594 17.4639 8.30344 17.4639H6.39587C6.09337 17.4639 5.84644 17.7029 5.84644 17.9957V19.842C5.84644 20.1348 6.09337 20.3738 6.39587 20.3738H8.30344C8.60594 20.3738 8.85287 20.1348 8.85287 19.842V17.9957Z" fill="white"/>
<path d="M13.6246 17.9957C13.6246 17.7029 13.3777 17.4639 13.0752 17.4639H11.1676C10.8651 17.4639 10.6182 17.7029 10.6182 17.9957V19.842C10.6182 20.1348 10.8651 20.3738 11.1676 20.3738H13.0752C13.3777 20.3738 13.6246 20.1348 13.6246 19.842V17.9957Z" fill="white"/>
<path d="M18.3966 17.9954C18.3966 17.7026 18.1496 17.4636 17.8471 17.4636H15.9396C15.6371 17.4636 15.3901 17.7026 15.3901 17.9954V19.8418C15.3901 20.1346 15.6371 20.3736 15.9396 20.3736H17.8471C18.1496 20.3736 18.3966 20.1346 18.3966 19.8418V17.9954Z" fill="white"/>
<path d="M21.8105 3.09935V5.91967C21.8105 7.19837 20.7425 8.22611 19.4214 8.22611H17.915C16.5939 8.22611 15.5136 7.19837 15.5136 5.91967V3.0874H8.72905V5.91967C8.72905 7.19837 7.64254 8.22611 6.32761 8.22611H4.8213C3.50637 8.22611 2.4322 7.19837 2.4322 5.91967V3.09935C1.27778 3.1352 0.333252 4.05539 0.333252 5.19069V21.7302C0.333252 22.8834 1.30247 23.8335 2.49394 23.8335H21.7487C22.9402 23.8335 23.9094 22.8834 23.9094 21.7302V5.19069C23.9094 4.05539 22.9587 3.12923 21.8105 3.09935ZM21.1067 20.7024C21.1067 21.2043 20.6869 21.6047 20.1745 21.6047H4.02494C3.50637 21.6047 3.09275 21.1984 3.09275 20.7024V12.1578C3.09275 11.6559 3.51254 11.2556 4.02494 11.2556H20.1745C20.6931 11.2556 21.1067 11.6619 21.1067 12.1578V20.7024V20.7024Z" fill="white"/>
<path d="M4.8152 6.71426H6.30299C6.75365 6.71426 7.12405 6.35574 7.12405 5.91955V1.29471C7.12405 0.85254 6.75365 0.5 6.30299 0.5H4.8152C4.36454 0.5 3.99414 0.85254 3.99414 1.29471V5.91955C3.99414 6.35574 4.35837 6.71426 4.8152 6.71426Z" fill="white"/>
<path d="M17.8967 6.71426H19.3845C19.8352 6.71426 20.2056 6.36172 20.2056 5.91955V1.29471C20.2056 0.858515 19.8414 0.5 19.3845 0.5H17.8967C17.4461 0.5 17.0757 0.85254 17.0757 1.29471V5.91955C17.0757 6.35574 17.4461 6.71426 17.8967 6.71426Z" fill="white"/>
</svg>
