<svg width="52" height="44" viewBox="0 0 52 44" fill="none" xmlns="http://www.w3.org/2000/svg">
<g clip-path="url(#clip0)">
<path d="M50.6489 36.7644H1.17333C0.586667 36.7644 0 36.3733 0 35.5911V1.17333C0 0.391111 0.391111 0 1.17333 0H50.6489C51.2355 0 51.8222 0.391111 51.8222 1.17333V35.7867C51.8222 36.3733 51.2355 36.7644 50.6489 36.7644Z" fill="#9FA3B4"/>
<path d="M48.8891 3.12891H2.93359V26.9867H48.8891V3.12891Z" fill="#46DEDE"/>
<path d="M33.4406 36.7646H18.3828V43.4135H33.4406V36.7646Z" fill="#CED2E1"/>
<mask id="mask0" mask-type="alpha" maskUnits="userSpaceOnUse" x="18" y="36" width="16" height="10">
<path d="M18.3828 36.7646V45.3691C21.9028 37.5469 33.4406 36.7646 33.4406 36.7646H18.3828Z" fill="url(#paint0_linear)"/>
</mask>
<g mask="url(#mask0)">
<path d="M18.3828 36.7646V43.4135C21.9028 35.5913 33.4406 36.7646 33.4406 36.7646H18.3828Z" fill="#B0B5CA"/>
</g>
<path d="M19.7262 16.6751H17.8089C17.5958 16.6751 17.3828 16.4621 17.3828 16.2491V10.7102C17.3828 10.4972 17.5958 10.2842 17.8089 10.2842H19.7262V16.6751Z" fill="#9FA3B4"/>
<path d="M25.4779 17.7404H20.3651C19.726 17.7404 19.0869 17.1013 19.0869 16.4622V10.7103C19.0869 10.0712 19.726 9.43213 20.3651 9.43213H25.4779V17.7404Z" fill="white"/>
<path d="M25.9038 25.6224H24.1995C23.7735 25.6224 23.5604 25.4094 23.3474 24.9833L20.791 17.7402H25.0516L26.5429 24.7703C26.7559 25.1963 26.3298 25.6224 25.9038 25.6224Z" fill="white"/>
<path d="M25.4785 9.43197V17.5272L32.9346 22.0008C33.3607 22.2139 33.9998 22.0008 33.9998 21.3617V5.5974C33.9998 4.9583 33.3607 4.74527 32.9346 4.9583L25.4785 9.43197Z" fill="#488DF1"/>
<mask id="mask1" mask-type="alpha" maskUnits="userSpaceOnUse" x="20" y="17" width="7" height="9">
<path d="M26.3298 25.1963H24.4126C24.1995 25.1963 23.9865 24.9833 23.9865 24.9833L21.6431 17.7402H20.791L23.3474 25.1963C23.5604 25.6224 23.7735 25.8354 24.1995 25.8354H25.9038C26.3298 25.8354 26.5429 25.6224 26.7559 25.1963C26.5429 25.1963 26.3298 25.1963 26.3298 25.1963Z" fill="url(#paint1_linear)"/>
</mask>
<g mask="url(#mask1)">
</g>
<path d="M38.5238 43.9997H13.1016V43.4131C13.1016 42.6309 13.8838 41.8486 14.666 41.8486H37.1549C37.9371 41.8486 38.7193 42.6309 38.7193 43.4131V43.9997H38.5238Z" fill="#B0B5CA"/>
<path d="M0 30H52V36C52 36.5523 51.5523 37 51 37H1C0.447716 37 0 36.5523 0 36V30Z" fill="white"/>
</g>
<defs>
<linearGradient id="paint0_linear" x1="21.0394" y1="36.2126" x2="28.6342" y2="43.9323" gradientUnits="userSpaceOnUse">
<stop stop-color="white"/>
<stop offset="0.999"/>
</linearGradient>
<linearGradient id="paint1_linear" x1="19.7868" y1="25.3791" x2="24.9509" y2="20.1852" gradientUnits="userSpaceOnUse">
<stop stop-color="white"/>
<stop offset="0.2129" stop-color="#B6B6B6"/>
<stop offset="0.4245" stop-color="#757575"/>
<stop offset="0.6147" stop-color="#434343"/>
<stop offset="0.7797" stop-color="#1E1E1E"/>
<stop offset="0.9133" stop-color="#080808"/>
<stop offset="0.9987"/>
</linearGradient>
<clipPath id="clip0">
<rect width="51.8222" height="44" fill="white"/>
</clipPath>
</defs>
</svg>
