<svg width="43" height="45" viewBox="0 0 43 45" fill="none" xmlns="http://www.w3.org/2000/svg">
<g clip-path="url(#clip0)">
<path d="M30.8546 38.1328C29.5466 38.1328 28.4812 37.0674 28.4812 35.7593V32.1939C28.4812 31.5399 27.9538 31.002 27.2892 31.002H7.23648L4.74703 33.3859H1.19218C0.865173 33.3859 0.569814 33.523 0.358843 33.734C0.147873 33.945 0.0107422 34.2404 0.0107422 34.5674C0.0107422 37.8374 2.66897 40.5062 5.93901 40.5062H30.8652C31.5192 40.5062 32.0572 39.9787 32.0572 39.3142C32.0466 38.6602 31.5086 38.1328 30.8546 38.1328Z" fill="#CED2E1"/>
<path d="M34.4201 0H5.93905C5.2745 0 4.74707 0.527426 4.74707 1.19198V33.3966H26.1078V36.4662C26.1078 38.9979 28.6606 40.5169 30.8547 40.5169C33.4707 40.5169 35.6015 38.3861 35.6015 35.77V1.19198C35.6015 0.527426 35.0741 0 34.4201 0Z" fill="white"/>
<path d="M24.4401 7.96402C24.4401 8.5231 23.9865 8.96613 23.438 8.96613H11.381C10.8219 8.96613 10.3789 8.51255 10.3789 7.96402C10.3789 7.4155 10.8325 6.96191 11.381 6.96191H23.438C23.997 6.96191 24.4401 7.4155 24.4401 7.96402Z" fill="#9FA3B4"/>
<path d="M17.4159 12.9852H11.3927C10.8337 12.9852 10.3906 12.5316 10.3906 11.9831C10.3906 11.424 10.8442 10.981 11.3927 10.981H17.4159C17.975 10.981 18.4181 11.4345 18.4181 11.9831C18.4181 12.5421 17.9645 12.9852 17.4159 12.9852Z" fill="#9FA3B4"/>
<path d="M17.4159 17.0252H11.3927C10.8337 17.0252 10.3906 16.5716 10.3906 16.0231C10.3906 15.4746 10.8442 15.021 11.3927 15.021H17.4159C17.975 15.021 18.4181 15.4746 18.4181 16.0231C18.4181 16.5716 17.9645 17.0252 17.4159 17.0252Z" fill="#9FA3B4"/>
<path d="M17.4159 21.0335H11.3927C10.8337 21.0335 10.3906 20.5799 10.3906 20.0314C10.3906 19.4829 10.8442 19.0293 11.3927 19.0293H17.4159C17.975 19.0293 18.4181 19.4829 18.4181 20.0314C18.4181 20.5799 17.9645 21.0335 17.4159 21.0335Z" fill="#9FA3B4"/>
<path d="M17.4159 24.8103H11.3927C10.8337 24.8103 10.3906 24.3568 10.3906 23.8082C10.3906 23.2597 10.8442 22.8062 11.3927 22.8062H17.4159C17.975 22.8062 18.4181 23.2597 18.4181 23.8082C18.4181 24.3568 17.9645 24.8103 17.4159 24.8103Z" fill="#9FA3B4"/>
<path d="M23.2919 12.9852H17.2687C16.7096 12.9852 16.2666 12.5316 16.2666 11.9831C16.2666 11.424 16.7202 10.981 17.2687 10.981H23.2919C23.851 10.981 24.294 11.4345 24.294 11.9831C24.294 12.5421 23.851 12.9852 23.2919 12.9852Z" fill="#9FA3B4"/>
<path d="M22.9335 17.0252H16.9103C16.3512 17.0252 15.9082 16.5716 15.9082 16.0231C15.9082 15.4746 16.3618 15.021 16.9103 15.021H22.9335C23.4926 15.021 23.9356 15.4746 23.9356 16.0231C23.9356 16.5716 23.4926 17.0252 22.9335 17.0252Z" fill="#9FA3B4"/>
<path d="M26.5927 17.0252H20.5695C20.0104 17.0252 19.5674 16.5716 19.5674 16.0231C19.5674 15.4746 20.021 15.021 20.5695 15.021H26.5927C27.1518 15.021 27.5948 15.4746 27.5948 16.0231C27.5948 16.5716 27.1518 17.0252 26.5927 17.0252Z" fill="#9FA3B4"/>
<path d="M28.1972 8.96613H22.174C21.6149 8.96613 21.1719 8.51255 21.1719 7.96402C21.1719 7.4155 21.6255 6.96191 22.174 6.96191H28.1972C28.7562 6.96191 29.1993 7.4155 29.1993 7.96402C29.1993 8.51255 28.7562 8.96613 28.1972 8.96613Z" fill="#9FA3B4"/>
<path d="M31.4674 17.8057C34.4209 20.2635 38.3239 21.7825 42.6066 21.7825V29.5356C42.6066 36.5187 38.0074 42.4787 31.4674 45.0103C24.9273 42.4787 20.3281 36.5187 20.3281 29.5356V21.7825C24.6214 21.7719 28.5138 20.2635 31.4674 17.8057Z" fill="#488DF1"/>
<path opacity="0.1" d="M31.4654 43.5762C28.6489 42.3948 26.2544 40.5277 24.5139 38.1543C22.6363 35.6015 21.6553 32.6163 21.6553 29.5256V23.0488C25.2312 22.8062 28.6384 21.5615 31.4759 19.4834C34.3029 21.572 37.7207 22.8062 41.2966 23.0488V29.5256C41.2966 32.6163 40.305 35.6015 38.438 38.1543C36.6869 40.5277 34.2818 42.3948 31.4654 43.5762Z" fill="white"/>
<path d="M29.8728 35.4326L26.2441 31.7934L27.4889 30.5592L29.8728 32.9537L35.453 27.3735L36.6977 28.6183L29.8728 35.4326Z" fill="white"/>
</g>
<defs>
<clipPath id="clip0">
<rect width="42.6055" height="45" fill="white"/>
</clipPath>
</defs>
</svg>
