<svg width="56" height="47" viewBox="0 0 56 47" fill="none" xmlns="http://www.w3.org/2000/svg">
<path d="M49.7754 0.47168L55.808 0.943203L52.5763 6.36572L49.7754 0.47168Z" fill="#488DF1"/>
<path d="M53.3065 1.27776L32.3691 14.4971L33.0418 16.1825L53.9791 2.96323L53.3065 1.27776Z" fill="#488DF1"/>
<path d="M15.4856 2.41619L14.7754 4.07715L32.4371 16.0261L33.1473 14.3651L15.4856 2.41619Z" fill="#488DF1"/>
<path d="M14.7214 2.33743L2.49219 11.9746L3.28821 13.5728L15.5175 3.93561L14.7214 2.33743Z" fill="#488DF1"/>
<path d="M36.6323 15.3232C36.6323 17.2094 35.3396 18.624 33.6159 18.624C31.8923 18.624 30.5996 17.2094 30.5996 15.3232C30.5996 13.4371 31.8923 12.0225 33.6159 12.0225C35.3396 12.0225 36.6323 13.4371 36.6323 15.3232Z" fill="#488DF1"/>
<path d="M17.9926 3.30054C17.9926 5.18656 16.6999 6.60107 14.9763 6.60107C13.2527 6.60107 11.96 5.18656 11.96 3.30054C12.1754 1.41452 13.4681 0 14.9763 0C16.6999 0 17.9926 1.41452 17.9926 3.30054Z" fill="#488DF1"/>
<path d="M5.81723 12.9657C5.81723 14.8518 4.52451 16.2664 2.80089 16.2664C1.29272 16.0306 0 14.616 0 12.9657C0 11.0796 1.29272 9.66504 3.01634 9.66504C4.52451 9.66504 5.81723 11.0796 5.81723 12.9657Z" fill="#488DF1"/>
<path d="M9.00098 25.6958H4.09473V40.7837H9.00098V25.6958Z" fill="#9FA3B4"/>
<path d="M26.9072 22.3896H22.001V40.6763H26.9072V22.3896Z" fill="#9FA3B4"/>
<path d="M35.9072 26.6543H31.001V40.6758H35.9072V26.6543Z" fill="#9FA3B4"/>
<path d="M44.9072 20.2578H40.001V40.6763H44.9072V20.2578Z" fill="#9FA3B4"/>
<path d="M54.001 13.8604H49.001V40.5147H54.001V13.8604Z" fill="#9FA3B4"/>
<path d="M18.001 14.9268H12.6963V41.0195H18.001V14.9268Z" fill="#9FA3B4"/>
<path d="M54 44.084H1.29297V46.6772H54V44.084Z" fill="#9FA3B4"/>
</svg>
