<svg width="45" height="45" viewBox="0 0 45 45" fill="none" xmlns="http://www.w3.org/2000/svg">
<path d="M24.5234 29.0922L21.7425 26.8947C21.2953 26.5447 20.6535 26.6225 20.3035 27.0503C19.9534 27.4976 20.0312 28.1393 20.4785 28.4894L20.5757 28.5672C18.4366 27.8865 16.8225 26.1558 16.2974 23.9972C15.7724 21.8191 16.4141 19.5438 17.9893 17.9686C18.9228 17.0157 17.5031 15.5961 16.5502 16.5296C14.3139 18.766 13.5165 22.0525 14.4889 25.0667C15.4612 28.081 18.0088 30.2785 21.1202 30.8035L20.4785 31.3092C20.0312 31.6592 19.9534 32.301 20.3035 32.7482C20.6535 33.1955 21.2953 33.2733 21.7425 32.9038L24.5234 30.7063C25.0485 30.2785 25.0485 29.5006 24.5234 29.0922Z" fill="#488DF1"/>
<path d="M23.88 14.1963L24.5218 13.6907C24.969 13.3406 25.0468 12.6989 24.6968 12.2516C24.3467 11.8043 23.705 11.7266 23.2577 12.0961L20.4768 14.2935C19.9517 14.7019 19.9517 15.4798 20.4768 15.8882L23.2577 18.0857C23.705 18.4357 24.3467 18.3579 24.6968 17.9301C25.0468 17.4828 24.969 16.8411 24.5218 16.491L24.4245 16.4133C26.5637 17.0939 28.1778 18.8247 28.7028 20.9833C29.2279 23.1613 28.5861 25.4366 27.0109 27.0118C26.0386 27.9841 27.4971 29.4232 28.45 28.4508C30.6864 26.2145 31.4837 22.9279 30.5114 19.9137C29.5585 16.9189 27.0109 14.7019 23.88 14.1963Z" fill="#46DEDE"/>
<path d="M45 25.5726V19.4274H40.1188C39.6716 16.841 38.6409 14.3712 37.1435 12.2321L40.605 8.77053L36.2489 4.41443L32.7874 7.87597C30.6288 6.35912 28.1785 5.34788 25.5921 4.90061V0H19.4274V4.88116C16.841 5.32844 14.3712 6.35912 12.2321 7.85653L8.77053 4.41443L4.41443 8.77053L7.87597 12.2321C6.35912 14.3907 5.34788 16.841 4.90061 19.4274H0V25.5726H4.88116C5.32844 28.159 6.35912 30.6288 7.85653 32.7679L4.39499 36.2295L8.75108 40.5856L12.2126 37.124C14.3712 38.6409 16.8215 39.6521 19.408 40.0994V44.9806H25.5532V40.0994C28.1396 39.6521 30.6093 38.6214 32.7485 37.124L36.21 40.5856L40.5661 36.2295L37.1046 32.7679C38.6214 30.6093 39.6327 28.159 40.0799 25.5726H45ZM22.5 35.2377C17.3466 35.2377 12.6988 32.1262 10.7347 27.3812C8.77053 22.6167 9.85955 17.1521 13.4961 13.4961C17.1327 9.85955 22.6167 8.77053 27.3812 10.7347C32.1456 12.6988 35.2377 17.3466 35.2377 22.5C35.2377 29.5398 29.5398 35.2377 22.5 35.2377Z" fill="#9FA3B4"/>
</svg>
