<svg width="44" height="43" viewBox="0 0 44 43" fill="none" xmlns="http://www.w3.org/2000/svg">
<g clip-path="url(#clip0)">
<path d="M43.1686 3.79974C43.1686 1.69752 41.4711 0 39.3801 0H3.79974C1.69752 0 0 1.69752 0 3.79974V11.388L0.843137 12.2311H42.3255C42.6515 11.9051 42.8426 11.714 43.1686 11.388V3.79974Z" fill="#9FA3B4"/>
<path d="M36.7619 5.05859H29.1736C28.4767 5.05859 27.9033 5.62069 27.9033 6.32892C27.9033 7.03716 28.4654 7.59925 29.1736 7.59925H36.7619C37.4589 7.59925 38.0322 7.03716 38.0322 6.32892C38.0322 5.62069 37.4589 5.05859 36.7619 5.05859Z" fill="#F5F6F8"/>
<path d="M24 6C24 7.09735 23.115 8 22 8C20.885 8 20 7.11504 20 6C20 4.88496 20.9027 4 22 4C23.0973 4 24 4.88496 24 6Z" fill="#F03800"/>
<path d="M16 6C16 7.09735 15.115 8 14 8C12.885 8 12 7.11504 12 6C12 4.88496 12.9204 4 14.0177 4C15.115 4 16 4.88496 16 6Z" fill="#FDBF00"/>
<path d="M8 6C8 7.09735 7.11111 8 5.99111 8C4.88889 8 4 7.11504 4 6C4 4.88496 4.90667 4 6.00889 4C7.11111 4 8 4.88496 8 6Z" fill="#37D742"/>
<path d="M0 11.3877V39.2112C0 41.3022 1.69752 43.011 3.79974 43.011H39.3801C41.4711 43.011 43.1798 41.3134 43.1798 39.2112V11.3877H0Z" fill="white"/>
<path d="M25.8787 16.5481C25.2379 16.2783 24.496 16.5705 24.2149 17.2113L16.6267 34.9172C16.3569 35.558 16.6492 36.3 17.2899 36.581C17.9307 36.8508 18.6727 36.5585 18.9537 35.9177L26.542 18.2119C26.8118 17.5598 26.5195 16.8179 25.8787 16.5481Z" fill="#488DF1"/>
<path d="M26.5416 18.2005L21.584 29.7683V23.3493L24.2146 17.2112C24.4956 16.5704 25.2376 16.2669 25.8784 16.5479C26.5191 16.8177 26.8114 17.5597 26.5416 18.2005Z" fill="#488DF1"/>
<path d="M14.7824 30.634L9.68984 26.5644L14.7824 22.4949C15.3333 22.0564 15.4119 21.2583 14.9848 20.7187C14.5463 20.1678 13.7482 20.0891 13.2085 20.5163L6.87938 25.5751C6.24984 26.081 6.24984 27.0478 6.87938 27.5537L13.2085 32.6125C13.7594 33.051 14.5463 32.961 14.9848 32.4102C15.4232 31.8593 15.3333 31.0612 14.7824 30.634Z" fill="#488DF1"/>
<path d="M36.2885 25.575L29.9594 20.5162C29.4085 20.0777 28.6216 20.1677 28.1831 20.7185C27.7447 21.2694 27.8346 22.0563 28.3855 22.4947L33.4781 26.5643L28.3855 30.6338C27.8346 31.0722 27.756 31.8704 28.1831 32.41C28.6216 32.9608 29.4197 33.0395 29.9594 32.6123L36.2885 27.5535C36.9181 27.0364 36.9181 26.0809 36.2885 25.575Z" fill="#488DF1"/>
</g>
<defs>
<clipPath id="clip0">
<rect width="43.1686" height="43" fill="white"/>
</clipPath>
</defs>
</svg>
