<svg width="41" height="45" viewBox="0 0 41 45" fill="none" xmlns="http://www.w3.org/2000/svg">
<g clip-path="url(#clip0)">
<path d="M9.30859 21.7266L8.18359 21.1641C7.91992 21.0322 7.75293 20.7598 7.75293 20.4697V17.5518C7.75293 17.2617 7.91992 16.9893 8.18359 16.8574L9.30859 16.2949V21.7266Z" fill="#488DF1"/>
<path d="M27.1582 31.8076V26.376H13.1924V31.8076L20.1709 38.0215L27.1582 31.8076Z" fill="#E6AF78"/>
<path d="M37.9512 34.3477L28.3535 32.0889C28.2129 32.0537 28.0723 32.001 27.9492 31.9307L20.1709 36.4658L12.7002 31.7109C12.5068 31.8955 12.2695 32.0273 11.9971 32.0889L2.39062 34.3477C0.993164 34.6816 0 35.9297 0 37.3711V43.4443C0 44.3057 0.694336 45 1.55566 45H38.7949C39.6562 45 40.3506 44.3057 40.3506 43.4443V37.3711C40.3418 35.9297 39.3486 34.6816 37.9512 34.3477Z" fill="#8EFBFB"/>
<path d="M10.0889 8.53418L10.7656 23.4053C10.8271 24.7939 11.5127 26.0859 12.6201 26.9209L15.8281 29.3291C16.6367 29.9355 17.6123 30.2607 18.623 30.2607H21.7256C22.7363 30.2607 23.7119 29.9355 24.5205 29.3291L27.7285 26.9209C28.8447 26.0859 29.5215 24.7939 29.583 23.4053L30.2598 8.53418H10.0889Z" fill="#F0C087"/>
<path d="M5.69531 39.9639L0.667969 35.4463C0.246094 35.9824 0 36.6504 0 37.3711V43.4443C0 44.3057 0.694336 45 1.55566 45H6.9873V42.8467C6.97852 41.748 6.5127 40.7021 5.69531 39.9639Z" fill="#46DEDE"/>
<path d="M34.6465 39.9639L39.6738 35.4463C40.0957 35.9824 40.3418 36.6504 40.3418 37.3711V43.4443C40.3418 44.3057 39.6475 45 38.7861 45H33.3545V42.8467C33.3633 41.748 33.8291 40.7021 34.6465 39.9639Z" fill="#46DEDE"/>
<path d="M22.1133 45H18.2285L18.7207 38.0215H21.6299L22.1133 45Z" fill="#488DF1"/>
<path d="M22.1133 36.4658H18.2373V37.9248C18.2373 38.4082 18.624 38.7949 19.1074 38.7949H21.252C21.7354 38.7949 22.1221 38.4082 22.1221 37.9248L22.1133 36.4658Z" fill="#488DF1"/>
<path d="M13.0781 30.085L20.1709 36.4659C20.1709 36.4659 18.1846 37.4678 15.7324 39.4893C15.2227 39.9024 14.458 39.7354 14.1943 39.1377L10.8633 31.8077L11.918 30.2256C12.1816 29.8389 12.7266 29.7686 13.0781 30.085Z" fill="#46DEDE"/>
<path d="M27.2637 30.085L20.1709 36.4659C20.1709 36.4659 22.1572 37.4678 24.6094 39.4893C25.1191 39.9024 25.8838 39.7354 26.1475 39.1377L29.4785 31.8077L28.4238 30.2256C28.1689 29.8389 27.6152 29.7686 27.2637 30.085Z" fill="#46DEDE"/>
<path d="M24.873 3.39274L25.6025 8.53435C28.9248 9.20231 29.3994 14.4054 29.4697 15.8996C29.4785 16.172 29.5664 16.4269 29.7158 16.6554L30.9814 18.6242C30.9814 18.6242 30.5508 15.3722 32.5371 13.1925C32.5371 13.1925 33.2139 0.290206 24.873 3.39274Z" fill="#785550"/>
<path d="M10.8282 2.00409L11.9795 2.78632C6.79398 6.61835 7.76077 13.1838 7.76077 13.1838C9.31644 14.7394 9.31644 18.6154 9.31644 18.6154L10.8721 17.0598C10.8721 17.0598 10.2744 12.5773 13.2012 10.8547C15.917 9.25507 18.2901 10.0812 20.7159 10.0812C27.211 10.0812 29.0303 7.62909 28.7139 4.6496C28.5469 3.10272 26.1914 -0.105285 20.1797 -0.00860509C17.7451 0.0441293 13.1924 0.78241 10.8282 2.00409Z" fill="#694B4B"/>
<path d="M10.4775 22.5H9.31738C8.88672 22.5 8.54395 22.1484 8.54395 21.7266V16.2949C8.54395 15.8643 8.89551 15.5215 9.31738 15.5215H10.4775C10.6885 15.5215 10.8643 15.6973 10.8643 15.9082V22.1133C10.8643 22.3242 10.6885 22.5 10.4775 22.5Z" fill="#488DF1"/>
<path d="M23.2725 26.9648V25.8047C28.5195 25.8047 29.6709 22.8604 29.6709 21.7354H30.8311C30.8398 23.1855 29.4775 26.9648 23.2725 26.9648Z" fill="#9FA3B4"/>
<path d="M23.2744 27.1582H22.501C22.0703 27.1582 21.7275 26.8066 21.7275 26.3848C21.7275 25.9541 22.0791 25.6113 22.501 25.6113H23.2744C23.7051 25.6113 24.0479 25.9629 24.0479 26.3848C24.0479 26.8066 23.7051 27.1582 23.2744 27.1582Z" fill="#488DF1"/>
<path d="M31.0342 21.7266L32.1592 21.1641C32.4229 21.0322 32.5898 20.7598 32.5898 20.4697V17.5518C32.5898 17.2617 32.4229 16.9893 32.1592 16.8574L31.0342 16.2949V21.7266Z" fill="#488DF1"/>
<path d="M29.8652 22.5H31.0254C31.4561 22.5 31.7988 22.1484 31.7988 21.7266V16.2949C31.7988 15.8643 31.4473 15.5215 31.0254 15.5215H29.8652C29.6543 15.5215 29.4785 15.6973 29.4785 15.9082V22.1133C29.4785 22.3242 29.6543 22.5 29.8652 22.5Z" fill="#488DF1"/>
<path d="M30.2617 43.4443H24.8301C24.3994 43.4443 24.0566 43.7959 24.0566 44.2178V44.9912H31.0352V44.2178C31.0352 43.7959 30.6836 43.4443 30.2617 43.4443Z" fill="#46DEDE"/>
</g>
<defs>
<clipPath id="clip0">
<rect width="40.3418" height="45" fill="white"/>
</clipPath>
</defs>
</svg>
