<svg width="28" height="17" viewBox="0 0 28 17" fill="none" xmlns="http://www.w3.org/2000/svg">
<g clip-path="url(#clip0)">
<path d="M20.8174 4.45312H7.18197C6.8903 5.64583 5.94759 6.58854 4.75488 6.88021V10.2969C5.94759 10.5885 6.8903 11.5312 7.18197 12.724H20.8174C21.109 11.5312 22.0518 10.5885 23.2445 10.2969V6.88021C22.0518 6.58333 21.1143 5.64583 20.8174 4.45312ZM13.9997 11.9531C12.1455 11.9531 10.6351 10.4427 10.6351 8.58854C10.6351 6.73438 12.1455 5.22396 13.9997 5.22396C15.8538 5.22396 17.3643 6.73438 17.3643 8.58854C17.3643 10.4427 15.8538 11.9531 13.9997 11.9531Z" fill="white"/>
<path d="M26.5415 0.5H1.45817C1.02067 0.5 0.666504 0.854167 0.666504 1.29167V15.8802C0.666504 16.3177 1.02067 16.6719 1.45817 16.6719H26.5363C26.9738 16.6719 27.328 16.3177 27.328 15.8802V1.29167C27.3332 0.854167 26.979 0.5 26.5415 0.5ZM24.8332 10.9948C24.8332 11.4323 24.479 11.7865 24.0415 11.7865C23.0884 11.7865 22.3123 12.5625 22.3123 13.5156C22.3123 13.9531 21.9582 14.3073 21.5207 14.3073H6.48421C6.04671 14.3073 5.69255 13.9531 5.69255 13.5156C5.69255 12.5625 4.9165 11.7865 3.96338 11.7865C3.52588 11.7865 3.17171 11.4323 3.17171 10.9948V6.18229C3.17171 5.74479 3.52588 5.39062 3.96338 5.39062C4.9165 5.39062 5.69255 4.61458 5.69255 3.66146C5.69255 3.22396 6.04671 2.86979 6.48421 2.86979H21.5155C21.953 2.86979 22.3071 3.22396 22.3071 3.66146C22.3071 4.61458 23.0832 5.39062 24.0363 5.39062C24.4738 5.39062 24.828 5.74479 24.828 6.18229L24.8332 10.9948Z" fill="white"/>
<path d="M14 6.80737C13.0208 6.80737 12.2188 7.60425 12.2188 8.58863C12.2188 9.573 13.0156 10.3699 14 10.3699C14.9844 10.3699 15.7812 9.573 15.7812 8.58863C15.7812 7.60425 14.9792 6.80737 14 6.80737Z" fill="white"/>
</g>
<defs>
<clipPath id="clip0">
<rect width="26.6667" height="16.1771" fill="white" transform="translate(0.666504 0.5)"/>
</clipPath>
</defs>
</svg>
