<svg width="54" height="50" viewBox="0 0 54 50" fill="none" xmlns="http://www.w3.org/2000/svg">
<g clip-path="url(#clip0)">
<path d="M26.6665 17.8761C26.1581 17.8761 25.7626 17.5053 25.7626 17.0286V15.4131C25.7626 14.9364 26.1581 14.5657 26.6665 14.5657C27.175 14.5657 27.5705 14.9364 27.5705 15.4131V17.0286C27.5705 17.4788 27.1468 17.8761 26.6665 17.8761Z" fill="#1123FF"/>
<path d="M10.4521 25.8475C9.94362 25.8475 9.54814 25.4767 9.54814 25C9.54814 16.1547 17.2318 8.95127 26.6668 8.95127C30.3673 8.95127 33.8984 10.0371 36.8645 12.1292C37.26 12.3941 37.3447 12.9237 37.0623 13.2945C36.7798 13.6653 36.2148 13.7447 35.8193 13.4799C33.164 11.6261 30.0001 10.6462 26.695 10.6462C18.2487 10.6462 11.3843 17.0816 11.3843 25C11.356 25.4767 10.9606 25.8475 10.4521 25.8475Z" fill="#1123FF"/>
<path d="M26.6666 41.0487C22.966 41.0487 19.435 39.9629 16.4689 37.8708C16.0734 37.6059 15.9886 37.0763 16.2711 36.7055C16.5536 36.3347 17.1186 36.2553 17.5141 36.5201C20.1694 38.3739 23.3333 39.3538 26.6384 39.3538C35.0847 39.3538 41.9491 32.9184 41.9491 25C41.9491 24.5233 42.3446 24.1525 42.853 24.1525C43.3615 24.1525 43.757 24.5233 43.757 25C43.7852 33.8453 36.1016 41.0487 26.6666 41.0487Z" fill="#1123FF"/>
<path d="M0.903955 25.8475C0.39548 25.8475 0 25.4767 0 25C0 11.2023 11.9492 0 26.6667 0C31.9209 0 37.0339 1.43008 41.3842 4.15784C41.8079 4.42267 41.9209 4.92585 41.6384 5.32309C41.3559 5.72034 40.8192 5.82627 40.3955 5.56144C36.3277 3.01907 31.5819 1.69492 26.6667 1.69492C12.9661 1.69492 1.80791 12.1557 1.80791 25C1.80791 25.4767 1.38418 25.8475 0.903955 25.8475Z" fill="#1123FF"/>
<path d="M26.6668 50C21.4125 50 16.2995 48.5699 11.9493 45.8422C11.5255 45.5773 11.4125 45.0742 11.695 44.6769C11.9775 44.2797 12.5142 44.1737 12.938 44.4386C17.0058 46.9809 21.7515 48.3051 26.6668 48.3051C40.3673 48.3051 51.5255 37.8443 51.5255 25C51.5255 24.5233 51.921 24.1525 52.4295 24.1525C52.938 24.1525 53.3334 24.5233 53.3334 25C53.3334 38.7712 41.356 50 26.6668 50Z" fill="#1123FF"/>
<path d="M26.6666 33.8189C23.644 33.8189 21.2146 31.6472 21.2146 28.9989C21.2146 28.5222 21.6101 28.1515 22.1186 28.1515C22.6271 28.1515 23.0225 28.5222 23.0225 28.9989C23.0225 30.7468 24.661 32.1504 26.6949 32.1504C28.7005 32.1504 30.3672 30.7468 30.3672 28.9989C30.3672 27.2511 28.7288 25.8475 26.6949 25.8475C23.6723 25.8475 21.2429 23.6758 21.2429 21.0275C21.2429 18.3528 23.7005 16.2076 26.6949 16.2076C29.7175 16.2076 32.1468 18.3792 32.1468 21.0275C32.1468 21.5042 31.7514 21.875 31.2429 21.875C30.7344 21.875 30.3389 21.5042 30.3389 21.0275C30.3389 19.2797 28.7005 17.8761 26.6666 17.8761C24.661 17.8761 22.9943 19.2797 22.9943 21.0275C22.9943 22.7754 24.6327 24.179 26.6666 24.179C29.6892 24.179 32.1186 26.3506 32.1186 28.9989C32.1186 31.6472 29.661 33.8189 26.6666 33.8189Z" fill="#1123FF"/>
<path d="M26.6665 35.6462C26.1581 35.6462 25.7626 35.2754 25.7626 34.7987V32.9714C25.7626 32.4947 26.1581 32.1239 26.6665 32.1239C27.175 32.1239 27.5705 32.4947 27.5705 32.9714V34.7987C27.5705 35.2754 27.1468 35.6462 26.6665 35.6462Z" fill="#1123FF"/>
<path d="M34.548 16.7638C34.2655 16.7638 33.983 16.6314 33.8135 16.393C33.6157 16.1282 33.6157 15.7839 33.757 15.5191L35.5649 12.3941C35.7909 11.9968 36.3559 11.8379 36.7796 12.0498C37.2033 12.2617 37.3728 12.7913 37.1468 13.1886L36.1864 14.8835L47.6271 13.5064L42.5423 3.78708L41.7231 5.24364C41.4971 5.64089 40.9321 5.79979 40.5084 5.58792C40.0847 5.37606 39.9152 4.8464 40.1412 4.44915L41.8078 1.5625C41.9773 1.29767 42.2598 1.13877 42.627 1.11229C42.966 1.11229 43.2768 1.29767 43.418 1.58898L49.8304 13.8242C49.9717 14.0625 49.9434 14.3538 49.8022 14.5922C49.661 14.8305 49.4067 14.9894 49.1242 15.0159L34.6892 16.7373C34.6045 16.7638 34.5762 16.7638 34.548 16.7638Z" fill="#1123FF"/>
<path d="M10.7908 48.8612C10.4518 48.8612 10.1411 48.6758 9.97161 48.3845L3.55918 36.1494C3.41794 35.911 3.44618 35.6197 3.58743 35.3814C3.72867 35.143 3.98291 34.9841 4.26539 34.9576L18.7004 33.2362C19.0394 33.1833 19.3501 33.3422 19.5479 33.607C19.7456 33.8718 19.7456 34.2161 19.6044 34.4809L17.7965 37.6059C17.5705 38.0032 17.0055 38.1621 16.5818 37.9502C16.158 37.7383 15.9886 37.2087 16.2145 36.8114L17.175 35.1165L5.73432 36.4936L10.8191 46.2129L11.6383 44.7564C11.8643 44.3591 12.4292 44.2002 12.853 44.4121C13.2767 44.6239 13.4462 45.1536 13.2202 45.5508L11.5818 48.4375C11.4123 48.7023 11.1016 48.8612 10.7908 48.8612Z" fill="#1123FF"/>
</g>
<defs>
<clipPath id="clip0">
<rect width="53.3333" height="50" fill="white"/>
</clipPath>
</defs>
</svg>
