<svg width="17" height="30" viewBox="0 0 17 30" fill="none" xmlns="http://www.w3.org/2000/svg">
<path d="M10.2273 12.5H6.13636C5.46136 12.5 4.90909 11.9375 4.90909 11.25C4.90909 10.5625 5.46136 10 6.13636 10H13.9091C15.2591 10 16.3636 8.875 16.3636 7.5C16.3636 6.125 15.2591 5 13.9091 5H10.6364V2.5C10.6364 1.125 9.53182 0 8.18182 0C6.83182 0 5.72727 1.125 5.72727 2.5V5.04167C2.53636 5.25 0 7.9375 0 11.25C0 14.6875 2.76136 17.5 6.13636 17.5H10.2273C10.9023 17.5 11.4545 18.0625 11.4545 18.75C11.4545 19.4375 10.9023 20 10.2273 20H2.45455C1.10455 20 0 21.125 0 22.5C0 23.875 1.10455 25 2.45455 25H5.72727V27.5C5.72727 28.875 6.83182 30 8.18182 30C9.53182 30 10.6364 28.875 10.6364 27.5V24.9583C13.8273 24.7292 16.3636 22.0625 16.3636 18.75C16.3636 15.3125 13.6023 12.5 10.2273 12.5Z" fill="#FF516A"/>
</svg>
