<svg width="30" height="30" viewBox="0 0 30 30" fill="none" xmlns="http://www.w3.org/2000/svg">
<path d="M15.6171 16.9998C14.4999 16.992 13.3827 16.8201 12.3124 16.4764C10.6093 15.9061 9.33587 14.4608 8.99212 12.6952C8.61712 10.8827 9.30462 8.96859 10.8749 7.43734C11.0468 7.27328 11.2187 7.11703 11.3984 6.96859C13.0077 5.61703 15.1796 5.15609 17.2031 5.71859C19.164 6.34359 20.5156 8.13265 20.5781 10.1873C20.6484 11.367 20.2656 12.5311 19.4999 13.4373C18.914 14.1795 17.9531 14.5311 17.0234 14.3436C16.6406 14.2655 16.3124 14.0311 16.1015 13.703C15.914 13.3827 15.8671 12.9998 15.9687 12.6483C16.4062 10.992 16.8515 8.48421 16.8515 8.46078C16.8827 8.28109 17.0077 8.14046 17.1718 8.07796C17.3359 8.01546 17.5312 8.04671 17.664 8.1639C17.8046 8.28109 17.8671 8.46078 17.8359 8.63265C17.8202 8.73421 17.3827 11.2108 16.9296 12.9061C16.8984 12.9998 16.9062 13.1014 16.9531 13.1873C17.0234 13.2811 17.1249 13.3436 17.2421 13.367C17.8124 13.4608 18.3827 13.2342 18.7343 12.7733C19.3281 12.0623 19.6249 11.1561 19.5624 10.2264C19.5156 8.59359 18.4374 7.1639 16.8827 6.6639C15.1874 6.19515 13.3671 6.59359 12.0156 7.73421C11.8515 7.86703 11.6952 8.00765 11.5468 8.15609C10.7734 8.9139 9.53118 10.4842 9.94525 12.4998C10.2265 13.9061 11.2343 15.0623 12.5859 15.5311C14.9296 16.2811 18.2968 16.367 20.0781 14.1639C20.2499 13.953 20.5624 13.9217 20.7734 14.0936C20.9843 14.2655 21.0234 14.578 20.8515 14.7889C19.5781 16.4139 17.5781 16.9998 15.6171 16.9998Z" fill="white"/>
<path d="M13.9058 14.4063C13.3745 14.4141 12.8589 14.2423 12.4448 13.9141C11.4839 13.1485 11.4604 11.8126 11.7261 10.9063C11.8198 10.6016 11.937 10.3126 12.0854 10.0313C12.4604 9.27351 13.062 8.64851 13.8042 8.25007C14.7261 7.77351 15.8589 7.95319 16.5854 8.69538C16.9448 9.09382 17.2182 9.56257 17.3823 10.0704C17.4682 10.3282 17.3354 10.6094 17.0776 10.7032C16.8198 10.7969 16.5386 10.6641 16.4448 10.4063C16.3276 10.0313 16.1323 9.67976 15.8667 9.39069C15.4448 8.95319 14.7808 8.85944 14.2495 9.14851C13.6948 9.46101 13.2417 9.93757 12.9683 10.5157C12.8511 10.7344 12.7573 10.961 12.687 11.1954C12.4917 11.8516 12.5386 12.711 13.0698 13.1407C13.6558 13.6094 14.6479 13.4141 15.2026 12.9298C15.6167 12.5548 15.9761 12.1251 16.2573 11.6407C16.3511 11.4844 16.5229 11.3907 16.7026 11.3985C16.8823 11.4063 17.0464 11.5079 17.1323 11.6641C17.2182 11.8204 17.2104 12.0157 17.1089 12.1719C16.7729 12.7344 16.3511 13.2501 15.8589 13.6876C15.312 14.1407 14.6245 14.3985 13.9058 14.4063Z" fill="white"/>
<path d="M28.5 30.0002H1.5C0.671875 30.0002 0 29.3283 0 28.5002V10.0002C0 9.80484 0.109375 9.63296 0.289062 9.54702C0.460938 9.46109 0.671875 9.49234 0.820312 9.61734L13.0859 19.8127C14.1953 20.7267 15.8047 20.7267 16.9141 19.8127L29.1797 9.61734C29.3281 9.49234 29.5391 9.4689 29.7109 9.54702C29.8906 9.63296 30 9.80484 30 10.0002V28.5002C30 29.3283 29.3281 30.0002 28.5 30.0002ZM1 11.0705V28.508C1 28.7814 1.22656 29.008 1.5 29.008H28.5C28.7734 29.008 29 28.7814 29 28.508V11.0705L17.5547 20.5861C16.0781 21.8127 13.9375 21.8127 12.4531 20.5861L1 11.0705Z" fill="white"/>
<path d="M0.499913 10.5C0.281163 10.5 0.0858506 10.3594 0.0233506 10.1485C-0.0391494 9.93754 0.0311631 9.71097 0.210851 9.58597L4.71085 6.40628C4.93741 6.25003 5.2421 6.30472 5.40616 6.53128C5.56241 6.75785 5.51554 7.06253 5.28898 7.2266L0.788976 10.4141C0.703038 10.4688 0.601476 10.5 0.499913 10.5Z" fill="white"/>
<path d="M29.5002 10.5C29.3987 10.5 29.2971 10.4688 29.2112 10.4063L24.7112 7.21878C24.4924 7.05472 24.4377 6.75003 24.594 6.52347C24.7502 6.29691 25.0627 6.24222 25.2893 6.39847L29.7893 9.58597C29.969 9.71097 30.0393 9.93754 29.9768 10.1485C29.9143 10.3594 29.719 10.5 29.5002 10.5Z" fill="white"/>
<path d="M19.617 3.50006C19.5154 3.50006 19.4138 3.46881 19.3279 3.40631L16.9373 1.71881C15.8279 0.781309 14.2029 0.773496 13.0857 1.69537L10.6638 3.41412C10.5154 3.51568 10.3279 3.53912 10.1638 3.461C9.99977 3.38287 9.89039 3.23443 9.87477 3.05475C9.85914 2.87506 9.93727 2.70318 10.0857 2.60162L12.4763 0.906309C13.9529 -0.304629 16.0779 -0.289004 17.5466 0.929746L19.906 2.60162C20.0857 2.72662 20.156 2.95318 20.0935 3.16412C20.031 3.35943 19.8357 3.50006 19.617 3.50006Z" fill="white"/>
<path d="M0.828493 29.7347C0.617556 29.7347 0.430056 29.6019 0.359743 29.4065C0.289431 29.2112 0.351931 28.9847 0.508181 28.8519L11.9144 19.3753C12.0551 19.2581 12.2426 19.2269 12.4066 19.2894C12.5785 19.3519 12.6957 19.5003 12.7269 19.68C12.7582 19.8597 12.6879 20.0394 12.5472 20.1487L1.14099 29.6253C1.05506 29.6878 0.945681 29.7347 0.828493 29.7347Z" fill="white"/>
<path d="M29.1719 29.7347C29.0547 29.7347 28.9453 29.6956 28.8516 29.6175L17.4453 20.1409C17.3047 20.0237 17.2344 19.844 17.2656 19.6722C17.2969 19.4925 17.4219 19.344 17.5859 19.2815C17.75 19.219 17.9453 19.2503 18.0781 19.3675L29.4844 28.844C29.6484 28.9768 29.7031 29.2034 29.6328 29.3987C29.5703 29.6018 29.3828 29.7347 29.1719 29.7347Z" fill="white"/>
<path d="M25.0002 14.2421C24.7268 14.2421 24.5002 14.0155 24.5002 13.7421V3.50772C24.5002 3.51553 24.4768 3.50772 24.4456 3.49991H5.55493C5.53149 3.49991 5.50806 3.50772 5.49243 3.52335L5.50024 13.7421C5.50024 14.0155 5.27368 14.2421 5.00024 14.2421C4.72681 14.2421 4.50024 14.0155 4.50024 13.7421V3.49991C4.51587 2.9296 4.98462 2.48429 5.55493 2.49991H24.4456C25.0159 2.48429 25.4846 2.9296 25.5002 3.49991V13.7421C25.5002 14.0155 25.2737 14.2421 25.0002 14.2421Z" fill="white"/>
</svg>
