<svg width="20" height="26" viewBox="0 0 20 26" fill="none" xmlns="http://www.w3.org/2000/svg">
<path d="M13.333 0.5V6.75H19.583L13.333 0.5Z" fill="white"/>
<path d="M11.7708 6.75V0.5H2.39575C1.53638 0.5 0.833252 1.20312 0.833252 2.0625V23.9375C0.833252 24.8018 1.53638 25.5 2.39575 25.5H18.0208C18.885 25.5 19.5833 24.8018 19.5833 23.9375V8.3125H13.3333C12.4739 8.3125 11.7708 7.60938 11.7708 6.75ZM6.302 5.28516V4.40625C6.302 3.97656 6.65356 3.625 7.08325 3.625C7.51294 3.625 7.8645 3.97656 7.8645 4.40625V5.28516C8.35278 5.39746 8.81177 5.60254 9.18774 5.91016C9.52466 6.18359 9.57349 6.67188 9.30005 7.00879C9.02661 7.3457 8.53345 7.39453 8.20142 7.12109C7.90845 6.88184 7.50806 6.75 7.08325 6.75C6.23853 6.75 5.52075 7.28711 5.52075 7.92188C5.52075 8.55664 6.23853 9.09375 7.08325 9.09375C8.80688 9.09375 10.2083 10.3193 10.2083 11.8281C10.2083 13.0977 9.20728 14.1572 7.8645 14.4648V15.3438C7.8645 15.7734 7.51294 16.125 7.08325 16.125C6.65356 16.125 6.302 15.7734 6.302 15.3438V14.4648C5.81372 14.3525 5.35474 14.1475 4.97876 13.8398C4.64185 13.5664 4.59302 13.0732 4.86646 12.7412C5.13989 12.4043 5.62817 12.3555 5.96509 12.6289C6.25806 12.8682 6.65845 13 7.08325 13C7.92798 13 8.64575 12.4629 8.64575 11.8281C8.64575 11.1934 7.92798 10.6562 7.08325 10.6562C5.35962 10.6562 3.95825 9.43066 3.95825 7.92188C3.95825 6.65234 4.95923 5.59277 6.302 5.28516ZM15.677 22.375H4.7395C4.30981 22.375 3.95825 22.0234 3.95825 21.5938C3.95825 21.1641 4.30981 20.8125 4.7395 20.8125H15.677C16.1067 20.8125 16.4583 21.1641 16.4583 21.5938C16.4583 22.0234 16.1067 22.375 15.677 22.375ZM15.677 19.25H4.7395C4.30981 19.25 3.95825 18.8984 3.95825 18.4688C3.95825 18.0391 4.30981 17.6875 4.7395 17.6875H15.677C16.1067 17.6875 16.4583 18.0391 16.4583 18.4688C16.4583 18.8984 16.1067 19.25 15.677 19.25ZM15.677 16.125H12.552C12.1223 16.125 11.7708 15.7734 11.7708 15.3438C11.7708 14.9141 12.1223 14.5625 12.552 14.5625H15.677C16.1067 14.5625 16.4583 14.9141 16.4583 15.3438C16.4583 15.7734 16.1067 16.125 15.677 16.125ZM16.4583 12.2188C16.4583 12.6484 16.1067 13 15.677 13H12.552C12.1223 13 11.7708 12.6484 11.7708 12.2188C11.7708 11.7891 12.1223 11.4375 12.552 11.4375H15.677C16.1067 11.4375 16.4583 11.7842 16.4583 12.2188Z" fill="white"/>
</svg>
