<svg width="71" height="15" viewBox="0 0 71 15" fill="none" xmlns="http://www.w3.org/2000/svg">
<path d="M22.5985 4.29906C20.6136 4.29906 19.04 5.79159 19.04 7.86679C19.04 9.85683 20.6136 11.4345 22.5985 11.4345C24.5835 11.4345 26.1571 9.94199 26.1571 7.86679C26.1616 5.71091 24.5879 4.29906 22.5985 4.29906ZM22.5985 9.94647C21.5211 9.94647 20.6136 9.03213 20.6136 7.79059C20.6136 6.54458 21.5256 5.63472 22.5985 5.63472C23.6715 5.63472 24.5835 6.4639 24.5835 7.79059C24.5879 9.03213 23.6759 9.94647 22.5985 9.94647ZM14.9003 4.29906C12.9154 4.29906 11.3417 5.79159 11.3417 7.86679C11.3417 9.85683 12.9154 11.4345 14.9003 11.4345C16.8852 11.4345 18.4588 9.94199 18.4588 7.86679C18.4588 5.71091 16.8852 4.29906 14.9003 4.29906ZM14.9003 9.94647C13.8229 9.94647 12.9153 9.03213 12.9153 7.79059C12.9153 6.54458 13.8273 5.63472 14.9003 5.63472C15.9732 5.63472 16.8852 6.4639 16.8852 7.79059C16.8852 9.03213 15.9777 9.94647 14.9003 9.94647ZM5.70884 5.37924V6.87177H9.26739C9.18245 7.70095 8.85163 8.3643 8.44034 8.78113C7.94411 9.27864 7.11706 9.86131 5.70884 9.86131C3.47358 9.86131 1.81948 8.11778 1.81948 5.87675C1.81948 3.63571 3.55852 1.89219 5.70884 1.89219C6.86671 1.89219 7.7787 2.3897 8.44034 2.97237L9.51774 1.89219C8.61022 1.063 7.44788 0.399658 5.79378 0.399658C2.81194 0.399658 0.24585 2.89169 0.24585 5.87675C0.24585 8.86181 2.81194 11.3538 5.79378 11.3538C7.44788 11.3538 8.61022 10.8563 9.60268 9.77615C10.5951 8.78113 10.926 7.36928 10.926 6.2891C10.926 5.95743 10.926 5.62575 10.841 5.37476L5.70884 5.37924ZM43.2971 6.5401C42.9663 5.71091 42.1392 4.29906 40.3153 4.29906C38.4958 4.29906 37.0026 5.71091 37.0026 7.86679C37.0026 9.85683 38.4913 11.4345 40.4807 11.4345C42.0543 11.4345 43.0468 10.4395 43.3776 9.85683L42.2197 9.02765C41.804 9.61031 41.3077 10.0227 40.4807 10.0227C39.6536 10.0227 39.1574 9.69099 38.7416 8.94249L43.4625 6.95245L43.2971 6.5401ZM38.4958 7.70543C38.4958 6.37874 39.5732 5.63024 40.3153 5.63024C40.8964 5.63024 41.4731 5.96191 41.6385 6.37874L38.4958 7.70543ZM34.6019 11.1073H36.1756V0.731331H34.6019V11.1073ZM32.1208 5.04757C31.705 4.63073 31.0434 4.21838 30.2163 4.21838C28.4773 4.21838 26.8232 5.79607 26.8232 7.78611C26.8232 9.77615 28.3968 11.2732 30.2163 11.2732C31.0434 11.2732 31.705 10.8563 32.0358 10.444H32.1208V10.9415C32.1208 12.2682 31.3742 13.0167 30.2163 13.0167C29.3043 13.0167 28.6427 12.3533 28.4773 11.7707L27.154 12.3533C27.5698 13.2677 28.5622 14.4285 30.3013 14.4285C32.1208 14.4285 33.6139 13.3484 33.6139 10.7757V4.4649H32.1252L32.1208 5.04757ZM30.2968 9.94647C29.2194 9.94647 28.3119 9.03213 28.3119 7.79059C28.3119 6.54458 29.2239 5.63472 30.2968 5.63472C31.3697 5.63472 32.2012 6.54906 32.2012 7.79059C32.2012 9.03213 31.3742 9.94647 30.2968 9.94647ZM50.4992 0.731331H46.7752V11.1073H48.3488V7.20792H50.4992C52.2382 7.20792 53.8923 5.96191 53.8923 3.97187C53.8923 1.98183 52.2382 0.731331 50.4992 0.731331ZM50.5841 5.71091H48.3488V2.14318H50.5841C51.742 2.14318 52.4036 3.1382 52.4036 3.88671C52.3187 4.79657 51.657 5.71091 50.5841 5.71091ZM60.1019 4.21838C58.944 4.21838 57.7817 4.71589 57.3704 5.79607L58.7786 6.37874C59.1094 5.79607 59.6056 5.63024 60.1868 5.63024C61.0139 5.63024 61.7604 6.12774 61.8409 6.95693V7.04209C61.5906 6.87625 60.9289 6.62525 60.2673 6.62525C58.7786 6.62525 57.2854 7.45444 57.2854 8.95145C57.2854 10.3633 58.5282 11.2776 59.8515 11.2776C60.9289 11.2776 61.4251 10.7801 61.8364 10.2826H61.9214V11.1118H63.4101V7.12277C63.2491 5.29408 61.8409 4.21838 60.1019 4.21838ZM59.9365 9.94647C59.4402 9.94647 58.6936 9.69547 58.6936 9.03213C58.6936 8.20294 59.6056 7.95195 60.3477 7.95195C61.0094 7.95195 61.3402 8.11778 61.756 8.28362C61.5906 9.27864 60.7635 9.94647 59.9365 9.94647ZM68.6317 4.4649L66.8926 8.94697H66.8077L64.9882 4.4649H63.3341L66.0656 10.7712L64.4919 14.2582H66.0656L70.2858 4.4649H68.6317ZM54.7193 11.1073H56.293V0.731331H54.7193V11.1073Z" fill="white"/>
</svg>
