<svg width="167" height="50" viewBox="0 0 167 50" fill="none" xmlns="http://www.w3.org/2000/svg">
<path d="M161.5 0H5.371C2.60958 0 0.371002 2.23858 0.371002 5V45C0.371002 47.7614 2.60958 50 5.371 50H161.5C164.261 50 166.5 47.7614 166.5 45V5C166.5 2.23858 164.261 0 161.5 0Z" fill="#00030D"/>
<path d="M63.747 15.1908C63.747 15.9278 63.551 16.5752 63.058 17.0334C62.47 17.5862 61.781 17.8651 60.901 17.8651C60.016 17.8651 59.333 17.5862 58.744 17.0334C58.156 16.4806 57.859 15.8332 57.859 15.0065C57.859 14.1798 58.156 13.5324 58.744 12.9796C59.333 12.4268 60.022 12.1479 60.901 12.1479C61.293 12.1479 61.686 12.2426 62.078 12.4268C62.47 12.6111 62.767 12.7954 62.963 13.0742L62.47 13.5374C62.078 13.0742 61.585 12.89 60.901 12.89C60.313 12.89 59.725 13.0742 59.333 13.5374C58.84 13.9059 58.644 14.4587 58.644 15.1061C58.644 15.7535 58.84 16.3063 59.333 16.6748C59.825 17.0434 60.313 17.3223 60.901 17.3223C61.59 17.3223 62.078 17.138 62.571 16.6748C62.867 16.396 63.063 16.0274 63.063 15.5693H60.907V14.8223H63.752L63.747 15.1908ZM68.262 12.885H65.613V14.638H68.066V15.2854H65.613V17.0384H68.262V17.7754H64.828V12.2426H68.262V12.885ZM71.5 17.7754H70.716V12.885H69.047V12.2426H73.17V12.89H71.5V17.7754ZM76.015 17.7754V12.2426H76.8V17.7754H76.015ZM80.138 17.7754H79.349V12.885H77.68V12.2426H81.702V12.89H80.038V17.7754H80.138ZM89.46 17.0334C88.872 17.5862 88.183 17.8651 87.303 17.8651C86.418 17.8651 85.735 17.5862 85.147 17.0334C84.558 16.4806 84.261 15.8332 84.261 15.0065C84.261 14.1798 84.558 13.5324 85.147 12.9796C85.735 12.4268 86.424 12.1479 87.303 12.1479C88.183 12.1479 88.872 12.4268 89.46 12.9796C90.049 13.5324 90.345 14.1798 90.345 15.0065C90.345 15.8332 90.049 16.4806 89.46 17.0334ZM85.729 16.5752C86.122 16.9438 86.71 17.2227 87.298 17.2227C87.886 17.2227 88.475 17.0384 88.867 16.5752C89.259 16.2067 89.556 15.6539 89.556 15.0065C89.556 14.3591 89.36 13.8063 88.867 13.4378C88.475 13.0693 87.886 12.7904 87.298 12.7904C86.71 12.7904 86.122 12.9746 85.729 13.4378C85.337 13.8063 85.041 14.3591 85.041 15.0065C85.041 15.6539 85.237 16.2067 85.729 16.5752ZM91.421 17.7754V12.2426H92.306L95.152 16.5752V12.2426H95.936V17.7754H95.152L92.11 13.2585V17.7754H91.421Z" fill="white" stroke="white" stroke-width="0.2" stroke-miterlimit="10"/>
<path d="M84.061 25.8878C81.708 25.8878 79.842 27.5462 79.842 29.852C79.842 32.0631 81.708 33.8161 84.061 33.8161C86.413 33.8161 88.279 32.1578 88.279 29.852C88.284 27.4566 86.419 25.8878 84.061 25.8878ZM84.061 32.1627C82.783 32.1627 81.708 31.1468 81.708 29.7673C81.708 28.3829 82.789 27.3719 84.061 27.3719C85.332 27.3719 86.413 28.2932 86.413 29.7673C86.419 31.1468 85.338 32.1627 84.061 32.1627ZM74.935 25.8878C72.582 25.8878 70.716 27.5462 70.716 29.852C70.716 32.0631 72.582 33.8161 74.935 33.8161C77.288 33.8161 79.153 32.1578 79.153 29.852C79.153 27.4566 77.288 25.8878 74.935 25.8878ZM74.935 32.1627C73.658 32.1627 72.582 31.1468 72.582 29.7673C72.582 28.3829 73.663 27.3719 74.935 27.3719C76.207 27.3719 77.288 28.2932 77.288 29.7673C77.288 31.1468 76.212 32.1627 74.935 32.1627ZM64.039 27.088V28.7464H68.257C68.157 29.6677 67.765 30.4048 67.277 30.8679C66.689 31.4207 65.708 32.0681 64.039 32.0681C61.389 32.0681 59.428 30.1309 59.428 27.6408C59.428 25.1508 61.49 23.2135 64.039 23.2135C65.412 23.2135 66.493 23.7663 67.277 24.4137L68.554 23.2135C67.478 22.2922 66.1 21.5552 64.14 21.5552C60.605 21.5552 57.563 24.3241 57.563 27.6408C57.563 30.9576 60.605 33.7265 64.14 33.7265C66.1 33.7265 67.478 33.1737 68.655 31.9735C69.831 30.8679 70.224 29.2992 70.224 28.099C70.224 27.7305 70.224 27.3619 70.123 27.0831L64.039 27.088ZM108.597 28.3779C108.205 27.4566 107.225 25.8878 105.062 25.8878C102.906 25.8878 101.136 27.4566 101.136 29.852C101.136 32.0631 102.9 33.8161 105.259 33.8161C107.124 33.8161 108.3 32.7106 108.693 32.0631L107.32 31.1418C106.827 31.7892 106.239 32.2474 105.259 32.2474C104.278 32.2474 103.69 31.8789 103.197 31.0472L108.793 28.8361L108.597 28.3779ZM102.906 29.6727C102.906 28.1986 104.183 27.3669 105.062 27.3669C105.751 27.3669 106.435 27.7355 106.631 28.1986L102.906 29.6727ZM98.29 33.4526H100.155V21.9237H98.29V33.4526ZM95.348 26.7195C94.856 26.2564 94.071 25.7982 93.091 25.7982C91.029 25.7982 89.069 27.5512 89.069 29.7623C89.069 31.9735 90.934 33.6368 93.091 33.6368C94.071 33.6368 94.856 33.1737 95.248 32.7155H95.348V33.2683C95.348 34.7424 94.463 35.5741 93.091 35.5741C92.01 35.5741 91.225 34.837 91.029 34.1896L89.461 34.837C89.954 35.853 91.13 37.1428 93.192 37.1428C95.348 37.1428 97.118 35.9426 97.118 33.0841V26.0721H95.354L95.348 26.7195ZM93.186 32.1627C91.909 32.1627 90.833 31.1468 90.833 29.7673C90.833 28.3829 91.914 27.3719 93.186 27.3719C94.458 27.3719 95.444 28.3878 95.444 29.7673C95.444 31.1468 94.463 32.1627 93.186 32.1627ZM117.135 21.9237H112.72V33.4526H114.586V29.1199H117.135C119.196 29.1199 121.157 27.7355 121.157 25.5243C121.157 23.3131 119.196 21.9237 117.135 21.9237ZM117.235 27.4566H114.586V23.4924H117.235C118.608 23.4924 119.392 24.598 119.392 25.4297C119.292 26.4406 118.507 27.4566 117.235 27.4566ZM128.518 25.7982C127.145 25.7982 125.768 26.351 125.28 27.5512L126.949 28.1986C127.342 27.5512 127.93 27.3669 128.619 27.3669C129.599 27.3669 130.484 27.9197 130.58 28.841V28.9357C130.283 28.7514 129.498 28.4725 128.714 28.4725C126.949 28.4725 125.179 29.3938 125.179 31.0572C125.179 32.6259 126.653 33.6418 128.221 33.6418C129.498 33.6418 130.087 33.089 130.574 32.5363H130.675V33.4576H132.44V29.0253C132.249 26.9934 130.58 25.7982 128.518 25.7982ZM128.322 32.1627C127.734 32.1627 126.849 31.8839 126.849 31.1468C126.849 30.2255 127.93 29.9466 128.81 29.9466C129.594 29.9466 129.986 30.1309 130.479 30.3151C130.283 31.4207 129.302 32.1627 128.322 32.1627ZM138.63 26.0721L136.568 31.0522H136.467L134.31 26.0721H132.35L135.588 33.0791L133.722 36.9536H135.588L140.59 26.0721H138.63ZM122.137 33.4526H124.003V21.9237H122.137V33.4526Z" fill="white"/>
<path d="M27.435 12.7012C27.144 12.9801 27.043 13.4382 27.043 13.991V34.3745C27.043 34.9273 27.239 35.3904 27.536 35.6643L27.637 35.7589L39.804 24.3247V24.1404L27.435 12.7012Z" fill="white"/>
<path d="M43.726 28.1941L39.704 24.4142V24.1353L43.726 20.3555L43.827 20.4501L48.633 23.0348C50.006 23.7718 50.006 24.972 48.633 25.7091L43.726 28.1941Z" fill="white"/>
<path d="M43.826 28.1045L39.703 24.23L27.435 35.7589C27.928 36.222 28.612 36.222 29.497 35.8535L43.826 28.1045Z" fill="white"/>
<path d="M43.826 20.3544L29.497 12.7001C28.612 12.2419 27.928 12.3315 27.435 12.7947L39.703 24.2289L43.826 20.3544Z" fill="white"/>
<path opacity="0.2" d="M43.726 28.0098L29.497 35.5745C28.712 36.0377 28.023 35.943 27.536 35.5745L27.435 35.6691L27.536 35.7638C28.029 36.1323 28.712 36.2269 29.497 35.7638L43.726 28.0098Z" fill="white"/>
<path opacity="0.12" d="M27.435 35.5745C27.144 35.2956 27.043 34.8375 27.043 34.2797V34.3743C27.043 34.9271 27.239 35.3902 27.536 35.6641V35.5695L27.435 35.5745ZM48.633 25.4301L43.726 28.0147L43.826 28.1094L48.633 25.5247C49.322 25.1562 49.614 24.693 49.614 24.2349C49.614 24.693 49.221 25.0616 48.633 25.4301Z" fill="white"/>
<path opacity="0.25" d="M29.497 12.7956L48.633 23.0347C49.221 23.4032 49.614 23.7717 49.614 24.2349C49.614 23.7717 49.317 23.3136 48.633 22.945L29.497 12.701C28.124 11.964 27.043 12.5168 27.043 13.9909V14.0855C27.043 12.701 28.124 12.0536 29.497 12.7956Z" fill="white"/>
<path d="M27.452 12.4741C27.148 12.7594 27.043 13.2281 27.043 13.7987V34.6507C27.043 35.2162 27.248 35.69 27.558 35.9702L27.663 36.067L40.368 24.3699V24.1814L27.452 12.4741Z" fill="url(#paint0_linear)"/>
<path d="M44.463 28.3235L40.263 24.4567V24.1715L44.463 20.3047L44.569 20.4015L49.588 23.0456C51.021 23.7996 51.021 25.0273 49.588 25.7813L44.463 28.3235Z" fill="url(#paint1_linear)"/>
<path d="M44.569 28.2316L40.263 24.2681L27.453 36.0619C27.967 36.5357 28.681 36.5357 29.605 36.1587L44.569 28.2316Z" fill="url(#paint2_linear)"/>
<path d="M44.569 20.3039L29.605 12.4736C28.681 12.0049 27.967 12.0966 27.453 12.5704L40.263 24.2675L44.569 20.3039Z" fill="url(#paint3_linear)"/>
<path opacity="0.2" d="M44.464 28.1348L29.605 35.8734C28.786 36.3472 28.067 36.2504 27.558 35.8734L27.453 35.9702L27.558 36.067C28.072 36.444 28.786 36.5408 29.605 36.067L44.464 28.1348Z" fill="black"/>
<path opacity="0.12" d="M27.452 35.8737C27.148 35.5884 27.043 35.1197 27.043 34.5542V34.651C27.043 35.2165 27.248 35.6903 27.558 35.9705V35.8737H27.452ZM49.588 25.4961L44.463 28.1402L44.569 28.237L49.588 25.5929C50.307 25.2159 50.612 24.7421 50.612 24.2734C50.612 24.7421 50.202 25.1191 49.588 25.4961Z" fill="black"/>
<path opacity="0.25" d="M29.605 12.5698L49.588 23.0442C50.202 23.4212 50.612 23.7982 50.612 24.272C50.612 23.7982 50.302 23.3295 49.588 22.9525L29.605 12.473C28.172 11.719 27.043 12.2845 27.043 13.7976V13.8944C27.043 12.473 28.172 11.8158 29.605 12.5698Z" fill="white"/>
<path d="M63.747 15.1908C63.747 15.9278 63.551 16.5752 63.058 17.0334C62.47 17.5862 61.781 17.8651 60.901 17.8651C60.016 17.8651 59.333 17.5862 58.744 17.0334C58.156 16.4806 57.859 15.8332 57.859 15.0065C57.859 14.1798 58.156 13.5324 58.744 12.9796C59.333 12.4268 60.022 12.1479 60.901 12.1479C61.293 12.1479 61.686 12.2426 62.078 12.4268C62.47 12.6111 62.767 12.7954 62.963 13.0742L62.47 13.5374C62.078 13.0742 61.585 12.89 60.901 12.89C60.313 12.89 59.725 13.0742 59.333 13.5374C58.84 13.9059 58.644 14.4587 58.644 15.1061C58.644 15.7535 58.84 16.3063 59.333 16.6748C59.825 17.0434 60.313 17.3223 60.901 17.3223C61.59 17.3223 62.078 17.138 62.571 16.6748C62.867 16.396 63.063 16.0274 63.063 15.5693H60.907V14.8223H63.752L63.747 15.1908ZM68.262 12.885H65.613V14.638H68.066V15.2854H65.613V17.0384H68.262V17.7754H64.828V12.2426H68.262V12.885ZM71.5 17.7754H70.716V12.885H69.047V12.2426H73.17V12.89H71.5V17.7754ZM76.015 17.7754V12.2426H76.8V17.7754H76.015ZM80.138 17.7754H79.349V12.885H77.68V12.2426H81.702V12.89H80.038V17.7754H80.138ZM89.46 17.0334C88.872 17.5862 88.183 17.8651 87.303 17.8651C86.418 17.8651 85.735 17.5862 85.147 17.0334C84.558 16.4806 84.261 15.8332 84.261 15.0065C84.261 14.1798 84.558 13.5324 85.147 12.9796C85.735 12.4268 86.424 12.1479 87.303 12.1479C88.183 12.1479 88.872 12.4268 89.46 12.9796C90.049 13.5324 90.345 14.1798 90.345 15.0065C90.345 15.8332 90.049 16.4806 89.46 17.0334ZM85.729 16.5752C86.122 16.9438 86.71 17.2227 87.298 17.2227C87.886 17.2227 88.475 17.0384 88.867 16.5752C89.259 16.2067 89.556 15.6539 89.556 15.0065C89.556 14.3591 89.36 13.8063 88.867 13.4378C88.475 13.0693 87.886 12.7904 87.298 12.7904C86.71 12.7904 86.122 12.9746 85.729 13.4378C85.337 13.8063 85.041 14.3591 85.041 15.0065C85.041 15.6539 85.237 16.2067 85.729 16.5752ZM91.421 17.7754V12.2426H92.306L95.152 16.5752V12.2426H95.936V17.7754H95.152L92.11 13.2585V17.7754H91.421Z" fill="white" stroke="white" stroke-width="0.2" stroke-miterlimit="10"/>
<path d="M84.061 25.8878C81.708 25.8878 79.842 27.5462 79.842 29.852C79.842 32.0631 81.708 33.8161 84.061 33.8161C86.413 33.8161 88.279 32.1578 88.279 29.852C88.284 27.4566 86.419 25.8878 84.061 25.8878ZM84.061 32.1627C82.783 32.1627 81.708 31.1468 81.708 29.7673C81.708 28.3829 82.789 27.3719 84.061 27.3719C85.332 27.3719 86.413 28.2932 86.413 29.7673C86.419 31.1468 85.338 32.1627 84.061 32.1627ZM74.935 25.8878C72.582 25.8878 70.716 27.5462 70.716 29.852C70.716 32.0631 72.582 33.8161 74.935 33.8161C77.288 33.8161 79.153 32.1578 79.153 29.852C79.153 27.4566 77.288 25.8878 74.935 25.8878ZM74.935 32.1627C73.658 32.1627 72.582 31.1468 72.582 29.7673C72.582 28.3829 73.663 27.3719 74.935 27.3719C76.207 27.3719 77.288 28.2932 77.288 29.7673C77.288 31.1468 76.212 32.1627 74.935 32.1627ZM64.039 27.088V28.7464H68.257C68.157 29.6677 67.765 30.4048 67.277 30.8679C66.689 31.4207 65.708 32.0681 64.039 32.0681C61.389 32.0681 59.428 30.1309 59.428 27.6408C59.428 25.1508 61.49 23.2135 64.039 23.2135C65.412 23.2135 66.493 23.7663 67.277 24.4137L68.554 23.2135C67.478 22.2922 66.1 21.5552 64.14 21.5552C60.605 21.5552 57.563 24.3241 57.563 27.6408C57.563 30.9576 60.605 33.7265 64.14 33.7265C66.1 33.7265 67.478 33.1737 68.655 31.9735C69.831 30.8679 70.224 29.2992 70.224 28.099C70.224 27.7305 70.224 27.3619 70.123 27.0831L64.039 27.088ZM108.597 28.3779C108.205 27.4566 107.225 25.8878 105.062 25.8878C102.906 25.8878 101.136 27.4566 101.136 29.852C101.136 32.0631 102.9 33.8161 105.259 33.8161C107.124 33.8161 108.3 32.7106 108.693 32.0631L107.32 31.1418C106.827 31.7892 106.239 32.2474 105.259 32.2474C104.278 32.2474 103.69 31.8789 103.197 31.0472L108.793 28.8361L108.597 28.3779ZM102.906 29.6727C102.906 28.1986 104.183 27.3669 105.062 27.3669C105.751 27.3669 106.435 27.7355 106.631 28.1986L102.906 29.6727ZM98.29 33.4526H100.155V21.9237H98.29V33.4526ZM95.348 26.7195C94.856 26.2564 94.071 25.7982 93.091 25.7982C91.029 25.7982 89.069 27.5512 89.069 29.7623C89.069 31.9735 90.934 33.6368 93.091 33.6368C94.071 33.6368 94.856 33.1737 95.248 32.7155H95.348V33.2683C95.348 34.7424 94.463 35.5741 93.091 35.5741C92.01 35.5741 91.225 34.837 91.029 34.1896L89.461 34.837C89.954 35.853 91.13 37.1428 93.192 37.1428C95.348 37.1428 97.118 35.9426 97.118 33.0841V26.0721H95.354L95.348 26.7195ZM93.186 32.1627C91.909 32.1627 90.833 31.1468 90.833 29.7673C90.833 28.3829 91.914 27.3719 93.186 27.3719C94.458 27.3719 95.444 28.3878 95.444 29.7673C95.444 31.1468 94.463 32.1627 93.186 32.1627ZM117.135 21.9237H112.72V33.4526H114.586V29.1199H117.135C119.196 29.1199 121.157 27.7355 121.157 25.5243C121.157 23.3131 119.196 21.9237 117.135 21.9237ZM117.235 27.4566H114.586V23.4924H117.235C118.608 23.4924 119.392 24.598 119.392 25.4297C119.292 26.4406 118.507 27.4566 117.235 27.4566ZM128.518 25.7982C127.145 25.7982 125.768 26.351 125.28 27.5512L126.949 28.1986C127.342 27.5512 127.93 27.3669 128.619 27.3669C129.599 27.3669 130.484 27.9197 130.58 28.841V28.9357C130.283 28.7514 129.498 28.4725 128.714 28.4725C126.949 28.4725 125.179 29.3938 125.179 31.0572C125.179 32.6259 126.653 33.6418 128.221 33.6418C129.498 33.6418 130.087 33.089 130.574 32.5363H130.675V33.4576H132.44V29.0253C132.249 26.9934 130.58 25.7982 128.518 25.7982ZM128.322 32.1627C127.734 32.1627 126.849 31.8839 126.849 31.1468C126.849 30.2255 127.93 29.9466 128.81 29.9466C129.594 29.9466 129.986 30.1309 130.479 30.3151C130.283 31.4207 129.302 32.1627 128.322 32.1627ZM138.63 26.0721L136.568 31.0522H136.467L134.31 26.0721H132.35L135.588 33.0791L133.722 36.9536H135.588L140.59 26.0721H138.63ZM122.137 33.4526H124.003V21.9237H122.137V33.4526Z" fill="white"/>
<path d="M27.435 12.7012C27.144 12.9801 27.043 13.4382 27.043 13.991V34.3745C27.043 34.9273 27.239 35.3904 27.536 35.6643L27.637 35.7589L39.804 24.3247V24.1404L27.435 12.7012Z" fill="white"/>
<path d="M43.726 28.1941L39.704 24.4142V24.1353L43.726 20.3555L43.827 20.4501L48.633 23.0348C50.006 23.7718 50.006 24.972 48.633 25.7091L43.726 28.1941Z" fill="white"/>
<path d="M43.826 28.1045L39.703 24.23L27.435 35.7589C27.928 36.222 28.612 36.222 29.497 35.8535L43.826 28.1045Z" fill="white"/>
<path d="M43.826 20.3544L29.497 12.7001C28.612 12.2419 27.928 12.3315 27.435 12.7947L39.703 24.2289L43.826 20.3544Z" fill="white"/>
<path opacity="0.2" d="M43.726 28.0098L29.497 35.5745C28.712 36.0377 28.023 35.943 27.536 35.5745L27.435 35.6691L27.536 35.7638C28.029 36.1323 28.712 36.2269 29.497 35.7638L43.726 28.0098Z" fill="white"/>
<path opacity="0.12" d="M27.435 35.5745C27.144 35.2956 27.043 34.8375 27.043 34.2797V34.3743C27.043 34.9271 27.239 35.3902 27.536 35.6641V35.5695L27.435 35.5745ZM48.633 25.4301L43.726 28.0147L43.826 28.1094L48.633 25.5247C49.322 25.1562 49.614 24.693 49.614 24.2349C49.614 24.693 49.221 25.0616 48.633 25.4301Z" fill="white"/>
<path opacity="0.25" d="M29.497 12.7956L48.633 23.0347C49.221 23.4032 49.614 23.7717 49.614 24.2349C49.614 23.7717 49.317 23.3136 48.633 22.945L29.497 12.701C28.124 11.964 27.043 12.5168 27.043 13.9909V14.0855C27.043 12.701 28.124 12.0536 29.497 12.7956Z" fill="white"/>
<path d="M27.452 12.4741C27.148 12.7594 27.043 13.2281 27.043 13.7987V34.6507C27.043 35.2162 27.248 35.69 27.558 35.9702L27.663 36.067L40.368 24.3699V24.1814L27.452 12.4741Z" fill="url(#paint4_linear)"/>
<path d="M44.463 28.3235L40.263 24.4567V24.1715L44.463 20.3047L44.569 20.4015L49.588 23.0456C51.021 23.7996 51.021 25.0273 49.588 25.7813L44.463 28.3235Z" fill="url(#paint5_linear)"/>
<path d="M44.569 28.2316L40.263 24.2681L27.453 36.0619C27.967 36.5357 28.681 36.5357 29.605 36.1587L44.569 28.2316Z" fill="url(#paint6_linear)"/>
<path d="M44.569 20.3039L29.605 12.4736C28.681 12.0049 27.967 12.0966 27.453 12.5704L40.263 24.2675L44.569 20.3039Z" fill="url(#paint7_linear)"/>
<path opacity="0.2" d="M44.464 28.1348L29.605 35.8734C28.786 36.3472 28.067 36.2504 27.558 35.8734L27.453 35.9702L27.558 36.067C28.072 36.444 28.786 36.5408 29.605 36.067L44.464 28.1348Z" fill="black"/>
<path opacity="0.12" d="M27.452 35.8737C27.148 35.5884 27.043 35.1197 27.043 34.5542V34.651C27.043 35.2165 27.248 35.6903 27.558 35.9705V35.8737H27.452ZM49.588 25.4961L44.463 28.1402L44.569 28.237L49.588 25.5929C50.307 25.2159 50.612 24.7421 50.612 24.2734C50.612 24.7421 50.202 25.1191 49.588 25.4961Z" fill="black"/>
<path opacity="0.25" d="M29.605 12.5698L49.588 23.0442C50.202 23.4212 50.612 23.7982 50.612 24.272C50.612 23.7982 50.302 23.3295 49.588 22.9525L29.605 12.473C28.172 11.719 27.043 12.2845 27.043 13.7976V13.8944C27.043 12.473 28.172 11.8158 29.605 12.5698Z" fill="white"/>
<defs>
<linearGradient id="paint0_linear" x1="39.13" y1="13.6123" x2="23.351" y2="30.7516" gradientUnits="userSpaceOnUse">
<stop stop-color="#00A0FF"/>
<stop offset="0.007" stop-color="#00A1FF"/>
<stop offset="0.26" stop-color="#00BEFF"/>
<stop offset="0.512" stop-color="#00D2FF"/>
<stop offset="0.76" stop-color="#00DFFF"/>
<stop offset="1" stop-color="#00E3FF"/>
</linearGradient>
<linearGradient id="paint1_linear" x1="51.467" y1="24.3155" x2="26.671" y2="24.3155" gradientUnits="userSpaceOnUse">
<stop stop-color="#FFE000"/>
<stop offset="0.409" stop-color="#FFBD00"/>
<stop offset="0.775" stop-color="#FFA500"/>
<stop offset="1" stop-color="#FF9C00"/>
</linearGradient>
<linearGradient id="paint2_linear" x1="42.226" y1="26.4234" x2="20.828" y2="49.6658" gradientUnits="userSpaceOnUse">
<stop stop-color="#FF3A44"/>
<stop offset="1" stop-color="#C31162"/>
</linearGradient>
<linearGradient id="paint3_linear" x1="24.237" y1="5.5984" x2="33.792" y2="15.9777" gradientUnits="userSpaceOnUse">
<stop stop-color="#32A071"/>
<stop offset="0.069" stop-color="#2DA771"/>
<stop offset="0.476" stop-color="#15CF74"/>
<stop offset="0.801" stop-color="#06E775"/>
<stop offset="1" stop-color="#00F076"/>
</linearGradient>
<linearGradient id="paint4_linear" x1="39.13" y1="13.6123" x2="23.351" y2="30.7516" gradientUnits="userSpaceOnUse">
<stop stop-color="#00A0FF"/>
<stop offset="0.007" stop-color="#00A1FF"/>
<stop offset="0.26" stop-color="#00BEFF"/>
<stop offset="0.512" stop-color="#00D2FF"/>
<stop offset="0.76" stop-color="#00DFFF"/>
<stop offset="1" stop-color="#00E3FF"/>
</linearGradient>
<linearGradient id="paint5_linear" x1="51.467" y1="24.3155" x2="26.671" y2="24.3155" gradientUnits="userSpaceOnUse">
<stop stop-color="#FFE000"/>
<stop offset="0.409" stop-color="#FFBD00"/>
<stop offset="0.775" stop-color="#FFA500"/>
<stop offset="1" stop-color="#FF9C00"/>
</linearGradient>
<linearGradient id="paint6_linear" x1="42.226" y1="26.4234" x2="20.828" y2="49.6658" gradientUnits="userSpaceOnUse">
<stop stop-color="#FF3A44"/>
<stop offset="1" stop-color="#C31162"/>
</linearGradient>
<linearGradient id="paint7_linear" x1="24.237" y1="5.5984" x2="33.792" y2="15.9777" gradientUnits="userSpaceOnUse">
<stop stop-color="#32A071"/>
<stop offset="0.069" stop-color="#2DA771"/>
<stop offset="0.476" stop-color="#15CF74"/>
<stop offset="0.801" stop-color="#06E775"/>
<stop offset="1" stop-color="#00F076"/>
</linearGradient>
</defs>
</svg>
