<svg width="27" height="24" viewBox="0 0 27 24" fill="none" xmlns="http://www.w3.org/2000/svg">
<g clip-path="url(#clip0)">
<path d="M13.5453 5.58503C16.9085 5.58503 19.6379 8.31444 19.6379 11.6777C19.6379 12.4657 19.4781 13.2137 19.204 13.8989L22.767 17.4619C24.6057 15.9259 26.056 13.9388 26.9525 11.6777C24.8398 6.32734 19.6436 2.54157 13.5453 2.54157C11.838 2.54157 10.2049 2.84421 8.69175 3.39237L11.3241 6.019C12.0093 5.75063 12.7573 5.58503 13.5453 5.58503ZM1.36004 2.26749L4.14084 5.04258L4.69471 5.59645C2.68477 7.17243 1.09167 9.26231 0.143799 11.6777C2.25081 17.028 7.45267 20.8138 13.5453 20.8138C15.4353 20.8138 17.234 20.4483 18.8842 19.7859L19.4038 20.3056L22.9555 23.8629L24.5086 22.3155L2.91318 0.714355L1.36004 2.26749ZM8.09791 8.99965L9.98223 10.884C9.92513 11.1466 9.89087 11.4093 9.89087 11.6834C9.89087 13.699 11.5297 15.3378 13.5453 15.3378C13.8194 15.3378 14.082 15.3035 14.339 15.2464L16.2233 17.1308C15.4125 17.5305 14.5103 17.776 13.551 17.776C10.1821 17.7703 7.45267 15.0409 7.45267 11.6777C7.45267 10.7127 7.6982 9.81618 8.09791 8.99965ZM13.3397 8.04036L17.1769 11.8775L17.194 11.6777C17.194 9.66201 15.5552 8.02323 13.5396 8.02323L13.3397 8.04036Z" fill="white"/>
</g>
<defs>
<clipPath id="clip0">
<rect width="26.803" height="23.1429" fill="white" transform="translate(0.143799 0.714355)"/>
</clipPath>
</defs>
</svg>
