<svg width="40" height="36" viewBox="0 0 40 36" fill="none" xmlns="http://www.w3.org/2000/svg">
<g clip-path="url(#clip0)">
<path d="M31.1531 20.7099L22.3514 7.48466C22.8849 6.81673 23.2849 5.88161 23.2849 5.08009C23.2849 3.20986 21.5513 1.74039 20.7511 1.07245C20.4844 0.805276 20.0843 0.805276 19.8176 1.07245C19.0175 1.74039 17.2838 3.34344 17.2838 5.08009C17.2838 6.0152 17.8172 6.95031 18.3507 7.61825L9.28224 20.7099L2.08085 13.3625C1.54742 12.8282 0.613902 13.2289 0.747261 14.0305L2.48093 30.1946H38.0878L39.8215 14.0305C39.9548 13.3625 39.0213 12.8282 38.4879 13.3625L31.1531 20.7099Z" fill="#EFEDED"/>
<path d="M38.6213 13.3624L31.2865 20.7098L22.3515 7.48457C22.8849 6.81663 23.285 5.88151 23.285 5.07999C23.285 3.20976 21.5513 1.74029 20.7512 1.07235C20.6178 0.805176 20.4844 0.805176 20.3511 0.805176V30.1945H38.0878L39.8215 14.0304C39.9549 13.2288 39.0213 12.8281 38.6213 13.3624Z" fill="#E2E2E2"/>
<path d="M2.48047 30.1943V34.7363C2.48047 35.4043 3.01391 35.9386 3.6807 35.9386H37.0205C37.6873 35.9386 38.2207 35.4043 38.2207 34.7363V30.1943H2.48047Z" fill="#E5E5E5"/>
<path d="M20.3511 30.1946V35.8053H37.021C37.6878 35.8053 38.2212 35.271 38.2212 34.603V30.061H20.3511V30.1946Z" fill="#C6C6C6"/>
<path d="M2.48059 30.1943H38.0875L38.3542 27.9233H2.21387L2.48059 30.1943Z" fill="#D3E3FD"/>
<path d="M20.3511 27.9233V30.1943H38.0878L38.3545 27.9233H20.3511Z" fill="#A0B3D3"/>
<path d="M23.1514 28.8585C23.1514 30.7287 21.2843 32.1982 20.6176 32.7326C20.4842 32.8662 20.2175 32.8662 20.0841 32.7326C19.4173 32.1982 17.5503 30.5952 17.5503 28.8585C17.5503 26.9883 19.4173 25.5188 20.0841 24.9845C20.2175 24.8509 20.4842 24.8509 20.6176 24.9845C21.2843 25.5188 23.1514 27.1219 23.1514 28.8585Z" fill="#C9EBFF"/>
<path d="M20.6178 24.9847C20.4844 24.9847 20.4844 24.8511 20.3511 24.8511V32.8663C20.4844 32.8663 20.4844 32.8663 20.6178 32.7328C21.2846 32.1984 23.1516 30.5953 23.1516 28.8587C23.1516 27.1221 21.2846 25.519 20.6178 24.9847Z" fill="#9CC9E2"/>
</g>
<defs>
<clipPath id="clip0">
<rect width="39.0742" height="35" fill="white" transform="translate(0.74707 0.805176)"/>
</clipPath>
</defs>
</svg>
