<svg width="31" height="31" viewBox="0 0 31 31" fill="none" xmlns="http://www.w3.org/2000/svg">
<g clip-path="url(#clip0)">
<path d="M30.6482 13.0544L15.5963 30.8053V30.7015L0.648193 13.0544L7.29179 6.51465H24.0046L30.6482 13.0544Z" fill="#28E6E6"/>
<path d="M30.6483 13.0544L15.5964 30.8053V6.51465H24.0047L30.6483 13.0544Z" fill="#00CEF5"/>
<path d="M20.6827 13.0544H10.6135L15.5962 6.72226V6.51465L20.6827 13.0544Z" fill="#C4FEFF"/>
<path d="M24.0047 6.51465L20.5791 13.0544H30.6483L24.0047 6.51465Z" fill="#88F1FF"/>
<path d="M7.29179 6.51465L10.7174 13.0544H0.648193L7.29179 6.51465Z" fill="#C4FEFF"/>
<path d="M16.5303 0.805176H14.7656V4.43839H16.5303V0.805176Z" fill="#9CFDFF"/>
<path d="M20.6429 1.0339L19.2034 4.48242L20.8318 5.16219L22.2713 1.71366L20.6429 1.0339Z" fill="#00F8FE"/>
<path d="M10.6695 1.12279L9.04102 1.80273L10.4809 5.25126L12.1094 4.57132L10.6695 1.12279Z" fill="#9CFDFF"/>
<path d="M20.5791 13.0542L15.5964 30.8051V30.4936L10.7175 13.0542H20.5791Z" fill="#88F1FF"/>
<path d="M16.4269 0.805176H15.5964V4.43839H16.4269V0.805176Z" fill="#00F8FE"/>
<path d="M20.6829 13.0544H20.5791L15.5964 30.8053V6.51465L20.6829 13.0544Z" fill="#C4FEFF"/>
<path d="M20.6829 13.0544H15.5964V6.51465L20.6829 13.0544Z" fill="#88F1FF"/>
</g>
<defs>
<clipPath id="clip0">
<rect width="30" height="30" fill="white" transform="translate(0.648193 0.805176)"/>
</clipPath>
</defs>
</svg>
