<svg width="40" height="36" viewBox="0 0 40 36" fill="none" xmlns="http://www.w3.org/2000/svg">
<g clip-path="url(#clip0)">
<path d="M30.8604 20.5848L21.9415 7.34153C22.482 6.66586 22.8874 5.85505 22.8874 4.9091C22.8874 3.15234 21.2658 1.53072 20.3198 0.855046C20.0496 0.584776 19.6442 0.584776 19.3739 0.855046C18.5631 1.53072 16.8063 3.01721 16.8063 4.9091C16.8063 5.85505 17.3469 6.80099 17.8874 7.47667L8.83334 20.5848L1.67118 13.2875C1.13064 12.7469 0.319824 13.1523 0.319824 13.9632L2.07658 30.1794H37.8874L39.6442 13.9632C39.7793 13.2875 38.8333 12.8821 38.2928 13.2875L30.8604 20.5848Z" fill="#F9E885"/>
<path d="M38.1578 13.2873L30.7254 20.5846L21.9416 7.34135C22.4821 6.66567 22.8875 5.85486 22.8875 4.90892C22.8875 3.15216 21.2659 1.53054 20.32 0.854862C20.32 0.719727 20.0497 0.719727 19.9146 0.719727V30.0441H37.7524L39.5091 13.8278C39.6443 13.1522 38.6983 12.7468 38.1578 13.2873Z" fill="#EDBE2C"/>
<path d="M2.07666 30.0439V34.5034C2.07666 35.1791 2.6172 35.7196 3.29288 35.7196H36.6713C37.3469 35.7196 37.8875 35.1791 37.8875 34.5034V30.0439H2.07666Z" fill="#EDBE2C"/>
<path d="M19.9146 30.0439V35.7196H36.6713C37.347 35.7196 37.8875 35.1791 37.8875 34.5034V30.0439H19.9146Z" fill="#E69022"/>
<path d="M2.07642 30.0439H37.7521L38.0224 27.7466H1.80615L2.07642 30.0439Z" fill="#E69022"/>
<path d="M19.9146 27.7466V30.0439H37.7524L38.0227 27.7466H19.9146Z" fill="#D06618"/>
<path d="M22.7523 28.8279C22.7523 30.7198 20.8604 32.2063 20.1848 32.7468C20.0496 32.8819 19.7794 32.8819 19.6442 32.7468C18.9686 32.2063 17.0767 30.7198 17.0767 28.8279C17.0767 26.936 18.9686 25.4495 19.6442 24.909C19.7794 24.7738 20.0496 24.7738 20.1848 24.909C20.8604 25.4495 22.7523 26.936 22.7523 28.8279Z" fill="#C73C50"/>
<path d="M20.1848 24.9091C20.0497 24.9091 20.0497 24.7739 19.9146 24.7739V32.7469C20.0497 32.7469 20.0497 32.7469 20.1848 32.6118C20.8605 32.0712 22.7524 30.5847 22.7524 28.6928C22.7524 26.9361 20.8605 25.4496 20.1848 24.9091Z" fill="#952A3A"/>
</g>
<defs>
<clipPath id="clip0">
<rect width="39.1892" height="35" fill="white" transform="translate(0.319824 0.719727)"/>
</clipPath>
</defs>
</svg>
