<svg width="40" height="41" viewBox="0 0 40 41" fill="none" xmlns="http://www.w3.org/2000/svg">
<g clip-path="url(#clip0)">
<path d="M27.4267 20.5553H40.0001C40.0001 9.51038 31.0408 0.55957 19.9958 0.55957C25.5183 0.55957 27.4267 10.5575 27.4267 20.5553Z" fill="#CD2029"/>
<path d="M0 20.5553H28.2795C28.2795 10.5575 25.5183 0.55957 19.9958 0.55957C8.95081 0.55957 0 9.51038 0 20.5553Z" fill="#CD2029"/>
<path d="M27.0046 20.5552C27.0046 30.5531 25.5269 40.5509 20.0044 40.5509C31.0494 40.5509 40.0002 31.6001 40.0002 20.5552H27.0046Z" fill="#F3F4F5"/>
<path d="M28.2795 20.5552H0C0 31.6001 8.95081 40.5509 19.9958 40.5509C25.5183 40.5594 28.2795 30.5615 28.2795 20.5552Z" fill="#F3F4F5"/>
</g>
<defs>
<clipPath id="clip0">
<rect width="40" height="40" fill="white" transform="translate(0 0.55957)"/>
</clipPath>
</defs>
</svg>
