<svg width="19" height="19" viewBox="0 0 19 19" fill="none" xmlns="http://www.w3.org/2000/svg">
<path fill-rule="evenodd" clip-rule="evenodd" d="M0.75 9.5C0.75 6.46688 0.75 4.95032 1.33176 3.78811C1.86368 2.72546 2.72546 1.86368 3.78811 1.33176C4.95032 0.75 6.46688 0.75 9.5 0.75C12.5331 0.75 14.0497 0.75 15.2119 1.33176C16.2745 1.86368 17.1363 2.72546 17.6682 3.78811C18.25 4.95032 18.25 6.46688 18.25 9.5C18.25 12.5331 18.25 14.0497 17.6682 15.2119C17.1363 16.2745 16.2745 17.1363 15.2119 17.6682C14.0497 18.25 12.5331 18.25 9.5 18.25C6.46688 18.25 4.95032 18.25 3.78811 17.6682C2.72546 17.1363 1.86368 16.2745 1.33176 15.2119C0.75 14.0497 0.75 12.5331 0.75 9.5ZM9.50015 4.8678C6.94193 4.8678 4.8678 6.94193 4.8678 9.50015C4.8678 12.0584 6.94193 14.1325 9.50015 14.1325C12.0584 14.1325 14.1325 12.0584 14.1325 9.50015C14.1325 6.94193 12.0584 4.8678 9.50015 4.8678ZM9.50015 12.3954C7.9043 12.3954 6.60493 11.096 6.60493 9.50015C6.60493 7.90315 7.9043 6.60493 9.50015 6.60493C11.096 6.60493 12.3954 7.90315 12.3954 9.50015C12.3954 11.096 11.096 12.3954 9.50015 12.3954ZM15.0971 4.52034C15.0971 4.86124 14.8208 5.1376 14.4799 5.1376C14.139 5.1376 13.8626 4.86124 13.8626 4.52034C13.8626 4.17943 14.139 3.90308 14.4799 3.90308C14.8208 3.90308 15.0971 4.17943 15.0971 4.52034Z" fill="white"/>
</svg>
