<svg width="24" height="22" viewBox="0 0 24 22" fill="none" xmlns="http://www.w3.org/2000/svg">
<path d="M4.97617 10.4518C2.25111 10.4518 0.04701 8.1676 0.175248 5.41048C0.287457 2.94991 2.28317 0.954205 4.74374 0.841996C7.50086 0.713758 9.78511 2.91785 9.78511 5.64291C9.78511 8.29584 7.6291 10.4518 4.97617 10.4518ZM4.97617 7.24589C5.88987 7.24589 6.62724 6.47646 6.57915 5.55475C6.53106 4.74525 5.87384 4.08803 5.06434 4.03994C4.14262 3.99185 3.37319 4.72922 3.37319 5.64291C3.37319 6.52455 4.09453 7.24589 4.97617 7.24589ZM23.0097 16.8638C23.0097 19.5888 20.7254 21.7929 17.9683 21.6647C15.5077 21.5525 13.512 19.5487 13.3918 17.0882C13.2716 14.3391 15.4757 12.0548 18.2008 12.0548C20.8537 12.0548 23.0097 14.2108 23.0097 16.8638ZM19.8037 16.8638C19.8037 15.9501 19.0343 15.2127 18.1126 15.2608C17.3031 15.3009 16.6459 15.9661 16.5978 16.7756C16.5497 17.6973 17.2871 18.4667 18.2008 18.4667C19.0824 18.4667 19.8037 17.7454 19.8037 16.8638ZM15.0028 1.63547L4.60749 20.8712H8.25426L18.6496 1.63547H15.0028Z" fill="white"/>
</svg>
