<svg width="26" height="33" viewBox="0 0 26 33" fill="none" xmlns="http://www.w3.org/2000/svg">
<g clip-path="url(#clip0)">
<path d="M11.6449 27.2311C9.29107 25.4802 7.76317 22.6804 7.76317 19.5255C7.76317 14.2316 12.0743 9.9204 17.3683 9.9204C18.1942 9.9204 18.9953 10.0278 19.7551 10.2177C19.7551 10.2095 19.7634 10.2012 19.7634 10.1929C19.9038 9.83781 19.8129 9.43312 19.5321 9.17709L10.5629 0.819057C10.2078 0.4887 9.65446 0.4887 9.29933 0.819057L0.338393 9.17709C-0.272767 9.74696 0.13192 10.7876 0.974331 10.7876H2.82433V29.4445C2.82433 29.9566 3.23728 30.3778 3.75759 30.3778H7.10246V27.9083C7.10246 27.5697 7.38326 27.2889 7.72187 27.2889L11.6449 27.2807V27.2311Z" fill="white"/>
<path d="M8.9436 29.1391V31.3607C8.9436 31.8728 9.36481 32.294 9.87686 32.294C10.7606 32.294 23.9253 32.2775 24.8008 32.2775C25.3128 32.2775 25.7258 31.8645 25.7258 31.3442V29.1226L8.9436 29.1391Z" fill="white"/>
<path d="M9.62158 19.5257C9.62158 23.7956 13.0986 27.2643 17.3685 27.2643C21.6383 27.2643 25.1071 23.7873 25.1071 19.5257C25.1071 15.2641 21.6301 11.7788 17.3685 11.7788C13.0986 11.7871 9.62158 15.2558 9.62158 19.5257ZM14.7173 16.8746C15.0807 16.5112 15.6671 16.5112 16.0305 16.8746C16.3939 17.238 16.3939 17.8243 16.0305 18.1877C15.6671 18.5511 15.0807 18.5511 14.7173 18.1877C14.3539 17.8243 14.3539 17.238 14.7173 16.8746ZM19.97 22.1273C19.6066 22.4906 19.0202 22.4906 18.6568 22.1273C18.2935 21.7639 18.2935 21.1775 18.6568 20.8141C19.0202 20.4507 19.6066 20.4507 19.97 20.8141C20.3334 21.1775 20.3334 21.7639 19.97 22.1273ZM20.0196 16.9241C20.383 17.2875 20.383 17.8739 20.0196 18.2373L16.0801 22.1768C15.7167 22.5402 15.1303 22.5402 14.7669 22.1768C14.4035 21.8134 14.4035 21.227 14.7669 20.8636L18.7064 16.9241C19.0615 16.5607 19.6562 16.5607 20.0196 16.9241Z" fill="white"/>
</g>
<defs>
<clipPath id="clip0">
<rect width="25.7679" height="31.7143" fill="white" transform="translate(0 0.571289)"/>
</clipPath>
</defs>
</svg>
