<svg width="40" height="40" viewBox="0 0 40 40" fill="none" xmlns="http://www.w3.org/2000/svg">
<path d="M40 20C40 31.0449 31.0449 40 20 40C8.95508 40 0 31.0449 0 20C0 8.95508 8.95508 0 20 0C31.0449 0 40 8.95508 40 20Z" fill="#F0F0F0"/>
<path d="M19.1309 20H40C40 18.1934 39.7559 16.4453 39.3066 14.7852H19.1309V20Z" fill="#D80027"/>
<path d="M19.1309 9.56055H37.0605C35.8398 7.56836 34.2773 5.80078 32.4512 4.3457H19.1309V9.56055Z" fill="#D80027"/>
<path d="M20.0003 40C24.7073 40 29.0335 38.3691 32.4514 35.6543H7.54907C10.967 38.3691 15.2932 40 20.0003 40Z" fill="#D80027"/>
<path d="M2.93945 30.4395H37.0703C38.0566 28.8379 38.8184 27.0801 39.3164 25.2246H0.693359C1.19141 27.0801 1.95312 28.8281 2.93945 30.4395Z" fill="#D80027"/>
<path d="M20 20V0C8.95508 0 0 8.95508 0 20H20Z" fill="#0052B4"/>
<path d="M13.3008 17.1191C10.5664 17.1191 8.35937 14.9023 8.35937 12.1777C8.35937 9.44336 10.5762 7.23633 13.3008 7.23633C14.1504 7.23633 14.9512 7.45117 15.6543 7.83203C14.5605 6.75781 13.0566 6.09375 11.3965 6.09375C8.03711 6.09375 5.3125 8.81836 5.3125 12.1777C5.3125 15.5371 8.03711 18.2617 11.3965 18.2617C13.0566 18.2617 14.5508 17.5977 15.6543 16.5234C14.9512 16.9043 14.1504 17.1191 13.3008 17.1191Z" fill="#FFDA44"/>
<path d="M14.6973 8.69141L15.5762 10.5273L17.5586 10.0684L16.6699 11.9043L18.2617 13.1641L16.2793 13.6133L16.2891 15.6445L14.6973 14.375L13.1055 15.6445L13.1152 13.6133L11.1328 13.1641L12.7246 11.9043L11.8359 10.0684L13.8184 10.5273L14.6973 8.69141Z" fill="#FFDA44"/>
</svg>
