<svg width="63" height="41" viewBox="0 0 63 41" fill="none" xmlns="http://www.w3.org/2000/svg">
<path d="M39.2058 7.09668H22.8398V33.6313H39.2058V7.09668Z" fill="#FF5F00"/>
<path d="M24.5255 20.366C24.5235 17.811 25.1069 15.2889 26.2318 12.9908C27.3566 10.6926 28.9933 8.67855 31.0181 7.10102C28.5103 5.14464 25.4987 3.92809 22.3274 3.5904C19.1561 3.25271 15.9531 3.80751 13.0844 5.19138C10.2158 6.57525 7.79715 8.73237 6.10505 11.4162C4.41295 14.1 3.51563 17.2023 3.51562 20.3684C3.51562 23.5345 4.41295 26.6367 6.10505 29.3206C7.79715 32.0044 10.2158 34.1615 13.0844 35.5454C15.9531 36.9292 19.1561 37.484 22.3274 37.1464C25.4987 36.8087 28.5103 35.5921 31.0181 33.6357C28.9927 32.0577 27.3556 30.0429 26.2307 27.7439C25.1059 25.4448 24.5227 22.9219 24.5255 20.366Z" fill="#EB001B"/>
<path d="M56.8988 30.8237V30.28H57.1349V30.1675H56.573V30.28H56.7949V30.8237H56.8988ZM57.9895 30.8237V30.1675H57.8195L57.6212 30.6362L57.4229 30.1675H57.2529V30.8237H57.3757V30.3269L57.5598 30.7534H57.6873L57.8715 30.3269V30.8237H57.9895Z" fill="#F79E1B"/>
<path d="M58.5231 20.3663C58.523 23.5326 57.6255 26.6351 55.9331 29.319C54.2407 32.0029 51.8217 34.16 48.9526 35.5437C46.0836 36.9273 42.8802 37.4818 39.7087 37.1436C36.5373 36.8054 33.5256 35.5883 31.0181 33.6313C33.042 32.0524 34.6783 30.0377 35.8034 27.7395C36.9285 25.4412 37.5132 22.9192 37.5132 20.364C37.5132 17.8087 36.9285 15.2867 35.8034 12.9884C34.6783 10.6902 33.042 8.67555 31.0181 7.09661C33.5256 5.13963 36.5373 3.92249 39.7087 3.58432C42.8802 3.24614 46.0836 3.80058 48.9526 5.18425C51.8217 6.56793 54.2407 8.725 55.9331 11.4089C57.6255 14.0928 58.523 17.1953 58.5231 20.3616V20.3663Z" fill="#F79E1B"/>
</svg>
