<svg width="29" height="26" viewBox="0 0 29 26" fill="none" xmlns="http://www.w3.org/2000/svg">
<path d="M1.48797 25.042H3.12314C3.57372 25.042 3.94436 24.6787 3.94436 24.2208V15.231H1.48797C1.03012 15.231 0.666748 15.6016 0.666748 16.0522V24.2281C0.666748 24.6787 1.03012 25.042 1.48797 25.042Z" fill="white"/>
<path d="M22.0331 0.521729C18.4212 0.521729 15.4924 3.45051 15.4924 7.06243C15.4924 10.6743 18.4212 13.6031 22.0331 13.6031C25.645 13.6031 28.5738 10.6743 28.5738 7.06243C28.5738 3.45051 25.645 0.521729 22.0331 0.521729ZM23.3994 9.99847C23.225 10.0857 23.036 10.1584 22.8471 10.2092V10.4345C22.8471 10.8851 22.4837 11.2485 22.0331 11.2485C21.5825 11.2485 21.2119 10.8851 21.2119 10.4345V10.2383C20.8703 10.1511 20.5506 10.0057 20.2817 9.80952C19.9183 9.54062 19.8456 9.02464 20.1145 8.66126C20.3834 8.29789 20.8994 8.22522 21.2628 8.49411C21.5898 8.7412 22.2221 8.75574 22.6654 8.53772C22.8471 8.45051 22.9416 8.3415 22.9416 8.28336C22.9416 8.18888 22.9416 8.16708 22.8325 8.10894C22.6218 7.99266 22.2439 7.92725 21.8805 7.85458C21.3936 7.76737 20.8921 7.67289 20.4561 7.44033C19.8166 7.09876 19.4823 6.53917 19.4823 5.82696C19.4823 5.10748 19.911 4.48248 20.6596 4.11184C20.834 4.02464 21.023 3.95196 21.2119 3.90109V3.6758C21.2119 3.22522 21.5753 2.85458 22.0331 2.85458C22.4837 2.85458 22.8471 3.21795 22.8471 3.6758V3.87929C23.1887 3.9665 23.5084 4.11184 23.7773 4.30807C24.1407 4.57696 24.2134 5.09295 23.9445 5.45632C23.6756 5.81969 23.1596 5.89237 22.7962 5.62347C22.4692 5.37638 21.8369 5.36184 21.3936 5.57987C21.2119 5.66708 21.1174 5.77609 21.1174 5.83423C21.1174 5.9287 21.1174 5.95051 21.2264 6.00865C21.4372 6.12493 21.8151 6.19033 22.1785 6.26301C22.6654 6.35022 23.1669 6.44469 23.6029 6.67725C24.2424 7.01882 24.5767 7.57841 24.5767 8.29062C24.584 9.00283 24.148 9.62783 23.3994 9.99847Z" fill="white"/>
<path d="M15.4269 25.4781H15.6086C18.3557 25.4417 20.9865 24.6641 23.3121 23.2615L27.876 20.0711C28.6464 19.5333 28.7917 18.5159 28.283 17.7964C27.7598 17.0406 26.7496 16.8662 26.0083 17.3894L21.626 20.4635C20.2234 21.2848 18.501 21.4592 16.9531 20.9359L11.9095 19.2717C11.488 19.1409 11.2554 18.6685 11.4008 18.2397C11.5316 17.8327 11.9531 17.6002 12.3819 17.7165C12.3964 17.7165 18.0432 19.5479 18.0432 19.5479C18.9952 19.8313 19.8383 19.2935 20.0999 18.5013C20.376 17.6365 19.9037 16.7208 19.0534 16.4447L11.3644 13.9301C9.68564 13.3197 7.4182 13.4432 5.57227 14.4752V23.6249L11.9894 25.0784C13.1595 25.3327 14.315 25.4781 15.4269 25.4781Z" fill="white"/>
</svg>
