<svg width="29" height="24" viewBox="0 0 29 24" fill="none" xmlns="http://www.w3.org/2000/svg">
<path d="M2.18323 10.1971H20.6163L14.821 4.39052C14.5354 4.10495 14.3843 3.7242 14.3843 3.32104C14.3843 2.91789 14.541 2.53713 14.821 2.25156L15.7225 1.35006C16.0081 1.0645 16.3832 0.907715 16.7864 0.907715C17.1895 0.907715 17.5703 1.0645 17.8503 1.34447L27.7835 11.2777C28.0691 11.5633 28.2259 11.9441 28.2203 12.3472C28.2203 12.7504 28.0635 13.1311 27.7835 13.4167L17.8503 23.35C17.5647 23.6355 17.1895 23.7867 16.7864 23.7867C16.3832 23.7867 16.0081 23.6299 15.7225 23.35L14.821 22.4485C14.5354 22.1629 14.3843 21.7878 14.3843 21.3846C14.3843 20.9814 14.541 20.6231 14.821 20.3375L20.6835 14.4974H2.20563C1.37692 14.4974 0.677002 13.7863 0.677002 12.952V11.6753C0.677002 10.8466 1.39372 10.1859 2.22803 10.1859" fill="#FF516A"/>
</svg>
