<svg width="54" height="49" viewBox="0 0 54 49" fill="none" xmlns="http://www.w3.org/2000/svg">
<path d="M51.127 15.4484C49.1914 15.1217 47.3012 16.2106 46.8324 17.9392L44.6851 25.1259C43.5359 24.4454 42.0691 24.4045 40.8744 25.017L34.6745 28.2973C32.1794 29.6176 30.637 32.0268 30.637 34.6401V40.8331H28.8223C28.3233 40.8331 27.915 41.2006 27.915 41.6498V48.1831C27.915 48.6323 28.3233 48.9998 28.8223 48.9998H45.1539C45.6529 48.9998 46.0612 48.6323 46.0612 48.1831V41.6498C46.0612 41.2006 45.6529 40.8331 45.1539 40.8331H43.3393V39.8804C43.3393 39.159 43.6871 38.492 44.292 38.0156L48.5261 34.749C49.2217 34.2181 49.7207 33.4968 49.9627 32.7073L53.8943 19.4773C53.9699 19.2051 54.0153 18.9192 54.0153 18.6334C54.0002 17.109 52.7904 15.7751 51.127 15.4484ZM44.2466 47.3665H29.7297V42.4665H44.2466V47.3665ZM52.1251 19.069L48.1934 32.299C48.0573 32.7754 47.7549 33.1973 47.3315 33.524L43.0974 36.7906C42.0993 37.5665 41.5096 38.6962 41.5096 39.894V40.8468H32.4365V34.6537C32.4365 32.6256 33.6311 30.7473 35.5667 29.7265L41.7666 26.4598C42.0388 26.3101 42.3564 26.242 42.6739 26.242C43.3544 26.242 43.9895 26.5823 44.292 27.1404C44.7003 27.957 44.3373 28.9234 43.4603 29.359L38.4096 31.9587C38.1979 32.0676 38.0467 32.2445 37.9862 32.4487C37.9257 32.6529 37.9559 32.8843 38.0769 33.0748C38.1979 33.2654 38.3945 33.4015 38.6213 33.4559C38.8481 33.5104 39.1052 33.4831 39.3169 33.3743L44.3978 30.7337C45.9705 29.9443 46.6812 28.2565 46.0915 26.732L48.5866 18.3612C48.8285 17.4901 49.7661 16.9184 50.749 17.0545C51.5807 17.2179 52.1856 17.8712 52.1856 18.647C52.1856 18.7831 52.1704 18.9329 52.1251 19.069Z" fill="#FA304D"/>
<path d="M25.1928 40.8333H23.3782V34.6402C23.3782 32.0405 21.8358 29.6177 19.3407 28.2975L13.1256 25.0172C11.931 24.4047 10.4642 24.4455 9.31494 25.1261L7.16764 17.9394C6.69886 16.2244 4.80864 15.1355 2.87305 15.4486C1.90525 15.6391 1.05843 16.17 0.529164 16.9322C-9.91765e-05 17.6944 -0.151317 18.62 0.105754 19.4911L4.03743 32.7211C4.27937 33.5105 4.77839 34.2319 5.45888 34.7627L9.69298 38.0294C10.2979 38.4922 10.6457 39.1727 10.6457 39.8941V40.8469H8.83104C8.33202 40.8469 7.92373 41.2144 7.92373 41.6636V48.1969C7.92373 48.6461 8.33202 49.0136 8.83104 49.0136H25.1626C25.6616 49.0136 26.0699 48.6461 26.0699 48.1969V41.6636C26.1002 41.2008 25.6919 40.8333 25.1928 40.8333ZM10.9027 36.7908L6.66862 33.5241C6.24521 33.1975 5.9579 32.7755 5.80668 32.2991L1.87501 19.0691C1.82964 18.933 1.81452 18.7833 1.81452 18.6472C1.81452 17.8714 2.41939 17.218 3.25109 17.0547C4.23401 16.9186 5.18668 17.4902 5.41351 18.3614L7.90861 26.7322C7.31886 28.2566 8.02958 29.958 9.60225 30.7339L14.6832 33.3744C14.8949 33.4833 15.1368 33.5105 15.3788 33.4561C15.6056 33.4016 15.8173 33.2655 15.9232 33.075C16.0441 32.8844 16.0744 32.6666 16.0139 32.4489C15.9534 32.2447 15.8022 32.0677 15.5905 31.9589L10.5096 29.3183C9.6325 28.8964 9.26957 27.93 9.67786 27.0997C9.9803 26.5552 10.6154 26.2014 11.2959 26.215C11.6135 26.215 11.9159 26.283 12.2032 26.4327L18.4031 29.713C20.3387 30.7475 21.5334 32.6122 21.5334 34.6402V40.8333H12.4603V39.8805C12.4905 38.6964 11.9159 37.5666 10.9027 36.7908ZM24.2855 47.3666H9.76859V42.4666H24.2855V47.3666Z" fill="#FA304D"/>
<path d="M41.5246 11.1067V0.816651C41.5246 0.530818 41.3583 0.258596 41.0709 0.108874C40.7836 -0.0408485 40.4509 -0.0408485 40.1636 0.108874L38.8632 0.775818C35.9749 2.27304 32.4364 2.35471 29.4574 1.00721L27.4008 0.0816515C27.1437 -0.0272374 26.8413 -0.0272374 26.5842 0.0816515L24.5428 1.00721C21.5638 2.35471 18.0253 2.27304 15.1219 0.775818L13.8365 0.108874C13.5492 -0.0408485 13.2166 -0.0408485 12.9292 0.108874C12.6419 0.258596 12.4756 0.530818 12.4756 0.816651V11.1067C12.4756 18.6472 17.1029 25.5753 24.4974 29.1278L26.5842 30.1214C26.8564 30.2439 27.174 30.2439 27.4311 30.1214L29.5179 29.1278C36.9124 25.5753 41.5246 18.6472 41.5246 11.1067ZM27.0077 28.4744L25.3594 27.685C18.5546 24.4319 14.3053 18.0483 14.3053 11.1067V2.23221C17.7229 3.96082 21.8662 4.0561 25.3745 2.47721L27.0077 1.74221L28.6559 2.47721C32.1642 4.0561 36.3076 3.96082 39.7251 2.23221V11.1203C39.7402 18.0619 35.4759 24.4319 28.6711 27.6986L27.0077 28.4744Z" fill="#FA304D"/>
<path d="M37.8951 5.74401C37.8951 5.49901 37.7741 5.26763 37.5624 5.10429C37.3507 4.95457 37.0634 4.88651 36.8063 4.94096C33.782 5.52624 30.6215 5.15874 27.8542 3.92013L27.4308 3.72957C27.1737 3.60707 26.8713 3.60707 26.6142 3.72957L26.1908 3.92013C23.4235 5.15874 20.2631 5.51263 17.2236 4.94096C16.9514 4.88651 16.6792 4.95457 16.4675 5.10429C16.2558 5.25401 16.1348 5.4854 16.1348 5.74401V11.1068C16.1197 17.436 20.006 23.2615 26.2211 26.2423L26.5991 26.4193C26.8713 26.5418 27.1889 26.5418 27.4459 26.4193L27.824 26.2423C34.039 23.2615 37.9253 17.4496 37.9102 11.1068V5.74401H37.8951ZM36.0805 11.1068C36.0805 16.8235 32.6025 22.0773 27.0074 24.7723C21.4123 22.0773 17.9343 16.8235 17.9343 11.1068V6.72401C21.0343 7.10513 24.1947 6.64235 26.9923 5.39013L27.0074 5.37651L27.0225 5.39013C29.82 6.64235 32.9805 7.10513 36.0805 6.72401V11.1068Z" fill="#FA304D"/>
<path d="M32.1337 9.74543L25.1928 15.9929L22.365 13.4477C22.0021 13.1346 21.4426 13.1482 21.0948 13.4613C20.747 13.7743 20.747 14.2915 21.0797 14.6046L24.5577 17.7352C24.9055 18.0482 25.4801 18.0482 25.8431 17.7352L33.4191 10.9024C33.6005 10.7527 33.6913 10.5349 33.6913 10.3171C33.6913 10.0993 33.6005 9.88154 33.4191 9.73182C33.2527 9.58209 33.0108 9.48682 32.7688 9.48682C32.542 9.50043 32.3001 9.58209 32.1337 9.74543Z" fill="#FA304D"/>
</svg>
