<svg width="24" height="24" viewBox="0 0 24 24" fill="none" xmlns="http://www.w3.org/2000/svg">
<path d="M8.49585 18.1763V22.512C8.49585 22.8348 8.68035 23.1116 9.00322 23.2038C9.09547 23.25 9.14159 23.2499 9.23384 23.2499C9.46446 23.2499 9.69508 23.1577 9.83345 22.9732L12.3703 19.5139L8.49585 18.1763Z" fill="white"/>
<path d="M23.1168 0.879674C22.8862 0.741301 22.6095 0.695176 22.3327 0.833549L0.377491 12.3185C0.100745 12.4569 -0.0376279 12.7336 0.00849647 13.0104C0.00849647 13.2871 0.239118 13.5639 0.515864 13.6561L6.05079 15.5472L20.9951 3.50876L8.49539 16.4236L19.7497 20.298C19.842 20.3442 19.8881 20.3442 19.9804 20.3442C20.1187 20.3442 20.2571 20.298 20.3494 20.2519C20.5339 20.1597 20.6722 19.929 20.6722 19.7445L23.3474 1.66379C23.4397 1.34092 23.3474 1.06417 23.1168 0.879674Z" fill="white"/>
</svg>
