<svg width="40" height="40" viewBox="0 0 40 40" fill="none" xmlns="http://www.w3.org/2000/svg">
<path d="M40 20C40 31.0449 31.0449 40 20 40C8.95508 40 0 31.0449 0 20C0 8.95508 8.95508 0 20 0C31.0449 0 40 8.95508 40 20Z" fill="#F0F0F0"/>
<path d="M0 20C0 8.95508 8.95508 0 20 0C31.0449 0 40 8.95508 40 20" fill="#D80027"/>
<path d="M12.1777 10.4395C12.1777 7.5293 14.2285 5.08789 16.9629 4.49219C16.543 4.4043 16.1035 4.35547 15.6543 4.35547C12.2949 4.35547 9.57031 7.08008 9.57031 10.4395C9.57031 13.7988 12.2949 16.5234 15.6543 16.5234C16.1035 16.5234 16.543 16.4746 16.9629 16.3867C14.2188 15.7813 12.1777 13.3496 12.1777 10.4395Z" fill="#F0F0F0"/>
<path d="M20 4.78516L20.4297 6.11328H21.8262L20.7031 6.93359L21.1328 8.26172L20 7.44141L18.8672 8.26172L19.2969 6.93359L18.1641 6.11328H19.5605L20 4.78516Z" fill="#F0F0F0"/>
<path d="M16.6111 7.39258L17.0408 8.72071H18.4373L17.3044 9.54102L17.7341 10.8691L16.6013 10.0488L15.4685 10.8691L15.8982 9.54102L14.7654 8.72071H16.1619L16.6111 7.39258Z" fill="#F0F0F0"/>
<path d="M23.3887 7.39258L23.8184 8.72071H25.2148L24.082 9.54102L24.5117 10.8691L23.3789 10.0488L22.2461 10.8691L22.6758 9.54102L21.543 8.72071H22.9395L23.3887 7.39258Z" fill="#F0F0F0"/>
<path d="M22.0798 11.3086L22.5095 12.6367H23.906L22.7732 13.457L23.2029 14.7852L22.0701 13.9648L20.9373 14.7852L21.3669 13.457L20.2341 12.6367H21.6306L22.0798 11.3086Z" fill="#F0F0F0"/>
<path d="M17.9199 11.3086L18.3496 12.6367H19.7461L18.6133 13.457L19.043 14.7852L17.9102 13.9648L16.7773 14.7852L17.207 13.457L16.0742 12.6367H17.4805L17.9199 11.3086Z" fill="#F0F0F0"/>
</svg>
