<svg width="35" height="25" viewBox="0 0 35 25" fill="none" xmlns="http://www.w3.org/2000/svg">
<path d="M32.5979 13.9434C31.6175 12.7179 30.3376 11.9009 28.8125 11.5468C29.3027 10.8115 29.5478 9.99455 29.5478 9.09586C29.5478 7.84314 29.1121 6.78105 28.2134 5.88235C27.3147 4.98366 26.2526 4.54793 24.9999 4.54793C23.8833 4.54793 22.9029 4.90196 22.0587 5.63726C21.3507 3.92157 20.2341 2.55991 18.709 1.52505C17.1567 0.517429 15.4683 0 13.6437 0C11.111 0 8.98682 0.898693 7.21666 2.66885C5.44651 4.439 4.54782 6.59041 4.54782 9.09586C4.54782 9.25926 4.54782 9.50436 4.57505 9.85839C3.18616 10.512 2.06961 11.4924 1.22538 12.7996C0.408386 14.1068 -0.0273438 15.5229 -0.0273438 17.0479C-0.0273438 19.2266 0.762417 21.1057 2.3147 22.658C3.86699 24.2102 5.74608 25 7.92473 25H27.233C29.1121 25 30.7188 24.3464 32.0533 23.012C33.3877 21.6776 34.0413 20.0708 34.0413 18.1917C34.0685 16.585 33.5783 15.1688 32.5979 13.9434ZM22.5489 13.4532C22.44 13.5621 22.3038 13.6166 22.1404 13.6166H18.1644V19.8802C18.1644 20.0436 18.1099 20.1797 18.001 20.2887C17.892 20.3976 17.7559 20.4521 17.5925 20.4521H14.1883C14.0249 20.4521 13.8888 20.3976 13.7798 20.2887C13.6709 20.1797 13.6164 20.0436 13.6164 19.8802V13.6438H9.66764C9.50425 13.6438 9.36808 13.5893 9.25915 13.4804C9.15022 13.3715 9.09575 13.2353 9.09575 13.0719C9.09575 12.9357 9.15022 12.7996 9.28638 12.6362L15.5228 6.39978C15.6317 6.29085 15.7679 6.23638 15.9313 6.23638C16.0947 6.23638 16.2308 6.29085 16.3398 6.39978L22.5761 12.6362C22.6851 12.7451 22.7395 12.8813 22.7395 13.0447C22.7123 13.2081 22.6578 13.3442 22.5489 13.4532Z" fill="#10DFAD"/>
</svg>
