<svg width="97" height="101" viewBox="0 0 97 101" fill="none" xmlns="http://www.w3.org/2000/svg">
<g clip-path="url(#clip0)">
<g filter="url(#filter0_d)">
<path d="M37.3054 82.6155L41.2862 58.3848H47.7522L43.7495 82.6155H37.3054Z" fill="#1A1F71"/>
<path d="M66.7326 59.0181C65.4569 58.5204 63.4556 58 60.9483 58C54.5703 58 50.0616 61.2805 50.0396 65.9864C49.9956 69.4706 53.2507 71.4163 55.6919 72.5701C58.1992 73.7466 59.0569 74.5158 59.0349 75.5792C59.0129 77.2082 57.0335 77.9548 55.1641 77.9548C52.5909 77.9548 51.2053 77.5928 49.0939 76.6878L48.2582 76.3032L47.3564 81.733C48.874 82.4118 51.6451 83 54.5483 83.0226C61.3442 83.0226 65.7429 79.7647 65.7868 74.7421C65.8088 71.9819 64.0934 69.9005 60.3545 68.1584C58.0892 67.0498 56.7256 66.2806 56.7256 65.1493C56.7256 64.1539 57.8912 63.0679 60.4205 63.0679C62.5318 63.0453 64.0714 63.4977 65.259 63.9955L65.8308 64.267L66.7326 59.0181Z" fill="#1A1F71"/>
<path d="M77.7511 58.3848C76.2116 58.3848 75.0899 58.8599 74.4082 60.4436L64.8411 82.6155H71.681L73.0006 78.9051H81.1601L81.9299 82.6155H88L82.6776 58.3848H77.7511ZM74.804 74.0635C75.3319 72.6608 77.3773 67.2988 77.3773 67.2988C77.3333 67.3667 77.9051 65.8961 78.235 64.9911L78.6749 67.0725C78.6749 67.0725 79.9065 72.8644 80.1704 74.0635H74.804Z" fill="#1A1F71"/>
<path d="M25.517 74.9911L24.9452 71.6653C23.7575 67.7965 20.1066 63.611 16.0159 61.5069L21.7121 82.6155H28.5521L38.823 58.3848H31.983L25.517 74.9911Z" fill="#1A1F71"/>
<path d="M9 58.3848V58.7694C17.0935 60.7829 22.7238 65.8508 24.9452 71.6653L22.6139 60.4662C22.218 58.9278 21.0303 58.4526 19.6448 58.3848H9Z" fill="#1A1F71"/>
</g>
</g>
<path d="M56.2058 7.09668H39.8398V33.6313H56.2058V7.09668Z" fill="#FF5F00"/>
<path d="M41.5255 20.366C41.5235 17.811 42.1069 15.2889 43.2318 12.9908C44.3566 10.6926 45.9933 8.67855 48.0181 7.10102C45.5103 5.14464 42.4987 3.92809 39.3274 3.5904C36.1561 3.25271 32.9531 3.80751 30.0844 5.19138C27.2158 6.57525 24.7972 8.73237 23.1051 11.4162C21.413 14.1 20.5156 17.2023 20.5156 20.3684C20.5156 23.5345 21.413 26.6367 23.1051 29.3206C24.7972 32.0044 27.2158 34.1615 30.0844 35.5454C32.9531 36.9292 36.1561 37.484 39.3274 37.1464C42.4987 36.8087 45.5103 35.5921 48.0181 33.6357C45.9927 32.0577 44.3556 30.0429 43.2307 27.7439C42.1059 25.4448 41.5227 22.9219 41.5255 20.366Z" fill="#EB001B"/>
<path d="M73.8988 30.8237V30.28H74.1349V30.1675H73.573V30.28H73.7949V30.8237H73.8988ZM74.9895 30.8237V30.1675H74.8195L74.6212 30.6362L74.4229 30.1675H74.2529V30.8237H74.3757V30.3269L74.5598 30.7534H74.6873L74.8715 30.3269V30.8237H74.9895Z" fill="#F79E1B"/>
<path d="M75.5231 20.3663C75.523 23.5326 74.6255 26.6351 72.9331 29.319C71.2407 32.0029 68.8217 34.16 65.9526 35.5437C63.0836 36.9273 59.8802 37.4818 56.7087 37.1436C53.5373 36.8054 50.5256 35.5883 48.0181 33.6313C50.042 32.0524 51.6783 30.0377 52.8034 27.7395C53.9285 25.4412 54.5132 22.9192 54.5132 20.364C54.5132 17.8087 53.9285 15.2867 52.8034 12.9884C51.6783 10.6902 50.042 8.67555 48.0181 7.09661C50.5256 5.13963 53.5373 3.92249 56.7087 3.58432C59.8802 3.24614 63.0836 3.80058 65.9526 5.18425C68.8217 6.56793 71.2407 8.725 72.9331 11.4089C74.6255 14.0928 75.523 17.1953 75.5231 20.3616V20.3663Z" fill="#F79E1B"/>
<defs>
<filter id="filter0_d" x="0" y="58" width="97" height="43.0226" filterUnits="userSpaceOnUse" color-interpolation-filters="sRGB">
<feFlood flood-opacity="0" result="BackgroundImageFix"/>
<feColorMatrix in="SourceAlpha" type="matrix" values="0 0 0 0 0 0 0 0 0 0 0 0 0 0 0 0 0 0 127 0"/>
<feOffset dy="9"/>
<feGaussianBlur stdDeviation="4.5"/>
<feColorMatrix type="matrix" values="0 0 0 0 0 0 0 0 0 0 0 0 0 0 0 0 0 0 0.25 0"/>
<feBlend mode="normal" in2="BackgroundImageFix" result="effect1_dropShadow"/>
<feBlend mode="normal" in="SourceGraphic" in2="effect1_dropShadow" result="shape"/>
</filter>
<clipPath id="clip0">
<rect width="97" height="43" fill="white" transform="translate(0 58)"/>
</clipPath>
</defs>
</svg>
