<svg width="81" height="25" viewBox="0 0 81 25" fill="none" xmlns="http://www.w3.org/2000/svg">
<g clip-path="url(#clip0)">
<path d="M28.7253 24.6153L32.7652 0.384521H39.3272L35.265 24.6153H28.7253Z" fill="#293688"/>
<path d="M58.589 1.0181C57.2944 0.520362 55.2633 0 52.7189 0C46.2462 0 41.6706 3.28054 41.6483 7.98643C41.6037 11.4706 44.907 13.4163 47.3845 14.5701C49.9289 15.7466 50.7994 16.5158 50.7771 17.5792C50.7547 19.2082 48.746 19.9548 46.8488 19.9548C44.2374 19.9548 42.8312 19.5928 40.6886 18.6878L39.8404 18.3032L38.9253 23.733C40.4654 24.4118 43.2776 25 46.2238 25.0226C53.1206 25.0226 57.5846 21.7647 57.6292 16.7421C57.6515 13.9819 55.9106 11.9005 52.1162 10.1584C49.8173 9.04978 48.4335 8.28055 48.4335 7.14932C48.4335 6.15385 49.6164 5.06787 52.1832 5.06787C54.3259 5.04525 55.8883 5.49774 57.0935 5.99548L57.6738 6.26697L58.589 1.0181Z" fill="#293688"/>
<path d="M69.7713 0.384521C68.209 0.384521 67.0707 0.859635 66.3787 2.44335L56.6697 24.6153H63.6111L64.9503 20.9049H73.2309L74.0121 24.6153H80.1723L74.771 0.384521H69.7713ZM66.7805 16.0633C67.3162 14.6605 69.3919 9.29855 69.3919 9.29855C69.3473 9.36642 69.9276 7.89583 70.2624 6.99086L70.7088 9.0723C70.7088 9.0723 71.9587 14.8642 72.2265 16.0633H66.7805Z" fill="#293688"/>
<path d="M16.762 16.9909L16.1817 13.6651C14.9764 9.79629 11.2713 5.61077 7.11987 3.50669L12.9007 24.6153H19.8421L30.2654 0.384521H23.324L16.762 16.9909Z" fill="#293688"/>
<path d="M0 0.384521V0.769137C8.21365 2.78271 13.9275 7.85058 16.1818 13.6651L13.8159 2.46597C13.4141 0.927508 12.2089 0.452395 10.8027 0.384521H0Z" fill="#F7981D"/>
</g>
<defs>
<clipPath id="clip0">
<rect width="80.1724" height="25" fill="white"/>
</clipPath>
</defs>
</svg>
