<svg width="97" height="43" viewBox="0 0 97 43" fill="none" xmlns="http://www.w3.org/2000/svg">
<g clip-path="url(#clip0)" filter="url(#filter0_d)">
<path d="M37.3054 24.6155L41.2862 0.384766H47.7522L43.7495 24.6155H37.3054Z" fill="#1A1F71"/>
<path d="M66.7326 1.0181C65.4569 0.520362 63.4556 0 60.9483 0C54.5703 0 50.0616 3.28054 50.0396 7.98643C49.9956 11.4706 53.2507 13.4163 55.6919 14.5701C58.1992 15.7466 59.0569 16.5158 59.0349 17.5792C59.0129 19.2082 57.0335 19.9548 55.1641 19.9548C52.5909 19.9548 51.2053 19.5928 49.0939 18.6878L48.2582 18.3032L47.3564 23.733C48.874 24.4118 51.6451 25 54.5483 25.0226C61.3442 25.0226 65.7429 21.7647 65.7868 16.7421C65.8088 13.9819 64.0934 11.9005 60.3545 10.1584C58.0892 9.04978 56.7256 8.28055 56.7256 7.14932C56.7256 6.15385 57.8912 5.06787 60.4205 5.06787C62.5318 5.04525 64.0714 5.49774 65.259 5.99548L65.8308 6.26697L66.7326 1.0181Z" fill="#1A1F71"/>
<path d="M77.7511 0.384766C76.2116 0.384766 75.0899 0.859879 74.4082 2.44359L64.8411 24.6155H71.681L73.0006 20.9051H81.1601L81.9299 24.6155H88L82.6776 0.384766H77.7511ZM74.804 16.0635C75.3319 14.6608 77.3773 9.29879 77.3773 9.29879C77.3333 9.36667 77.9051 7.89608 78.235 6.9911L78.6749 9.07255C78.6749 9.07255 79.9065 14.8644 80.1704 16.0635H74.804Z" fill="#1A1F71"/>
<path d="M25.517 16.9911L24.9452 13.6653C23.7575 9.79653 20.1066 5.61101 16.0159 3.50694L21.7121 24.6155H28.5521L38.823 0.384766H31.983L25.517 16.9911Z" fill="#1A1F71"/>
<path d="M9 0.384766V0.769381C17.0935 2.78295 22.7238 7.85083 24.9452 13.6653L22.6139 2.46621C22.218 0.927752 21.0303 0.452639 19.6448 0.384766H9Z" fill="#1A1F71"/>
</g>
<defs>
<filter id="filter0_d" x="0" y="0" width="97" height="43" filterUnits="userSpaceOnUse" color-interpolation-filters="sRGB">
<feFlood flood-opacity="0" result="BackgroundImageFix"/>
<feColorMatrix in="SourceAlpha" type="matrix" values="0 0 0 0 0 0 0 0 0 0 0 0 0 0 0 0 0 0 127 0"/>
<feOffset dy="9"/>
<feGaussianBlur stdDeviation="4.5"/>
<feColorMatrix type="matrix" values="0 0 0 0 0 0 0 0 0 0 0 0 0 0 0 0 0 0 0.25 0"/>
<feBlend mode="normal" in2="BackgroundImageFix" result="effect1_dropShadow"/>
<feBlend mode="normal" in="SourceGraphic" in2="effect1_dropShadow" result="shape"/>
</filter>
<clipPath id="clip0">
<rect width="79" height="25" fill="white" transform="translate(9)"/>
</clipPath>
</defs>
</svg>
