<svg width="170" height="51" viewBox="0 0 170 51" fill="none" xmlns="http://www.w3.org/2000/svg">
<g clip-path="url(#clip0)" filter="url(#filter0_d)">
<path d="M37.3054 32.6154L41.2861 8.38461H47.7522L43.7494 32.6154H37.3054Z" fill="white"/>
<path d="M66.7324 9.0181C65.4568 8.52036 63.4554 8 60.9482 8C54.5701 8 50.0615 11.2805 50.0395 15.9864C49.9955 19.4706 53.2505 21.4163 55.6918 22.5701C58.199 23.7466 59.0568 24.5158 59.0348 25.5792C59.0128 27.2082 57.0334 27.9548 55.164 27.9548C52.5907 27.9548 51.2052 27.5928 49.0938 26.6878L48.2581 26.3032L47.3563 31.733C48.8739 32.4118 51.645 33 54.5481 33.0226C61.3441 33.0226 65.7427 29.7647 65.7867 24.7421C65.8087 21.9819 64.0932 19.9005 60.3544 18.1584C58.0891 17.0498 56.7255 16.2805 56.7255 15.1493C56.7255 14.1538 57.8911 13.0679 60.4204 13.0679C62.5317 13.0453 64.0712 13.4977 65.2589 13.9955L65.8307 14.267L66.7324 9.0181Z" fill="white"/>
<path d="M77.7511 8.38461C76.2116 8.38461 75.09 8.85973 74.4082 10.4434L64.8411 32.6154H71.681L73.0006 28.905H81.1601L81.9299 32.6154H88L82.6776 8.38461H77.7511ZM74.804 24.0633C75.3319 22.6606 77.3773 17.2986 77.3773 17.2986C77.3333 17.3665 77.9051 15.8959 78.235 14.9909L78.6749 17.0724C78.6749 17.0724 79.9065 22.8643 80.1704 24.0633H74.804Z" fill="white"/>
<path d="M25.517 24.9909L24.9452 21.6652C23.7575 17.7964 20.1066 13.6109 16.0159 11.5068L21.7121 32.6154H28.5521L38.823 8.38461H31.983L25.517 24.9909Z" fill="white"/>
<path d="M9 8.38461V8.76923C17.0935 10.7828 22.7238 15.8507 24.9452 21.6652L22.6139 10.4661C22.218 8.9276 21.0303 8.45249 19.6448 8.38461H9Z" fill="white"/>
</g>
<path d="M146.206 6.96893H129.84V33.0265H146.206V6.96893Z" fill="#FF5F00"/>
<path d="M131.525 20C131.523 17.4909 132.107 15.0142 133.232 12.7573C134.357 10.5005 135.993 8.52267 138.018 6.9735C135.51 5.05231 132.499 3.85764 129.327 3.52602C126.156 3.1944 122.953 3.73922 120.084 5.0982C117.216 6.45719 114.797 8.57551 113.105 11.2111C111.413 13.8466 110.516 16.8931 110.516 20.0023C110.516 23.1115 111.413 26.1579 113.105 28.7935C114.797 31.429 117.216 33.5474 120.084 34.9063C122.953 36.2653 126.156 36.8101 129.327 36.4785C132.499 36.1469 135.51 34.9522 138.018 33.031C135.993 31.4814 134.356 29.5028 133.231 27.2451C132.106 24.9874 131.523 22.5099 131.525 20V20Z" fill="#EB001B"/>
<path d="M163.899 30.2693V29.7353H164.135V29.6249H163.573V29.7353H163.795V30.2693H163.899ZM164.99 30.2693V29.6249H164.82L164.621 30.0852L164.423 29.6249H164.253V30.2693H164.376V29.7814L164.56 30.2002H164.687L164.871 29.7814V30.2693H164.99Z" fill="#F79E1B"/>
<path d="M165.523 20C165.523 23.1094 164.625 26.156 162.933 28.7917C161.241 31.4273 158.822 33.5456 155.953 34.9044C153.084 36.2632 149.88 36.8077 146.709 36.4756C143.537 36.1435 140.526 34.9482 138.018 33.0264C140.042 31.4759 141.678 29.4975 142.803 27.2405C143.929 24.9836 144.513 22.507 144.513 19.9977C144.513 17.4883 143.929 15.0117 142.803 12.7548C141.678 10.4978 140.042 8.51943 138.018 6.96888C140.526 5.0471 143.537 3.85184 146.709 3.51975C149.88 3.18765 153.084 3.73212 155.953 5.09091C158.822 6.4497 161.241 8.56799 162.933 11.2036C164.625 13.8393 165.523 16.8859 165.523 19.9954V20Z" fill="#F79E1B"/>
<defs>
<filter id="filter0_d" x="0" y="8" width="97" height="43" filterUnits="userSpaceOnUse" color-interpolation-filters="sRGB">
<feFlood flood-opacity="0" result="BackgroundImageFix"/>
<feColorMatrix in="SourceAlpha" type="matrix" values="0 0 0 0 0 0 0 0 0 0 0 0 0 0 0 0 0 0 127 0"/>
<feOffset dy="9"/>
<feGaussianBlur stdDeviation="4.5"/>
<feColorMatrix type="matrix" values="0 0 0 0 0 0 0 0 0 0 0 0 0 0 0 0 0 0 0.25 0"/>
<feBlend mode="normal" in2="BackgroundImageFix" result="effect1_dropShadow"/>
<feBlend mode="normal" in="SourceGraphic" in2="effect1_dropShadow" result="shape"/>
</filter>
<clipPath id="clip0">
<rect width="79" height="25" fill="white" transform="translate(9 8)"/>
</clipPath>
</defs>
</svg>
