<svg width="68" height="50" viewBox="0 0 68 50" fill="none" xmlns="http://www.w3.org/2000/svg">
<path d="M2.0595 37.2998H16.2471V48.2837C16.2471 49.1991 17.1625 50 18.1922 50H65.4462C66.5904 50 67.3913 49.1991 67.3913 48.2837V22.4256C67.3913 21.5103 66.476 20.7094 65.4462 20.7094H53.0892V16.0183V7.09382V2.0595C53.0892 0.915332 52.1739 0 51.0297 0H2.0595C0.91533 0 0 0.915332 0 2.0595V7.09382V16.0183V35.2403C0.11442 36.3844 1.02975 37.2998 2.0595 37.2998ZM17.9634 22.54C17.9634 22.54 18.0778 22.4256 18.1922 22.4256H25.286C24.8284 26.3158 21.8535 29.405 17.9634 29.7483V22.54ZM56.6362 22.4256C57.0938 27.2311 60.8696 31.1213 65.6751 31.4645V39.2448C60.8696 39.7025 56.9794 43.4783 56.6362 48.2837H27.0023C26.5446 43.4783 22.7689 39.5881 17.9634 39.2448V31.4645C22.7689 31.0069 26.659 27.2311 27.0023 22.4256H56.6362ZM17.9634 48.2837V40.9611C21.8535 41.3043 24.9428 44.3936 25.286 48.2837H18.1922C18.0778 48.3982 17.9634 48.2837 17.9634 48.2837ZM65.4462 48.3982H58.3524C58.8101 44.508 61.7849 41.4188 65.6751 41.0755V48.2837C65.6751 48.2837 65.5606 48.3982 65.4462 48.3982ZM65.6751 22.4256V29.7483C61.7849 29.405 58.6956 26.3158 58.3524 22.4256H65.4462C65.5606 22.4256 65.6751 22.54 65.6751 22.4256ZM18.1922 20.7094C17.0481 20.7094 16.2471 21.5103 16.2471 22.4256V35.4691H2.0595C1.94508 35.4691 1.71625 35.3547 1.71625 35.1259V16.8192H51.373V20.7094H18.1922ZM1.83066 7.89474H51.4874V15.103H1.83066V7.89474ZM2.0595 1.71625H51.1442C51.2586 1.71625 51.4874 1.83066 51.4874 2.0595V6.17849H1.83066V2.0595C1.83066 1.94508 1.94508 1.71625 2.0595 1.71625Z" fill="#FA304D"/>
<path d="M11.3272 27.1167C10.5263 27.1167 9.7254 27.4599 9.1533 27.9176C8.5812 27.4599 7.7803 27.1167 6.9794 27.1167C5.14871 27.1167 3.54688 28.6041 3.54688 30.5492C3.54688 32.3798 5.03429 33.9817 6.9794 33.9817C7.7803 33.9817 8.5812 33.6384 9.1533 33.1808C9.7254 33.6384 10.5263 33.9817 11.3272 33.9817C13.1579 33.9817 14.7597 32.4943 14.7597 30.5492C14.7597 28.7185 13.2723 27.1167 11.3272 27.1167ZM5.37754 30.5492C5.37754 29.6339 6.1785 28.8329 7.0938 28.8329C7.5515 28.8329 7.8947 29.0618 8.2379 29.2906C8.1235 29.6339 8.0091 30.0915 8.0091 30.5492C8.0091 31.0069 8.1235 31.3501 8.2379 31.8078C7.8947 32.151 7.5515 32.2654 7.0938 32.2654C6.1785 32.2654 5.37754 31.4645 5.37754 30.5492ZM11.3272 32.2654C10.4119 32.2654 9.6109 31.4645 9.6109 30.5492C9.6109 29.6339 10.4119 28.8329 11.3272 28.8329C12.2425 28.8329 13.0434 29.6339 13.0434 30.5492C13.0434 31.4645 12.2425 32.2654 11.3272 32.2654Z" fill="#FA304D"/>
<path d="M41.8761 46.1096C47.7114 46.1096 52.5169 41.3041 52.5169 35.4689C52.5169 29.6336 47.7114 24.8281 41.8761 24.8281C36.0409 24.8281 31.2354 29.6336 31.2354 35.4689C31.121 41.3041 35.9265 46.1096 41.8761 46.1096ZM41.8761 26.43C46.796 26.43 50.8006 30.4345 50.8006 35.3544C50.8006 40.2743 46.796 44.2789 41.8761 44.2789C36.9562 44.2789 32.9516 40.2743 32.9516 35.3544C32.9516 30.4345 36.8418 26.43 41.8761 26.43Z" fill="#FA304D"/>
<path d="M39.1305 39.2447C39.3593 39.4736 39.7026 39.7024 40.0458 39.9312C40.2747 40.0456 40.6179 40.1601 40.9612 40.1601V41.9907C40.9612 42.4484 41.3044 42.906 41.8765 42.906C42.4486 42.906 42.7918 42.5628 42.7918 41.9907V40.1601C43.2495 40.0456 43.5927 39.9312 43.936 39.7024C44.3937 39.4736 44.7369 39.0159 44.9657 38.6726C45.1946 38.215 45.309 37.7573 45.309 37.2996C45.309 36.9564 45.1946 36.4987 45.0802 36.1555C44.9657 35.8122 44.7369 35.5834 44.5081 35.2401C44.2792 35.0113 43.936 34.7825 43.5927 34.6681C43.3639 34.5536 43.0207 34.4392 42.7918 34.4392V31.8076C43.1351 32.0365 43.2495 32.2653 43.3639 32.723C43.4783 33.1806 43.8216 33.4095 44.1648 33.4095C44.3937 33.4095 44.6225 33.2951 44.7369 33.1806C44.8513 33.0662 44.9657 32.8374 44.9657 32.6086C44.9657 32.3797 44.9657 32.1509 44.8513 31.9221C44.7369 31.6932 44.6225 31.4644 44.3937 31.2356C44.1648 30.8923 43.8216 30.7779 43.4783 30.5491C43.2495 30.4346 43.0207 30.4346 42.6774 30.3202V28.8328C42.6774 28.3751 42.3342 27.9175 41.7621 27.9175C41.19 27.9175 40.8468 28.2607 40.8468 28.8328V30.3202C40.1603 30.4346 39.5882 30.6635 39.2449 31.1211C38.7873 31.5788 38.5584 32.2653 38.5584 32.9518C38.5584 33.5239 38.6728 33.9816 38.9017 34.3248C39.1305 34.6681 39.4738 35.0113 39.817 35.1257C40.1603 35.2401 40.5035 35.3546 40.8468 35.5834V38.5582C40.7323 38.5582 40.6179 38.4438 40.6179 38.3294C40.3891 38.215 40.2747 37.9861 40.2747 37.7573C40.1603 37.5285 40.0458 37.2996 39.9314 36.9564C39.9314 36.842 39.817 36.6131 39.7026 36.6131C39.5882 36.4987 39.3593 36.4987 39.2449 36.4987C39.0161 36.4987 38.7873 36.6131 38.6728 36.7276C38.5584 36.842 38.3296 37.2996 38.3296 37.5285C38.3296 37.7573 38.444 38.1006 38.5584 38.4438C38.6728 38.7871 38.9017 38.9015 39.1305 39.2447ZM43.2495 36.6131C43.4783 36.842 43.5927 37.0708 43.5927 37.5285C43.5927 37.8717 43.4783 38.215 43.2495 38.4438C43.1351 38.5582 42.9062 38.6726 42.6774 38.7871V36.2699C42.9062 36.3843 43.1351 36.4987 43.2495 36.6131ZM40.5035 33.6383C40.2747 33.4095 40.1603 33.1806 40.1603 32.8374C40.1603 32.4941 40.2747 32.1509 40.5035 32.0365C40.6179 31.9221 40.7323 31.8076 40.9612 31.8076V33.9816C40.8468 33.8671 40.6179 33.7527 40.5035 33.6383Z" fill="#FA304D"/>
</svg>
