<svg width="68" height="50" viewBox="0 0 68 50" fill="none" xmlns="http://www.w3.org/2000/svg">
<path d="M2.0595 37.2998H16.2471V48.2838C16.2471 49.1991 17.1625 50 18.1922 50H65.4462C66.5904 50 67.3913 49.1991 67.3913 48.2838V22.4256C67.3913 21.5103 66.476 20.7094 65.4462 20.7094H53.0892V16.0183V7.09382V2.0595C53.0892 0.915332 52.1739 0 51.0297 0H2.0595C0.915332 0 0 0.915332 0 2.0595V7.09382V16.0183V35.2403C0.114416 36.3844 1.02975 37.2998 2.0595 37.2998ZM17.9634 22.54C17.9634 22.54 18.0778 22.4256 18.1922 22.4256H25.286C24.8284 26.3158 21.8535 29.405 17.9634 29.7483V22.54ZM56.6362 22.4256C57.0938 27.2311 60.8696 31.1213 65.6751 31.4645V39.2448C60.8696 39.7025 56.9794 43.4783 56.6362 48.2838H27.0023C26.5446 43.4783 22.7689 39.5881 17.9634 39.2448V31.4645C22.7689 31.0069 26.659 27.2311 27.0023 22.4256H56.6362ZM17.9634 48.2838V40.9611C21.8535 41.3043 24.9428 44.3936 25.286 48.2838H18.1922C18.0778 48.3982 17.9634 48.2838 17.9634 48.2838ZM65.4462 48.3982H58.3524C58.8101 44.508 61.7849 41.4188 65.6751 41.0755V48.2838C65.6751 48.2838 65.5606 48.3982 65.4462 48.3982ZM65.6751 22.4256V29.7483C61.7849 29.405 58.6956 26.3158 58.3524 22.4256H65.4462C65.5606 22.4256 65.6751 22.54 65.6751 22.4256ZM18.1922 20.7094C17.0481 20.7094 16.2471 21.5103 16.2471 22.4256V35.4691H2.0595C1.94508 35.4691 1.71625 35.3547 1.71625 35.1259V16.8192H51.373V20.7094H18.1922ZM1.83066 7.89474H51.4874V15.103H1.83066V7.89474ZM2.0595 1.71625H51.1442C51.2586 1.71625 51.4874 1.83066 51.4874 2.0595V6.17849H1.83066V2.0595C1.83066 1.94508 1.94508 1.71625 2.0595 1.71625Z" fill="#1123FF"/>
<path d="M11.3272 27.1167C10.5263 27.1167 9.72536 27.46 9.15328 27.9176C8.5812 27.46 7.78028 27.1167 6.97937 27.1167C5.14871 27.1167 3.54688 28.6041 3.54688 30.5492C3.54688 32.3799 5.03429 33.9817 6.97937 33.9817C7.78028 33.9817 8.5812 33.6384 9.15328 33.1808C9.72536 33.6384 10.5263 33.9817 11.3272 33.9817C13.1579 33.9817 14.7597 32.4943 14.7597 30.5492C14.7597 28.7185 13.2723 27.1167 11.3272 27.1167ZM5.37754 30.5492C5.37754 29.6339 6.17845 28.833 7.09379 28.833C7.55145 28.833 7.8947 29.0618 8.23795 29.2906C8.12353 29.6339 8.00912 30.0915 8.00912 30.5492C8.00912 31.0069 8.12353 31.3501 8.23795 31.8078C7.8947 32.151 7.55145 32.2654 7.09379 32.2654C6.17845 32.2654 5.37754 31.4645 5.37754 30.5492ZM11.3272 32.2654C10.4119 32.2654 9.61095 31.4645 9.61095 30.5492C9.61095 29.6339 10.4119 28.833 11.3272 28.833C12.2425 28.833 13.0434 29.6339 13.0434 30.5492C13.0434 31.4645 12.2425 32.2654 11.3272 32.2654Z" fill="#1123FF"/>
<path d="M41.8761 46.1098C47.7114 46.1098 52.5169 41.3043 52.5169 35.4691C52.5169 29.6339 47.7114 24.8284 41.8761 24.8284C36.0409 24.8284 31.2354 29.6339 31.2354 35.4691C31.121 41.3043 35.9265 46.1098 41.8761 46.1098ZM41.8761 26.4302C46.796 26.4302 50.8006 30.4348 50.8006 35.3547C50.8006 40.2746 46.796 44.2792 41.8761 44.2792C36.9562 44.2792 32.9516 40.2746 32.9516 35.3547C32.9516 30.4348 36.8418 26.4302 41.8761 26.4302Z" fill="#1123FF"/>
<path d="M39.1305 39.2448C39.3593 39.4737 39.7026 39.7025 40.0458 39.9313C40.2747 40.0458 40.6179 40.1602 40.9612 40.1602V41.9908C40.9612 42.4485 41.3044 42.9062 41.8765 42.9062C42.4486 42.9062 42.7918 42.5629 42.7918 41.9908V40.1602C43.2495 40.0458 43.5927 39.9313 43.936 39.7025C44.3937 39.4737 44.7369 39.016 44.9657 38.6728C45.1946 38.2151 45.309 37.7574 45.309 37.2998C45.309 36.9565 45.1946 36.4988 45.0802 36.1556C44.9657 35.8123 44.7369 35.5835 44.5081 35.2403C44.2792 35.0114 43.936 34.7826 43.5927 34.6682C43.3639 34.5538 43.0207 34.4393 42.7918 34.4393V31.8078C43.1351 32.0366 43.2495 32.2654 43.3639 32.7231C43.4783 33.1808 43.8216 33.4096 44.1648 33.4096C44.3937 33.4096 44.6225 33.2952 44.7369 33.1808C44.8513 33.0663 44.9657 32.8375 44.9657 32.6087C44.9657 32.3798 44.9657 32.151 44.8513 31.9222C44.7369 31.6933 44.6225 31.4645 44.3937 31.2357C44.1648 30.8924 43.8216 30.778 43.4783 30.5492C43.2495 30.4348 43.0207 30.4348 42.6774 30.3204V28.8329C42.6774 28.3753 42.3342 27.9176 41.7621 27.9176C41.19 27.9176 40.8468 28.2609 40.8468 28.8329V30.3204C40.1603 30.4348 39.5882 30.6636 39.2449 31.1213C38.7873 31.5789 38.5584 32.2654 38.5584 32.9519C38.5584 33.524 38.6728 33.9817 38.9017 34.3249C39.1305 34.6682 39.4738 35.0114 39.817 35.1258C40.1603 35.2403 40.5035 35.3547 40.8468 35.5835V38.5583C40.7323 38.5583 40.6179 38.4439 40.6179 38.3295C40.3891 38.2151 40.2747 37.9863 40.2747 37.7574C40.1603 37.5286 40.0458 37.2998 39.9314 36.9565C39.9314 36.8421 39.817 36.6133 39.7026 36.6133C39.5882 36.4988 39.3593 36.4988 39.2449 36.4988C39.0161 36.4988 38.7873 36.6133 38.6728 36.7277C38.5584 36.8421 38.3296 37.2998 38.3296 37.5286C38.3296 37.7574 38.444 38.1007 38.5584 38.4439C38.6728 38.7872 38.9017 38.9016 39.1305 39.2448ZM43.2495 36.6133C43.4783 36.8421 43.5927 37.0709 43.5927 37.5286C43.5927 37.8718 43.4783 38.2151 43.2495 38.4439C43.1351 38.5583 42.9062 38.6728 42.6774 38.7872V36.27C42.9062 36.3844 43.1351 36.4988 43.2495 36.6133ZM40.5035 33.6384C40.2747 33.4096 40.1603 33.1808 40.1603 32.8375C40.1603 32.4943 40.2747 32.151 40.5035 32.0366C40.6179 31.9222 40.7323 31.8078 40.9612 31.8078V33.9817C40.8468 33.8673 40.6179 33.7528 40.5035 33.6384Z" fill="#1123FF"/>
</svg>
