<svg width="76" height="58" viewBox="0 0 76 58" fill="none" xmlns="http://www.w3.org/2000/svg">
<g filter="url(#filter0_d)">
<path d="M6.0595 37.2998H20.2471V48.2837C20.2471 49.1991 21.1625 50 22.1922 50H69.4462C70.5904 50 71.3913 49.1991 71.3913 48.2837V22.4256C71.3913 21.5103 70.476 20.7094 69.4462 20.7094H57.0892V16.0183V7.09382V2.0595C57.0892 0.915332 56.1739 0 55.0297 0H6.0595C4.91533 0 4 0.915332 4 2.0595V7.09382V16.0183V35.2403C4.11442 36.3844 5.02975 37.2998 6.0595 37.2998ZM21.9634 22.54C21.9634 22.54 22.0778 22.4256 22.1922 22.4256H29.286C28.8284 26.3158 25.8535 29.405 21.9634 29.7483V22.54ZM60.6362 22.4256C61.0938 27.2311 64.8696 31.1213 69.6751 31.4645V39.2448C64.8696 39.7025 60.9794 43.4783 60.6362 48.2837H31.0023C30.5446 43.4783 26.7689 39.5881 21.9634 39.2448V31.4645C26.7689 31.0069 30.659 27.2311 31.0023 22.4256H60.6362ZM21.9634 48.2837V40.9611C25.8535 41.3043 28.9428 44.3936 29.286 48.2837H22.1922C22.0778 48.3982 21.9634 48.2837 21.9634 48.2837ZM69.4462 48.3982H62.3524C62.8101 44.508 65.7849 41.4188 69.6751 41.0755V48.2837C69.6751 48.2837 69.5606 48.3982 69.4462 48.3982ZM69.6751 22.4256V29.7483C65.7849 29.405 62.6956 26.3158 62.3524 22.4256H69.4462C69.5606 22.4256 69.6751 22.54 69.6751 22.4256ZM22.1922 20.7094C21.0481 20.7094 20.2471 21.5103 20.2471 22.4256V35.4691H6.0595C5.94508 35.4691 5.71625 35.3547 5.71625 35.1259V16.8192H55.373V20.7094H22.1922ZM5.83066 7.89474H55.4874V15.103H5.83066V7.89474ZM6.0595 1.71625H55.1442C55.2586 1.71625 55.4874 1.83066 55.4874 2.0595V6.17849H5.83066V2.0595C5.83066 1.94508 5.94508 1.71625 6.0595 1.71625Z" fill="#FA304D"/>
<path d="M15.3272 27.1167C14.5263 27.1167 13.7254 27.4599 13.1533 27.9176C12.5812 27.4599 11.7803 27.1167 10.9794 27.1167C9.14871 27.1167 7.54688 28.6041 7.54688 30.5492C7.54688 32.3798 9.03429 33.9817 10.9794 33.9817C11.7803 33.9817 12.5812 33.6384 13.1533 33.1808C13.7254 33.6384 14.5263 33.9817 15.3272 33.9817C17.1579 33.9817 18.7597 32.4943 18.7597 30.5492C18.7597 28.7185 17.2723 27.1167 15.3272 27.1167ZM9.37754 30.5492C9.37754 29.6339 10.1785 28.8329 11.0938 28.8329C11.5515 28.8329 11.8947 29.0618 12.2379 29.2906C12.1235 29.6339 12.0091 30.0915 12.0091 30.5492C12.0091 31.0069 12.1235 31.3501 12.2379 31.8078C11.8947 32.151 11.5515 32.2654 11.0938 32.2654C10.1785 32.2654 9.37754 31.4645 9.37754 30.5492ZM15.3272 32.2654C14.4119 32.2654 13.6109 31.4645 13.6109 30.5492C13.6109 29.6339 14.4119 28.8329 15.3272 28.8329C16.2425 28.8329 17.0434 29.6339 17.0434 30.5492C17.0434 31.4645 16.2425 32.2654 15.3272 32.2654Z" fill="#FA304D"/>
<path d="M45.8761 46.1096C51.7114 46.1096 56.5169 41.3041 56.5169 35.4689C56.5169 29.6336 51.7114 24.8281 45.8761 24.8281C40.0409 24.8281 35.2354 29.6336 35.2354 35.4689C35.121 41.3041 39.9265 46.1096 45.8761 46.1096ZM45.8761 26.43C50.796 26.43 54.8006 30.4345 54.8006 35.3544C54.8006 40.2743 50.796 44.2789 45.8761 44.2789C40.9562 44.2789 36.9516 40.2743 36.9516 35.3544C36.9516 30.4345 40.8418 26.43 45.8761 26.43Z" fill="#FA304D"/>
<path d="M43.1305 39.2447C43.3593 39.4736 43.7026 39.7024 44.0458 39.9312C44.2747 40.0456 44.6179 40.1601 44.9612 40.1601V41.9907C44.9612 42.4484 45.3044 42.906 45.8765 42.906C46.4486 42.906 46.7918 42.5628 46.7918 41.9907V40.1601C47.2495 40.0456 47.5927 39.9312 47.936 39.7024C48.3937 39.4736 48.7369 39.0159 48.9657 38.6726C49.1946 38.215 49.309 37.7573 49.309 37.2996C49.309 36.9564 49.1946 36.4987 49.0802 36.1555C48.9657 35.8122 48.7369 35.5834 48.5081 35.2401C48.2792 35.0113 47.936 34.7825 47.5927 34.6681C47.3639 34.5536 47.0207 34.4392 46.7918 34.4392V31.8076C47.1351 32.0365 47.2495 32.2653 47.3639 32.723C47.4783 33.1806 47.8216 33.4095 48.1648 33.4095C48.3937 33.4095 48.6225 33.2951 48.7369 33.1806C48.8513 33.0662 48.9657 32.8374 48.9657 32.6086C48.9657 32.3797 48.9657 32.1509 48.8513 31.9221C48.7369 31.6932 48.6225 31.4644 48.3937 31.2356C48.1648 30.8923 47.8216 30.7779 47.4783 30.5491C47.2495 30.4346 47.0207 30.4346 46.6774 30.3202V28.8328C46.6774 28.3751 46.3342 27.9175 45.7621 27.9175C45.19 27.9175 44.8468 28.2607 44.8468 28.8328V30.3202C44.1603 30.4346 43.5882 30.6635 43.2449 31.1211C42.7873 31.5788 42.5584 32.2653 42.5584 32.9518C42.5584 33.5239 42.6728 33.9816 42.9017 34.3248C43.1305 34.6681 43.4738 35.0113 43.817 35.1257C44.1603 35.2401 44.5035 35.3546 44.8468 35.5834V38.5582C44.7323 38.5582 44.6179 38.4438 44.6179 38.3294C44.3891 38.215 44.2747 37.9861 44.2747 37.7573C44.1603 37.5285 44.0458 37.2996 43.9314 36.9564C43.9314 36.842 43.817 36.6131 43.7026 36.6131C43.5882 36.4987 43.3593 36.4987 43.2449 36.4987C43.0161 36.4987 42.7873 36.6131 42.6728 36.7276C42.5584 36.842 42.3296 37.2996 42.3296 37.5285C42.3296 37.7573 42.444 38.1006 42.5584 38.4438C42.6728 38.7871 42.9017 38.9015 43.1305 39.2447ZM47.2495 36.6131C47.4783 36.842 47.5927 37.0708 47.5927 37.5285C47.5927 37.8717 47.4783 38.215 47.2495 38.4438C47.1351 38.5582 46.9062 38.6726 46.6774 38.7871V36.2699C46.9062 36.3843 47.1351 36.4987 47.2495 36.6131ZM44.5035 33.6383C44.2747 33.4095 44.1603 33.1806 44.1603 32.8374C44.1603 32.4941 44.2747 32.1509 44.5035 32.0365C44.6179 31.9221 44.7323 31.8076 44.9612 31.8076V33.9816C44.8468 33.8671 44.6179 33.7527 44.5035 33.6383Z" fill="#FA304D"/>
</g>
<defs>
<filter id="filter0_d" x="0" y="0" width="75.3913" height="58" filterUnits="userSpaceOnUse" color-interpolation-filters="sRGB">
<feFlood flood-opacity="0" result="BackgroundImageFix"/>
<feColorMatrix in="SourceAlpha" type="matrix" values="0 0 0 0 0 0 0 0 0 0 0 0 0 0 0 0 0 0 127 0"/>
<feOffset dy="4"/>
<feGaussianBlur stdDeviation="2"/>
<feColorMatrix type="matrix" values="0 0 0 0 0 0 0 0 0 0 0 0 0 0 0 0 0 0 0.15 0"/>
<feBlend mode="normal" in2="BackgroundImageFix" result="effect1_dropShadow"/>
<feBlend mode="normal" in="SourceGraphic" in2="effect1_dropShadow" result="shape"/>
</filter>
</defs>
</svg>
