<svg width="17" height="21" viewBox="0 0 17 21" fill="none" xmlns="http://www.w3.org/2000/svg">
<path d="M16.7008 10.8597C16.5952 10.3922 16.3841 10.0146 16.0497 9.691C15.7153 9.38535 15.3106 9.18757 14.8706 9.13364C13.4627 8.97182 11.3333 8.8999 8.5 8.8999C5.66667 8.8999 3.53727 8.97182 2.147 9.13364C1.68944 9.18757 1.30228 9.36737 0.967909 9.691C0.63354 9.99665 0.404762 10.3922 0.299172 10.8597C0.10559 11.7586 0 13.1251 0 14.959C0 16.8109 0.10559 18.1773 0.299172 19.0583C0.404762 19.5258 0.615942 19.9033 0.950311 20.227C1.28468 20.5326 1.68944 20.7124 2.1294 20.7663C3.53727 20.9282 5.66667 21.0181 8.5 21.0181C11.3333 21.0181 13.4627 20.9282 14.8706 20.7663C15.3106 20.7124 15.6977 20.5326 16.0321 20.227C16.3665 19.9213 16.5952 19.5258 16.7008 19.0583C16.8944 18.1593 17 16.7929 17 14.959C17 13.0891 16.8944 11.7227 16.7008 10.8597ZM4.85714 12.0283H3.62526V18.6987H2.48137V12.0283H1.26708V10.9316H4.83954V12.0283H4.85714ZM7.95445 18.6987H6.93375V18.0694C6.52899 18.5549 6.12422 18.7886 5.77226 18.7886C5.42029 18.7886 5.19151 18.6448 5.10352 18.3571C5.05072 18.1773 5.01553 17.8896 5.01553 17.4941V12.9093H6.03623V17.1705C6.03623 17.4222 6.03623 17.566 6.05383 17.584C6.07143 17.7458 6.15942 17.8357 6.30021 17.8357C6.51139 17.8357 6.72257 17.6739 6.95135 17.3502V12.9093H7.97205V18.6987H7.95445ZM11.8437 16.9727C11.8437 17.548 11.8085 17.9256 11.7381 18.1413C11.6149 18.5728 11.3333 18.7886 10.9286 18.7886C10.559 18.7886 10.207 18.5728 9.85507 18.1413V18.6987H8.83437V10.9316H9.85507V13.4847C10.1894 13.0711 10.5414 12.8554 10.9286 12.8554C11.3333 12.8554 11.6149 13.0711 11.7381 13.5026C11.8085 13.7004 11.8437 14.096 11.8437 14.6713V16.9727ZM15.7329 16.0018H13.6739V17.0266C13.6739 17.566 13.8499 17.8357 14.2019 17.8357C14.4482 17.8357 14.6066 17.6919 14.6594 17.4222C14.677 17.3502 14.677 17.0985 14.677 16.703H15.7153V16.8468C15.7153 17.2244 15.7153 17.4581 15.6977 17.53C15.6801 17.7458 15.5921 17.9436 15.4513 18.1593C15.1698 18.5728 14.765 18.7886 14.2195 18.7886C13.6915 18.7886 13.2868 18.5908 12.9876 18.1953C12.7588 17.9076 12.6532 17.4581 12.6532 16.8288V14.7972C12.6532 14.1859 12.7588 13.7184 12.97 13.4307C13.2692 13.0352 13.6739 12.8374 14.2019 12.8374C14.7122 12.8374 15.117 13.0352 15.4161 13.4307C15.6273 13.7184 15.7329 14.1679 15.7329 14.7972V16.0018V16.0018Z" fill="white"/>
<path d="M10.3834 13.79C10.2074 13.79 10.0314 13.8799 9.87305 14.0418V17.5657C10.049 17.7455 10.2074 17.8174 10.3834 17.8174C10.6826 17.8174 10.8234 17.5477 10.8234 17.0263V14.5811C10.8234 14.0597 10.6826 13.79 10.3834 13.79Z" fill="white"/>
<path d="M14.1852 13.79C13.8332 13.79 13.6748 14.0597 13.6748 14.5811V15.1205H14.7131V14.5811C14.7131 14.0597 14.5371 13.79 14.1852 13.79Z" fill="white"/>
<path d="M4.18867 4.67466V7.85702H5.33256V4.67466L6.72283 0H5.56134L4.78701 3.07449L3.95989 0H2.74561C2.95679 0.66524 3.20316 1.38442 3.48474 2.19349C3.8543 3.27226 4.08308 4.09932 4.18867 4.67466Z" fill="white"/>
<path d="M8.25296 7.92905C8.78091 7.92905 9.18567 7.73128 9.46724 7.33573C9.67842 7.04806 9.78401 6.58059 9.78401 5.95131V3.90165C9.78401 3.27237 9.67842 2.82289 9.46724 2.53522C9.18567 2.13967 8.78091 1.94189 8.25296 1.94189C7.74261 1.94189 7.33785 2.13967 7.05627 2.53522C6.84509 2.82289 6.7395 3.29035 6.7395 3.90165V5.95131C6.7395 6.58059 6.84509 7.03008 7.05627 7.33573C7.33785 7.73128 7.74261 7.92905 8.25296 7.92905ZM7.76021 3.6859C7.76021 3.14652 7.91859 2.87683 8.25296 2.87683C8.58733 2.87683 8.74571 3.14652 8.74571 3.6859V6.14909C8.74571 6.68847 8.58733 6.97614 8.25296 6.97614C7.91859 6.97614 7.76021 6.70645 7.76021 6.14909V3.6859Z" fill="white"/>
<path d="M11.4213 7.92883C11.8085 7.92883 12.1956 7.69509 12.6004 7.20965V7.85691H13.6387V1.99561H12.6004V6.47249C12.3716 6.8141 12.1604 6.97591 11.9493 6.97591C11.8085 6.97591 11.7381 6.88602 11.7029 6.7242C11.7029 6.70622 11.6853 6.58037 11.6853 6.31067V1.99561H10.647V6.61632C10.647 7.01187 10.6822 7.29954 10.735 7.49732C10.8406 7.78499 11.0693 7.92883 11.4213 7.92883Z" fill="white"/>
</svg>
